<svg xmlns="http://www.w3.org/2000/svg" height="48" viewBox="0 0 48 48" width="48"><path d="M20.461 32.648a2.556 2.556 0 0 1-.462.093 2.683 2.683 0 0 1 0-5.365 2.637 2.637 0 0 1 2.044 1 15.943 15.943 0 0 1 9.273-7.576l-9.75-17.724a1.789 1.789 0 0 0-3.134 0L1.787 33.34a1.788 1.788 0 0 0 1.567 2.65H20.1a15.93 15.93 0 0 1 .361-3.342Zm-2.607-20.8a.894.894 0 0 1 .894-.894h2.5a.894.894 0 0 1 .894.894v12.519a.894.894 0 0 1-.894.894h-2.5a.894.894 0 0 1-.894-.894Z"/><path d="M36 24.1A11.9 11.9 0 1 0 47.9 36 11.9 11.9 0 0 0 36 24.1Zm-2.229 19.8-6.133-6.132a.5.5 0 0 1 0-.707L29.4 35.3a.5.5 0 0 1 .707 0L34 39.188l8.939-8.94a.5.5 0 0 1 .707 0l1.887 1.887a.5.5 0 0 1 0 .707L34.478 43.9a.5.5 0 0 1-.707 0Z"/></svg>