<svg xmlns="http://www.w3.org/2000/svg" height="48" viewBox="0 0 48 48" width="48"><path d="M40 4H8a4 4 0 0 0-4 4v32a4 4 0 0 0 4 4h32a4 4 0 0 0 4-4V8a4 4 0 0 0-4-4ZM24 40a16 16 0 1 1 16-16 16 16 0 0 1-16 16Z"/><path d="M32.705 31.723c-2.052-5.658-4.27-12.01-6.295-17.584a.208.208 0 0 0-.222-.139h-4.465a.175.175 0 0 0-.2.194 4.937 4.937 0 0 1-.277 1.72c-1.747 4.8-4.105 11.621-5.575 15.781-.055.194 0 .3.222.3h3.328a.3.3 0 0 0 .333-.25L20.8 28h6.433l1.367 3.806a.249.249 0 0 0 .277.194h3.661c.195 0 .251-.083.167-.277Zm-8.764-14.45h.028c.554 2 1.789 5.5 2.343 7.383h-4.656c.721-2.246 1.869-5.497 2.285-7.383Z"/></svg>