<svg xmlns="http://www.w3.org/2000/svg" height="48" viewBox="0 0 48 48" width="48"><path d="M36 24.1A11.9 11.9 0 1 0 47.9 36 11.9 11.9 0 0 0 36 24.1Zm8 13.4a.5.5 0 0 1-.5.5H38v5.5a.5.5 0 0 1-.5.5h-3a.5.5 0 0 1-.5-.5V38h-5.5a.5.5 0 0 1-.5-.5v-3a.5.5 0 0 1 .5-.5H34v-5.5a.5.5 0 0 1 .5-.5h3a.5.5 0 0 1 .5.5V34h5.5a.5.5 0 0 1 .5.5Z"/><path d="M20.627 40H14v-4h6.1a15.843 15.843 0 0 1 1.18-6H14v-4h9.646a15.783 15.783 0 0 1 16.273-5.393A1 1 0 0 0 39 20H14V10h25a1 1 0 0 0 1-1V3a1 1 0 0 0-1-1H3a1 1 0 0 0-1 1v6a1 1 0 0 0 1 1h7v34a2 2 0 0 0 2 2h11.645a15.84 15.84 0 0 1-3.018-6Z"/></svg>