<svg xmlns="http://www.w3.org/2000/svg" height="48" viewBox="0 0 48 48" width="48"><path d="M20.627 38H18V26h4.275a15.959 15.959 0 0 1 3.315-4H18V10h10v10.275a15.8 15.8 0 0 1 4-1.648V10h10v9.28a15.864 15.864 0 0 1 4 2.365V8a2 2 0 0 0-2-2H2a2 2 0 0 0-2 2v32a2 2 0 0 0 2 2h20.275a15.8 15.8 0 0 1-1.648-4ZM14 38H4V26h10Zm0-16H4V10h10Z"/><path d="M36 22.1A11.9 11.9 0 1 0 47.9 34 11.9 11.9 0 0 0 36 22.1ZM44.925 34a8.859 8.859 0 0 1-1.663 5.158l-12.42-12.42A8.9 8.9 0 0 1 44.925 34Zm-17.85 0a8.859 8.859 0 0 1 1.663-5.158l12.42 12.42A8.9 8.9 0 0 1 27.075 34Z"/></svg>