<svg xmlns="http://www.w3.org/2000/svg" height="48" viewBox="0 0 48 48" width="48"><path d="M41.231 37.406a.59.59 0 0 1-.59.594h-11.2l-8.429 9.282a.578.578 0 0 1-.413.174.59.59 0 0 1-.599-.591V17.38a.59.59 0 0 1 .594-.591.58.58 0 0 1 .413.174l20.05 20.03a.578.578 0 0 1 .174.413Zm-27.782 2.579 3.669-6.4a.582.582 0 0 0-.24-.788l-1.508-.865a.584.584 0 0 0-.8.191l-3.668 6.4a.583.583 0 0 0 .239.788l1.509.865a.583.583 0 0 0 .799-.191Zm17.207-27.9 3.668-6.4a.582.582 0 0 0-.239-.788l-1.509-.865a.582.582 0 0 0-.8.192l-3.669 6.4a.582.582 0 0 0 .24.788l1.508.865a.584.584 0 0 0 .801-.195ZM4.488 31.8l6.73-3.021a.583.583 0 0 0 .269-.779l-.712-1.587a.583.583 0 0 0-.761-.316l-6.73 3.023a.583.583 0 0 0-.269.778l.712 1.587a.583.583 0 0 0 .761.315Zm30.327-13.043 6.729-3.021a.583.583 0 0 0 .27-.778l-.714-1.587a.584.584 0 0 0-.761-.316l-6.73 3.021a.583.583 0 0 0-.269.779l.712 1.586a.582.582 0 0 0 .763.316Zm-32.252.73L9.783 21a.583.583 0 0 0 .676-.471l.356-1.7a.583.583 0 0 0-.43-.7l-7.22-1.519a.583.583 0 0 0-.675.472l-.357 1.7a.584.584 0 0 0 .43.705Zm32.123 7.247 7.22 1.512a.583.583 0 0 0 .676-.472l.356-1.7a.583.583 0 0 0-.43-.7l-7.22-1.511a.582.582 0 0 0-.675.471l-.357 1.7a.583.583 0 0 0 .43.7ZM8.259 7.92l4.952 5.467a.583.583 0 0 0 .824.015l1.289-1.167a.583.583 0 0 0 .065-.821l-4.952-5.467a.584.584 0 0 0-.824-.016L8.324 7.1a.583.583 0 0 0-.065.82Zm11.02-5.1.794 7.334a.581.581 0 0 0 .657.5l1.729-.187a.582.582 0 0 0 .535-.626L22.2 2.5a.583.583 0 0 0-.657-.5l-1.729.187a.582.582 0 0 0-.535.63Z"/></svg>