<svg xmlns="http://www.w3.org/2000/svg" height="48" viewBox="0 0 48 48" width="48"><path d="M2.87 34.29a1.685 1.685 0 0 0 1.708 1.525l19.769.167a3.7 3.7 0 0 0 3.62-4.054 3.7 3.7 0 0 0-4.32-3.3L4.26 32.471a1.685 1.685 0 0 0-1.39 1.819Z"/><path d="M43.736 24.745a19.982 19.982 0 0 0-39.683 2.416 1.008 1.008 0 0 0 1.206 1.006l2.026-.4a1 1 0 0 0 .8-.916 16.015 16.015 0 0 1 4.336-9.824A15.456 15.456 0 0 1 20.4 12.4 16.031 16.031 0 0 1 40 28a15.865 15.865 0 0 1-1.176 5.966.988.988 0 0 0 .207 1.078l1.529 1.53a.994.994 0 0 0 1.6-.256 19.8 19.8 0 0 0 1.576-11.573Z"/></svg>