<svg xmlns="http://www.w3.org/2000/svg" height="48" viewBox="0 0 48 48" width="48"><path d="M44 6H4a2 2 0 0 0-2 2v32a2 2 0 0 0 2 2h40a2 2 0 0 0 2-2V8a2 2 0 0 0-2-2Zm-2 32H6V10h36Z"/><path d="M8 10h2v28H8z"/><path d="M6 10h2v28H6z"/><path d="M10 10h2v28h-2z"/><path d="M12 10h2v28h-2z"/><path d="M14 10h2v28h-2z"/><path d="M16 10h2v28h-2z"/><path d="M18 10h2v28h-2z"/><path d="M20 10h2v28h-2z"/><path d="M22 10h2v28h-2z"/><path d="M24 10h2v28h-2z"/><path d="M26 10h2v28h-2z"/><path d="M28 10h2v28h-2z"/><path d="M30 10h2v28h-2z"/><path d="M32 10h2v28h-2z"/><path d="M34 10h2v28h-2z"/><path d="M36 10h2v28h-2z"/><path d="M38 10h2v28h-2z"/></svg>