<svg xmlns="http://www.w3.org/2000/svg" height="48" viewBox="0 0 48 48" width="48"><path d="M14.029 21.346h4.163a1.035 1.035 0 0 0 .835-.454 5.705 5.705 0 0 1 1.31-1.31 1.035 1.035 0 0 0 .454-.835v-4.163a1 1 0 0 0-1.365-.939 11.392 11.392 0 0 0-6.336 6.336 1 1 0 0 0 .939 1.365ZM24.809 35.545a11.483 11.483 0 0 0 10.18-10.178 11.366 11.366 0 0 0-7.141-11.727 1 1 0 0 0-1.355.94v4.175a1.016 1.016 0 0 0 .447.821 5.668 5.668 0 0 1 2.226 6.059 5.607 5.607 0 0 1-4.09 4.087 5.668 5.668 0 0 1-6.055-2.222 1.016 1.016 0 0 0-.821-.447h-4.175a1 1 0 0 0-.94 1.355 11.365 11.365 0 0 0 11.724 7.137Z"/><path d="M26.988 5.165v3.781a1.006 1.006 0 0 0 .768.967A14.282 14.282 0 0 1 38.394 23.7a12.2 12.2 0 0 1-.123 1.659 1.009 1.009 0 0 0 .621 1.085l3.548 1.4a1.008 1.008 0 0 0 1.357-.779 19.36 19.36 0 0 0 .3-3.362A19.976 19.976 0 0 0 28.209 4.185a1.008 1.008 0 0 0-1.221.98ZM12.438 9.189l.72.72a1.007 1.007 0 0 0 1.262.121 16.987 16.987 0 0 1 5.562-2.3 1.006 1.006 0 0 0 .807-.977V5.659a1.009 1.009 0 0 0-1.231-.976A19.8 19.8 0 0 0 12.6 7.637a1.008 1.008 0 0 0-.162 1.552ZM5.1 21.346h.913a1 1 0 0 0 .971-.792A16.973 16.973 0 0 1 9.248 15.2a1 1 0 0 0-.12-1.259l-.688-.688a1.008 1.008 0 0 0-1.56.178 19.827 19.827 0 0 0-2.753 6.687 1.008 1.008 0 0 0 .973 1.228ZM7.832 27.049H5.1a1.008 1.008 0 0 0-.978 1.225 19.993 19.993 0 0 0 15.44 15.443 1.008 1.008 0 0 0 1.225-.978V40.2a1.008 1.008 0 0 0-.785-.973 15.234 15.234 0 0 1-11.2-11.378 1.009 1.009 0 0 0-.97-.8Zm28.338 6a15.207 15.207 0 0 1-8.892 6.175 1.009 1.009 0 0 0-.785.973v2.539a1.008 1.008 0 0 0 1.23.976 19.987 19.987 0 0 0 12.584-8.571 1.008 1.008 0 0 0-.459-1.5l-2.477-.975a1.01 1.01 0 0 0-1.201.385Z"/></svg>