<svg xmlns="http://www.w3.org/2000/svg" height="48" viewBox="0 0 48 48" width="48"><path d="M36.662 18.267c.011-.22.034-.436.034-.658a13.7 13.7 0 1 0-27.392 0c0 .222.023.438.034.658A13.688 13.688 0 1 0 23 41.962a13.687 13.687 0 1 0 13.662-23.7ZM23 37.341a10.048 10.048 0 0 1-2.759-6.315 13.83 13.83 0 0 0 5.518 0A10.048 10.048 0 0 1 23 37.341Zm0-9.641a10.054 10.054 0 0 1-2.343-.285A10.078 10.078 0 0 1 23 23.442a10.089 10.089 0 0 1 2.343 3.977A10.054 10.054 0 0 1 23 27.7Zm-5.649-1.732a10.141 10.141 0 0 1-4-5.391 9.906 9.906 0 0 1 6.721.727 13.679 13.679 0 0 0-2.721 4.668Zm8.576-4.664a9.906 9.906 0 0 1 6.721-.727 10.141 10.141 0 0 1-4 5.391 13.679 13.679 0 0 0-2.721-4.66ZM23 7.513a10.1 10.1 0 0 1 10.063 9.461A13.77 13.77 0 0 0 30.3 16.7a13.619 13.619 0 0 0-7.3 2.12 13.619 13.619 0 0 0-7.3-2.12 13.77 13.77 0 0 0-2.759.278A10.1 10.1 0 0 1 23 7.513ZM5.6 30.391a10.1 10.1 0 0 1 4.447-8.363 13.722 13.722 0 0 0 6.595 7.705c-.011.22-.033.436-.033.658a13.629 13.629 0 0 0 3.464 9.083A10.071 10.071 0 0 1 5.6 30.391Zm24.7 10.1a10.012 10.012 0 0 1-4.377-1.013 13.629 13.629 0 0 0 3.464-9.083c0-.222-.022-.438-.033-.658a13.722 13.722 0 0 0 6.6-7.705A10.093 10.093 0 0 1 30.3 40.487Z"/></svg>