<svg xmlns="http://www.w3.org/2000/svg" height="48" viewBox="0 0 48 48" width="48"><path d="M18.1 4.8a2 2 0 0 0-1.6-.8H6a2 2 0 0 0-2 2v4h18ZM42 14H4v26a2 2 0 0 0 2 2h36a2 2 0 0 0 2-2V16a2 2 0 0 0-2-2Zm-26 5a1 1 0 0 1 1-1h18a1 1 0 0 1 1 1v2a1 1 0 0 1-1 1H17a1 1 0 0 1-1-1Zm-4 18a1 1 0 0 1-1 1H9a1 1 0 0 1-1-1v-2a1 1 0 0 1 1-1h2a1 1 0 0 1 1 1Zm0-8a1 1 0 0 1-1 1H9a1 1 0 0 1-1-1v-2a1 1 0 0 1 1-1h2a1 1 0 0 1 1 1Zm0-8a1 1 0 0 1-1 1H9a1 1 0 0 1-1-1v-2a1 1 0 0 1 1-1h2a1 1 0 0 1 1 1Zm22 16a1 1 0 0 1-1 1H17a1 1 0 0 1-1-1v-2a1 1 0 0 1 1-1h16a1 1 0 0 1 1 1Zm6-8a1 1 0 0 1-1 1H17a1 1 0 0 1-1-1v-2a1 1 0 0 1 1-1h22a1 1 0 0 1 1 1Z"/></svg>