<svg xmlns="http://www.w3.org/2000/svg" height="48" viewBox="0 0 48 48" width="48"><path d="M4 8h32V4a2 2 0 0 0-2-2H2a2 2 0 0 0-2 2v26a2 2 0 0 0 2 2h2Z"/><path d="M20.224 38H12V20h28v.728a15.8 15.8 0 0 1 4 1.647V14a2 2 0 0 0-2-2H10a2 2 0 0 0-2 2v26a2 2 0 0 0 2 2h11.244a15.763 15.763 0 0 1-1.02-4Z"/><path d="M36 24.1A11.9 11.9 0 1 0 47.9 36 11.9 11.9 0 0 0 36 24.1ZM44.925 36a8.859 8.859 0 0 1-1.663 5.158l-12.42-12.42A8.9 8.9 0 0 1 44.925 36Zm-17.85 0a8.859 8.859 0 0 1 1.663-5.158l12.42 12.42A8.9 8.9 0 0 1 27.075 36Z"/></svg>