<svg xmlns="http://www.w3.org/2000/svg" height="48" viewBox="0 0 48 48" width="48"><path d="M44.194 4.424 2 17a1.065 1.065 0 0 0-.191 1.978l9.669 4.834ZM20.3 33.619 12.066 29v10.185a.95.95 0 0 0 1.564.725l6.551-5.518c.026-.262.078-.515.119-.773ZM36 20.1a15.868 15.868 0 0 1 4.169.571l7.286-14.58-31.377 19.951 5.7 2.875A15.885 15.885 0 0 1 36 20.1Z"/><path d="M36 24.1A11.9 11.9 0 1 0 47.9 36 11.9 11.9 0 0 0 36 24.1Zm-2.229 19.8-6.133-6.133a.5.5 0 0 1 0-.707L29.4 35.3a.5.5 0 0 1 .707 0L34 39.188l8.939-8.94a.5.5 0 0 1 .707 0l1.887 1.887a.5.5 0 0 1 0 .707L34.479 43.9a.5.5 0 0 1-.708 0Z"/></svg>