<svg xmlns="http://www.w3.org/2000/svg" height="48" viewBox="0 0 48 48" width="48"><path d="M24 17.526A6.474 6.474 0 1 0 30.474 24 6.475 6.475 0 0 0 24 17.526Z" opacity=".07"/><path d="M24 15.591A8.409 8.409 0 1 0 32.409 24 8.409 8.409 0 0 0 24 15.591Zm0 14.883A6.474 6.474 0 1 1 30.474 24 6.475 6.475 0 0 1 24 30.474Z" opacity=".18"/><path d="M24 13.572A10.428 10.428 0 1 0 34.428 24 10.428 10.428 0 0 0 24 13.572Zm0 18.837A8.409 8.409 0 1 1 32.409 24 8.409 8.409 0 0 1 24 32.409Z" opacity=".28"/><path d="M24 11.487A12.513 12.513 0 1 0 36.513 24 12.513 12.513 0 0 0 24 11.487Zm0 22.941A10.428 10.428 0 1 1 34.428 24 10.428 10.428 0 0 1 24 34.428Z" opacity=".38"/><path d="M24 9.4A14.6 14.6 0 1 0 38.6 24 14.6 14.6 0 0 0 24 9.4Zm0 27.112A12.513 12.513 0 1 1 36.513 24 12.513 12.513 0 0 1 24 36.513Z" opacity=".5"/><path d="M19.523 40.059h8.954a16.7 16.7 0 0 0 11.582-11.581v-8.956A16.7 16.7 0 0 0 28.478 7.941h-8.956A16.7 16.7 0 0 0 7.941 19.522v8.956a16.7 16.7 0 0 0 11.582 11.581ZM24 9.4A14.6 14.6 0 1 1 9.4 24 14.6 14.6 0 0 1 24 9.4Z" opacity=".6"/><path d="M19.522 7.941h-5.2a18.838 18.838 0 0 0-6.378 6.378v5.2A16.7 16.7 0 0 1 19.522 7.941ZM28.477 40.059h5.2a18.838 18.838 0 0 0 6.378-6.378v-5.2a16.7 16.7 0 0 1-11.578 11.578ZM7.941 28.478v5.2a18.838 18.838 0 0 0 6.378 6.378h5.2A16.7 16.7 0 0 1 7.941 28.478ZM40.059 19.522v-5.2a18.838 18.838 0 0 0-6.378-6.378h-5.2a16.7 16.7 0 0 1 11.578 11.578Z"/><path d="M33.681 40.059H37.3a20.969 20.969 0 0 0 2.759-2.759v-3.619a18.838 18.838 0 0 1-6.378 6.378ZM14.319 7.941H10.7A20.969 20.969 0 0 0 7.941 10.7v3.623a18.838 18.838 0 0 1 6.378-6.382ZM7.941 33.681V37.3a20.969 20.969 0 0 0 2.759 2.759h3.623a18.838 18.838 0 0 1-6.382-6.378ZM40.059 14.319V10.7A20.969 20.969 0 0 0 37.3 7.941h-3.619a18.838 18.838 0 0 1 6.378 6.378Z"/><path d="M42 4H6a2 2 0 0 0-2 2v36a2 2 0 0 0 2 2h36a2 2 0 0 0 2-2V6a2 2 0 0 0-2-2Zm-1.941 33.3a20.969 20.969 0 0 1-2.759 2.759H10.7A20.969 20.969 0 0 1 7.941 37.3V10.7A20.969 20.969 0 0 1 10.7 7.941h26.6a20.969 20.969 0 0 1 2.759 2.759Z"/></svg>