<svg xmlns="http://www.w3.org/2000/svg" height="48" viewBox="0 0 48 48" width="48"><path d="M20.728 40H20V28h2.375a15.95 15.95 0 0 1 3.314-4H20v-4h20v.6a15.824 15.824 0 0 1 4 1.612V6a2 2 0 0 0-2-2H6a2 2 0 0 0-2 2v36a2 2 0 0 0 2 2h16.375a15.8 15.8 0 0 1-1.647-4ZM8 8h32v8H8Zm8 32H8v-4h8Zm0-8H8v-4h8Zm0-8H8v-4h8Z"/><path d="M36.1 24.1A11.9 11.9 0 1 0 48 36a11.9 11.9 0 0 0-11.9-11.9Zm8 13.4a.5.5 0 0 1-.5.5h-5.5v5.5a.5.5 0 0 1-.5.5h-3a.5.5 0 0 1-.5-.5V38h-5.5a.5.5 0 0 1-.5-.5v-3a.5.5 0 0 1 .5-.5h5.5v-5.5a.5.5 0 0 1 .5-.5h3a.5.5 0 0 1 .5.5V34h5.5a.5.5 0 0 1 .5.5Z"/></svg>