<svg xmlns="http://www.w3.org/2000/svg" height="48" viewBox="0 0 48 48" width="48"><path d="M32 22h-6v-6h-4v6h-6v4h6v6h4v-6h6v-4zM28 5h-3V2h-2v3h-3v2h3v3h2V7h3V5zM28 41h-3v-3h-2v3h-3v2h3v3h2v-3h3v-2zM46 23h-3v-3h-2v3h-3v2h3v3h2v-3h3v-2zM10 23H7v-3H5v3H2v2h3v3h2v-3h3v-2zM41.6 10.9h-4.5V6.4h-3v4.5h-4.5v3h4.5v4.5h3v-4.5h4.5v-3zM18.4 10.9h-4.5V6.4h-3v4.5H6.4v3h4.5v4.5h3v-4.5h4.5v-3zM41.6 34.1h-4.5v-4.5h-3v4.5h-4.5v3h4.5v4.5h3v-4.5h4.5v-3zM18.4 34.1h-4.5v-4.5h-3v4.5H6.4v3h4.5v4.5h3v-4.5h4.5v-3z"/></svg>