<svg xmlns="http://www.w3.org/2000/svg" height="48" viewBox="0 0 48 48" width="48"><path d="M6 4v40h36V4Zm6 37a1 1 0 0 1-1 1H9a1 1 0 0 1-1-1v-4a1 1 0 0 1 1-1h2a1 1 0 0 1 1 1Zm0-10a1 1 0 0 1-1 1H9a1 1 0 0 1-1-1v-4a1 1 0 0 1 1-1h2a1 1 0 0 1 1 1Zm0-10a1 1 0 0 1-1 1H9a1 1 0 0 1-1-1v-4a1 1 0 0 1 1-1h2a1 1 0 0 1 1 1Zm0-10a1 1 0 0 1-1 1H9a1 1 0 0 1-1-1V7a1 1 0 0 1 1-1h2a1 1 0 0 1 1 1Zm22 31H14V26h20Zm0-20H14V6h20Zm6 19a1 1 0 0 1-1 1h-2a1 1 0 0 1-1-1v-4a1 1 0 0 1 1-1h2a1 1 0 0 1 1 1Zm0-10a1 1 0 0 1-1 1h-2a1 1 0 0 1-1-1v-4a1 1 0 0 1 1-1h2a1 1 0 0 1 1 1Zm0-10a1 1 0 0 1-1 1h-2a1 1 0 0 1-1-1v-4a1 1 0 0 1 1-1h2a1 1 0 0 1 1 1Zm0-10a1 1 0 0 1-1 1h-2a1 1 0 0 1-1-1V7a1 1 0 0 1 1-1h2a1 1 0 0 1 1 1Z"/></svg>