<svg xmlns="http://www.w3.org/2000/svg" xmlns:xlink="http://www.w3.org/1999/xlink"><symbol id="spectrum-icon-18-AddCircle" viewBox="0 0 18 18"><path d="M12 8h-2V6a1 1 0 0 0-2 0v2H6a1 1 0 0 0 0 2h2v2a1 1 0 0 0 2 0v-2h2a1 1 0 0 0 0-2Z"/><path d="M15.786 3.085A9 9 0 1 0 2.22 14.913a8.944 8.944 0 0 0 6.169 3.065c.21.014.42.022.628.022a9 9 0 0 0 6.77-14.915Zm-2.183 11.19a7 7 0 0 1-9.2-10.553 6.948 6.948 0 0 1 4.59-1.724c.161 0 .324.006.487.017a7 7 0 0 1 4.123 12.26Z"/></symbol><symbol id="spectrum-icon-18-Alert" viewBox="0 0 18 18"><path d="M9 10.5a1 1 0 0 1-1-1V5a1 1 0 1 1 2 0v4.5a1 1 0 0 1-1 1Zm0 1.25A1.25 1.25 0 1 0 10.25 13 1.25 1.25 0 0 0 9 11.75Zm8.497 3.589a3.49 3.49 0 0 0 .079-3.474L12 1.815a3.385 3.385 0 0 0-5.994-.007L.416 11.88a3.485 3.485 0 0 0 .089 3.459A3.375 3.375 0 0 0 3.416 17h11.169a3.375 3.375 0 0 0 2.912-1.661ZM10.244 2.77l5.575 10.05a1.497 1.497 0 0 1-.037 1.489 1.374 1.374 0 0 1-1.197.69H3.416a1.374 1.374 0 0 1-1.197-.69 1.493 1.493 0 0 1-.046-1.474l5.593-10.08a1.386 1.386 0 0 1 2.478.015Z"/></symbol><symbol id="spectrum-icon-18-AlignBottom" viewBox="0 0 18 18"><path d="M15 11V7a2 2 0 0 0-4 0v4a2 2 0 0 0 4 0Zm-8 0V4a2 2 0 0 0-4 0v7a2 2 0 0 0 4 0Zm8.5 3h-13a1.5 1.5 0 0 0 0 3h13a1.5 1.5 0 0 0 0-3Z"/></symbol><symbol id="spectrum-icon-18-AlignCenter" viewBox="0 0 18 18"><path d="M14 11h-3.5V7H12a2 2 0 0 0 0-4h-1.5v-.5a1.5 1.5 0 0 0-3 0V3H6a2 2 0 0 0 0 4h1.5v4H4a2 2 0 0 0 0 4h3.5v.5a1.5 1.5 0 0 0 3 0V15H14a2 2 0 0 0 0-4Z"/></symbol><symbol id="spectrum-icon-18-AlignLeft" viewBox="0 0 18 18"><path d="M2.5 1A1.5 1.5 0 0 0 1 2.5v13a1.5 1.5 0 0 0 3 0v-13A1.5 1.5 0 0 0 2.5 1ZM7 7h4a2 2 0 0 0 0-4H7a2 2 0 0 0 0 4Zm7 4H7a2 2 0 0 0 0 4h7a2 2 0 0 0 0-4Z"/></symbol><symbol id="spectrum-icon-18-AlignMiddle" viewBox="0 0 18 18"><path d="M15.5 7.5H15V6a2 2 0 0 0-4 0v1.5H7V4a2 2 0 0 0-4 0v3.5h-.5a1.5 1.5 0 0 0 0 3H3V14a2 2 0 0 0 4 0v-3.5h4V12a2 2 0 0 0 4 0v-1.5h.5a1.5 1.5 0 0 0 0-3Z"/></symbol><symbol id="spectrum-icon-18-AlignRight" viewBox="0 0 18 18"><path d="M15.5 1A1.5 1.5 0 0 0 14 2.5v13a1.5 1.5 0 0 0 3 0v-13A1.5 1.5 0 0 0 15.5 1ZM11 3H7a2 2 0 0 0 0 4h4a2 2 0 0 0 0-4Zm0 8H4a2 2 0 0 0 0 4h7a2 2 0 0 0 0-4Z"/></symbol><symbol id="spectrum-icon-18-AlignTop" viewBox="0 0 18 18"><path d="M15.5 1h-13a1.5 1.5 0 0 0 0 3h13a1.5 1.5 0 0 0 0-3ZM13 5a2 2 0 0 0-2 2v4a2 2 0 0 0 4 0V7a2 2 0 0 0-2-2ZM5 5a2 2 0 0 0-2 2v7a2 2 0 0 0 4 0V7a2 2 0 0 0-2-2Z"/></symbol><symbol id="spectrum-icon-18-Apps" viewBox="0 0 18 18"><path d="M5 0H3a3.003 3.003 0 0 0-3 3v2a3.003 3.003 0 0 0 3 3h2a3.003 3.003 0 0 0 3-3V3a3.003 3.003 0 0 0-3-3Zm1 5a1.001 1.001 0 0 1-1 1H3a1.001 1.001 0 0 1-1-1V3a1.001 1.001 0 0 1 1-1h2a1.001 1.001 0 0 1 1 1Zm8-5h-2a3.003 3.003 0 0 0-3 3v2a3.003 3.003 0 0 0 3 3h2a3.003 3.003 0 0 0 3-3V3a3.003 3.003 0 0 0-3-3Zm1 5a1.001 1.001 0 0 1-1 1h-2a1.001 1.001 0 0 1-1-1V3a1.001 1.001 0 0 1 1-1h2a1.001 1.001 0 0 1 1 1Zm-1 4h-2a3.003 3.003 0 0 0-3 3v2a3.003 3.003 0 0 0 3 3h2a3.003 3.003 0 0 0 3-3v-2a3.003 3.003 0 0 0-3-3Zm1 5a1.001 1.001 0 0 1-1 1h-2a1.001 1.001 0 0 1-1-1v-2a1.001 1.001 0 0 1 1-1h2a1.001 1.001 0 0 1 1 1ZM5 9H3a3.003 3.003 0 0 0-3 3v2a3.003 3.003 0 0 0 3 3h2a3.003 3.003 0 0 0 3-3v-2a3.003 3.003 0 0 0-3-3Zm1 5a1.001 1.001 0 0 1-1 1H3a1.001 1.001 0 0 1-1-1v-2a1.001 1.001 0 0 1 1-1h2a1.001 1.001 0 0 1 1 1Z"/></symbol><symbol id="spectrum-icon-18-ArrowDown" viewBox="0 0 18 18"><path d="M12.293 11.293 10 13.586V2a1 1 0 0 0-2 0v11.586l-2.293-2.293a1 1 0 0 0-1.414 1.414l4 4a1 1 0 0 0 1.414 0l4-4a1 1 0 0 0-1.414-1.414Z"/></symbol><symbol id="spectrum-icon-18-ArrowLeft" viewBox="0 0 18 18"><path d="M16 8H4.414l2.293-2.293a1 1 0 0 0-1.414-1.414l-4 4a1 1 0 0 0 0 1.414l4 4a1 1 0 0 0 1.414-1.414L4.414 10H16a1 1 0 0 0 0-2Z"/></symbol><symbol id="spectrum-icon-18-ArrowRight" viewBox="0 0 18 18"><path d="M12.707 4.293a1 1 0 0 0-1.414 1.414L13.586 8H2a1 1 0 0 0 0 2h11.586l-2.293 2.293a1 1 0 0 0 1.414 1.414l4-4a1 1 0 0 0 0-1.414Z"/></symbol><symbol id="spectrum-icon-18-ArrowUp" viewBox="0 0 18 18"><path d="M9.707 1.293a1 1 0 0 0-1.414 0l-4 4a1 1 0 0 0 1.414 1.414L8 4.414V16a1 1 0 0 0 2 0V4.414l2.293 2.293a1 1 0 0 0 1.414-1.414Z"/></symbol><symbol id="spectrum-icon-18-Asset" viewBox="0 0 18 18"><path d="m5.326 7.042.4.547A1 1 0 0 0 7.34 6.41l-.463-.635a.977.977 0 0 0-.102-.119 2.248 2.248 0 0 0-3.166-.01L2 7.204V5a3.003 3.003 0 0 1 3-3h6a3.003 3.003 0 0 1 3 3 1 1 0 0 0 2 0 5.006 5.006 0 0 0-5-5H5a5.006 5.006 0 0 0-5 5v4a5.006 5.006 0 0 0 5 5 1 1 0 0 0 0-2 2.995 2.995 0 0 1-2.861-2.146l2.873-2.78a.25.25 0 0 1 .314-.032Z"/><circle cx="11.5" cy="4.5" r="1.5"/><path d="M14 7h-3a4.004 4.004 0 0 0-4 4v3a4.004 4.004 0 0 0 4 4h3a4.004 4.004 0 0 0 4-4v-3a4.004 4.004 0 0 0-4-4Zm2 7a2.003 2.003 0 0 1-2 2h-3a2.003 2.003 0 0 1-2-2v-3a2.003 2.003 0 0 1 2-2h3a2.003 2.003 0 0 1 2 2Z"/><path d="M11.733 10.584a.48.48 0 0 0-.733.463v2.906a.48.48 0 0 0 .733.463l2.351-1.453a.588.588 0 0 0 0-.926Z"/></symbol><symbol id="spectrum-icon-18-Bell" viewBox="0 0 18 18"><path d="M16.504 10.11A5.08 5.08 0 0 1 15.1 7.047a5.142 5.142 0 0 0-3.466-5.22 2.81 2.81 0 0 0-5.266 0 5.14 5.14 0 0 0-3.466 5.219 5.083 5.083 0 0 1-1.406 3.061 2.95 2.95 0 0 0-.395 3.163A2.981 2.981 0 0 0 3.821 15H6v.4A2.824 2.824 0 0 0 9 18a2.824 2.824 0 0 0 3-2.6V15h2.179a2.982 2.982 0 0 0 2.72-1.728 2.95 2.95 0 0 0-.395-3.163ZM10 15.4c0 .284-.428.6-1 .6s-1-.316-1-.6V15h2Zm5.09-2.98a.996.996 0 0 1-.911.58H3.82a.995.995 0 0 1-.91-.581.948.948 0 0 1 .127-1.036 6.873 6.873 0 0 0 1.864-4.335A3.16 3.16 0 0 1 7.19 3.653a1.66 1.66 0 0 0 1.005-1.007A.885.885 0 0 1 9 2a.892.892 0 0 1 .808.652 1.664 1.664 0 0 0 1 1A3.162 3.162 0 0 1 13.1 7.048a6.859 6.859 0 0 0 1.863 4.335.95.95 0 0 1 .126 1.037Z"/></symbol><symbol id="spectrum-icon-18-Blur" viewBox="0 0 18 18"><path d="M9 0C7.456 0 1 4.858 1 9.87a8 8 0 1 0 16 0C17 5.037 10.673 0 9 0Zm0 16a5.97 5.97 0 0 1-6-6.069C3 6.197 7.608 2.916 8.98 2 10.392 2.916 15 6.197 15 9.931A5.97 5.97 0 0 1 9 16Z"/></symbol><symbol id="spectrum-icon-18-Bookmark" viewBox="0 0 18 18"><path d="M12.5 1H5.506a1.503 1.503 0 0 0-1.5 1.5L4 15.78a1.18 1.18 0 0 0 .686 1.128A1.071 1.071 0 0 0 5.12 17a1.304 1.304 0 0 0 .88-.37l2.324-2.313a1 1 0 0 1 1.412.002l2.277 2.278A1.137 1.137 0 0 0 14 15.773V2.5A1.502 1.502 0 0 0 12.5 1ZM12 13.754l-.85-.85a3.005 3.005 0 0 0-4.238-.007L6 13.804V3h6Z"/></symbol><symbol id="spectrum-icon-18-Border" viewBox="0 0 18 18"><path d="M12 1H6a5.006 5.006 0 0 0-5 5v6a5.006 5.006 0 0 0 5 5h6a5.006 5.006 0 0 0 5-5V6a5.006 5.006 0 0 0-5-5Zm3 11a3.003 3.003 0 0 1-3 3H6a3.003 3.003 0 0 1-3-3V6a3.003 3.003 0 0 1 3-3h6a3.003 3.003 0 0 1 3 3Z"/></symbol><symbol id="spectrum-icon-18-Camera" viewBox="0 0 18 18"><path d="M13 17H5a5.006 5.006 0 0 1-5-5V7a5.006 5.006 0 0 1 4.567-4.981L6 .586A2.014 2.014 0 0 1 7.414 0h3.172A2.014 2.014 0 0 1 12 .586l1.433 1.433A5.006 5.006 0 0 1 18 7v5a5.006 5.006 0 0 1-5 5ZM7.414 2 5.707 3.707A1 1 0 0 1 5 4a3.003 3.003 0 0 0-3 3v5a3.003 3.003 0 0 0 3 3h8a3.003 3.003 0 0 0 3-3V7a3.003 3.003 0 0 0-3-3 1 1 0 0 1-.707-.293L10.586 2Z"/><path d="M13 17H5a5.006 5.006 0 0 1-5-5V7a5.006 5.006 0 0 1 4.567-4.981L6 .586A2.014 2.014 0 0 1 7.414 0h3.172A2.014 2.014 0 0 1 12 .586l1.433 1.433A5.006 5.006 0 0 1 18 7v5a5.006 5.006 0 0 1-5 5ZM7.414 2 5.707 3.707A1 1 0 0 1 5 4a3.003 3.003 0 0 0-3 3v5a3.003 3.003 0 0 0 3 3h8a3.003 3.003 0 0 0 3-3V7a3.003 3.003 0 0 0-3-3 1 1 0 0 1-.707-.293L10.586 2Z"/><path d="M9 13.5a4.25 4.25 0 1 1 4.25-4.25A4.254 4.254 0 0 1 9 13.5ZM9 7a2.25 2.25 0 1 0 2.25 2.25A2.253 2.253 0 0 0 9 7Z"/></symbol><symbol id="spectrum-icon-18-Cancel" viewBox="0 0 18 18"><path d="M9 0a8.97 8.97 0 0 0-6.34 2.62c-.007.007-.017.009-.024.016s-.009.016-.015.023a8.995 8.995 0 0 0 12.72 12.72c.006-.006.016-.008.023-.015s.009-.016.015-.023A8.995 8.995 0 0 0 9 0Zm0 16A6.987 6.987 0 0 1 3.402 4.815l9.782 9.784A6.954 6.954 0 0 1 9 16Zm5.598-2.815L4.816 3.4a6.987 6.987 0 0 1 9.782 9.784Z"/></symbol><symbol id="spectrum-icon-18-Checkmark" viewBox="0 0 18 18"><path d="M7.48 15a1.001 1.001 0 0 1-.685-.27l-4.48-4.207a1 1 0 0 1 1.37-1.459l3.666 3.444 6.85-9.109A1 1 0 1 1 15.8 4.6l-7.52 10a.998.998 0 0 1-.713.396.843.843 0 0 1-.086.004Z"/></symbol><symbol id="spectrum-icon-18-CheckmarkCircle" viewBox="0 0 18 18"><path d="M9.014 18.001a9.68 9.68 0 0 1-.628-.021 9 9 0 0 1-5.3-15.764 9 9 0 0 1 11.829 13.568 8.934 8.934 0 0 1-5.901 2.217ZM8.99 1.999a7 7 0 0 0-5.265 11.6A7 7 0 1 0 14.276 4.4 6.947 6.947 0 0 0 9.48 2.017a6.817 6.817 0 0 0-.489-.018Zm-.83 11.26a1 1 0 0 0 .713-.395l4.924-6.546a1 1 0 0 0-1.598-1.203L7.945 10.77 5.4 8.38a1 1 0 0 0-1.37 1.458l3.36 3.154a1 1 0 0 0 .684.27.843.843 0 0 0 .086-.003Z"/></symbol><symbol id="spectrum-icon-18-ChevronDown" viewBox="0 0 18 18"><path d="M12.293 6.293 9 9.586 5.707 6.293a1 1 0 0 0-1.414 1.414l4 4a1 1 0 0 0 1.414 0l4-4a1 1 0 0 0-1.414-1.414Z"/></symbol><symbol id="spectrum-icon-18-ChevronLeft" viewBox="0 0 18 18"><path d="M11.707 4.293a1 1 0 0 0-1.414 0l-4 4a1 1 0 0 0 0 1.414l4 4a1 1 0 0 0 1.414-1.414L8.414 9l3.293-3.293a1 1 0 0 0 0-1.414Z"/></symbol><symbol id="spectrum-icon-18-ChevronRight" viewBox="0 0 18 18"><path d="M7.707 4.293a1 1 0 0 0-1.414 1.414L9.586 9l-3.293 3.293a1 1 0 1 0 1.414 1.414l4-4a1 1 0 0 0 0-1.414Z"/></symbol><symbol id="spectrum-icon-18-ChevronUp" viewBox="0 0 18 18"><path d="M9.707 6.293a1 1 0 0 0-1.414 0l-4 4a1 1 0 0 0 1.414 1.414L9 8.414l3.293 3.293a1 1 0 0 0 1.414-1.414Z"/></symbol><symbol id="spectrum-icon-18-Clock" viewBox="0 0 18 18"><path d="M9 0a9 9 0 1 0 9 9 9.01 9.01 0 0 0-9-9Zm0 16a7 7 0 1 1 7-7 7.008 7.008 0 0 1-7 7Z"/><path d="M10.009 8.496V4A1.009 1.009 0 0 0 7.99 4v5c0 .025.013.046.014.07a1.445 1.445 0 0 0 .102.377.971.971 0 0 0 .104.154.998.998 0 0 0 .137.153c.018.016.027.038.047.053l4 3a1.009 1.009 0 0 0 1.21-1.614Z"/></symbol><symbol id="spectrum-icon-18-Delete" viewBox="0 0 18 18"><path d="M7 8a1 1 0 0 0-1 1v4a1 1 0 0 0 2 0V9a1 1 0 0 0-1-1Zm4 0a1 1 0 0 0-1 1v4a1 1 0 0 0 2 0V9a1 1 0 0 0-1-1Z"/><path d="M17 4h-4a4 4 0 0 0-8 0H1a1 1 0 0 0 0 2h1v9a3.003 3.003 0 0 0 3 3h8a3.003 3.003 0 0 0 3-3V6h1a1 1 0 0 0 0-2ZM9 2a2.003 2.003 0 0 1 2 2H7a2.003 2.003 0 0 1 2-2Zm5 13a1 1 0 0 1-1 1H5a1 1 0 0 1-1-1V6h10Z"/></symbol><symbol id="spectrum-icon-18-DeviceDesktop" viewBox="0 0 18 18"><path d="M13 0H5a5.006 5.006 0 0 0-5 5v4a5.006 5.006 0 0 0 5 5h3v2H7a1 1 0 0 0 0 2h4a1 1 0 0 0 0-2h-1v-2h3a5.006 5.006 0 0 0 5-5V5a5.006 5.006 0 0 0-5-5Zm3 9a3.003 3.003 0 0 1-3 3H5a3.003 3.003 0 0 1-3-3V5a3.003 3.003 0 0 1 3-3h8a3.003 3.003 0 0 1 3 3Z"/></symbol><symbol id="spectrum-icon-18-DeviceLaptop" viewBox="0 0 18 18"><path d="M17 10.87V6a5.006 5.006 0 0 0-5-5H6a5.006 5.006 0 0 0-5 5v4.87l-.496 1.89A3 3 0 0 0 3.236 17h11.528a3 3 0 0 0 2.732-4.24ZM3 6a3.003 3.003 0 0 1 3-3h6a3.003 3.003 0 0 1 3 3v4H3Zm12.615 8.525a.987.987 0 0 1-.85.475H3.234a1 1 0 0 1-.893-1.447 1.015 1.015 0 0 0 .073-.194L2.77 12H7a1 1 0 0 0 0 2h4a1 1 0 0 0 0-2h4.229l.356 1.36a1.015 1.015 0 0 0 .073.193.986.986 0 0 1-.043.972Z"/></symbol><symbol id="spectrum-icon-18-DevicePhone" viewBox="0 0 18 18"><path d="M12 0H6a3.003 3.003 0 0 0-3 3v11a3.003 3.003 0 0 0 3 3h6a3.003 3.003 0 0 0 3-3V3a3.003 3.003 0 0 0-3-3Zm1 14a1.001 1.001 0 0 1-1 1H6a1.001 1.001 0 0 1-1-1V3a1.001 1.001 0 0 1 1-1h2a1 1 0 0 0 0 2h2a1 1 0 0 0 0-2h2a1.001 1.001 0 0 1 1 1Z"/><circle cx="9" cy="13" r="1"/></symbol><symbol id="spectrum-icon-18-DeviceTablet" viewBox="0 0 18 18"><path d="M12 0H6a5.006 5.006 0 0 0-5 5v7a5.006 5.006 0 0 0 5 5h6a5.006 5.006 0 0 0 5-5V5a5.006 5.006 0 0 0-5-5Zm3 12a3.003 3.003 0 0 1-3 3H6a3.003 3.003 0 0 1-3-3V5a3.003 3.003 0 0 1 3-3h2a1 1 0 0 0 0 2h2a1 1 0 0 0 0-2h2a3.003 3.003 0 0 1 3 3Z"/><circle cx="9" cy="13" r="1"/></symbol><symbol id="spectrum-icon-18-Discover" viewBox="0 0 18 18"><path d="M9 17.995a8.975 8.975 0 0 1-6.364-2.63A9.013 9.013 0 1 1 9 17.994ZM4.05 13.95a7 7 0 1 0 0-9.9 7.01 7.01 0 0 0 0 9.9Z"/><path d="m13.197 11.93-1.68-4.963a1 1 0 0 0-.644-.633l-4.82-1.537a1 1 0 0 0-1.256 1.257l1.537 4.819a1 1 0 0 0 .633.644l4.963 1.68a1 1 0 0 0 1.267-1.267Zm-5.28-1.992 2.021-2.02 1.034 3.054Z"/></symbol><symbol id="spectrum-icon-22-AddCircle" viewBox="0 0 22 22"><path d="M16 10h-4V6a1 1 0 0 0-2 0v4H6a1 1 0 0 0 0 2h4v4a1 1 0 0 0 2 0v-4h4a1 1 0 0 0 0-2Z"/><path d="M11 0a11 11 0 1 0 11 11A11.012 11.012 0 0 0 11 0Zm0 20a9 9 0 1 1 9-9 9.01 9.01 0 0 1-9 9Z"/></symbol><symbol id="spectrum-icon-22-Alert" viewBox="0 0 22 22"><path d="M11 13a1 1 0 0 1-1-1V6a1 1 0 1 1 2 0v6a1 1 0 0 1-1 1Zm0 1.75A1.25 1.25 0 1 0 12.25 16 1.25 1.25 0 0 0 11 14.75Zm10.39 4.3a4.186 4.186 0 0 0 .114-4.153L14.53 2.163a3.963 3.963 0 0 0-7.057-.008L.49 14.912a4.18 4.18 0 0 0 .12 4.139A3.964 3.964 0 0 0 4.022 21H17.98a3.964 3.964 0 0 0 3.41-1.95ZM12.77 3.11l6.972 12.734a2.195 2.195 0 0 1-.063 2.174 1.957 1.957 0 0 1-1.7.982H4.022a1.957 1.957 0 0 1-1.699-.982 2.188 2.188 0 0 1-.07-2.16L9.238 3.095a1.965 1.965 0 0 1 3.53.014Z"/></symbol><symbol id="spectrum-icon-22-AlignBottom" viewBox="0 0 22 22"><path d="M19.5 18h-17a1.5 1.5 0 0 0 0 3h17a1.5 1.5 0 0 0 0-3ZM15 16a2 2 0 0 0 2-2V8a2 2 0 0 0-4 0v6a2 2 0 0 0 2 2Zm-8 0a2 2 0 0 0 2-2V4a2 2 0 0 0-4 0v10a2 2 0 0 0 2 2Z"/></symbol><symbol id="spectrum-icon-22-AlignCenter" viewBox="0 0 22 22"><path d="M16 13h-3.5V9H14a2 2 0 0 0 0-4h-1.5V2.5a1.5 1.5 0 0 0-3 0V5H8a2 2 0 0 0 0 4h1.5v4H6a2 2 0 0 0 0 4h3.5v2.5a1.5 1.5 0 0 0 3 0V17H16a2 2 0 0 0 0-4Z"/></symbol><symbol id="spectrum-icon-22-AlignLeft" viewBox="0 0 22 22"><path d="M1.5 1A1.5 1.5 0 0 0 0 2.5v17a1.5 1.5 0 0 0 3 0v-17A1.5 1.5 0 0 0 1.5 1ZM7 9h6a2 2 0 0 0 0-4H7a2 2 0 0 0 0 4Zm10 4H7a2 2 0 0 0 0 4h10a2 2 0 0 0 0-4Z"/></symbol><symbol id="spectrum-icon-22-AlignMiddle" viewBox="0 0 22 22"><path d="M19.5 9.5H17V8a2 2 0 0 0-4 0v1.5H9V6a2 2 0 0 0-4 0v3.5H2.5a1.5 1.5 0 0 0 0 3H5V16a2 2 0 0 0 4 0v-3.5h4V14a2 2 0 0 0 4 0v-1.5h2.5a1.5 1.5 0 0 0 0-3Z"/></symbol><symbol id="spectrum-icon-22-AlignRight" viewBox="0 0 22 22"><path d="M20.5 1A1.5 1.5 0 0 0 19 2.5v17a1.5 1.5 0 0 0 3 0v-17A1.5 1.5 0 0 0 20.5 1ZM15 5H9a2 2 0 0 0 0 4h6a2 2 0 0 0 0-4Zm0 8H5a2 2 0 0 0 0 4h10a2 2 0 0 0 0-4Z"/></symbol><symbol id="spectrum-icon-22-AlignTop" viewBox="0 0 22 22"><path d="M19.5 1h-17a1.5 1.5 0 0 0 0 3h17a1.5 1.5 0 0 0 0-3ZM7 6a2 2 0 0 0-2 2v6a2 2 0 0 0 4 0V8a2 2 0 0 0-2-2Zm8 0a2 2 0 0 0-2 2v10a2 2 0 0 0 4 0V8a2 2 0 0 0-2-2Z"/></symbol><symbol id="spectrum-icon-22-Apps" viewBox="0 0 22 22"><path d="M7 0H3a3.003 3.003 0 0 0-3 3v4a3.003 3.003 0 0 0 3 3h4a3.003 3.003 0 0 0 3-3V3a3.003 3.003 0 0 0-3-3Zm1 7a1.001 1.001 0 0 1-1 1H3a1.001 1.001 0 0 1-1-1V3a1.001 1.001 0 0 1 1-1h4a1.001 1.001 0 0 1 1 1Zm10-7h-4a3.003 3.003 0 0 0-3 3v4a3.003 3.003 0 0 0 3 3h4a3.003 3.003 0 0 0 3-3V3a3.003 3.003 0 0 0-3-3Zm1 7a1.001 1.001 0 0 1-1 1h-4a1.001 1.001 0 0 1-1-1V3a1.001 1.001 0 0 1 1-1h4a1.001 1.001 0 0 1 1 1ZM7 11H3a3.003 3.003 0 0 0-3 3v4a3.003 3.003 0 0 0 3 3h4a3.003 3.003 0 0 0 3-3v-4a3.003 3.003 0 0 0-3-3Zm1 7a1.001 1.001 0 0 1-1 1H3a1.001 1.001 0 0 1-1-1v-4a1.001 1.001 0 0 1 1-1h4a1.001 1.001 0 0 1 1 1Zm10-7h-4a3.003 3.003 0 0 0-3 3v4a3.003 3.003 0 0 0 3 3h4a3.003 3.003 0 0 0 3-3v-4a3.003 3.003 0 0 0-3-3Zm1 7a1.001 1.001 0 0 1-1 1h-4a1.001 1.001 0 0 1-1-1v-4a1.001 1.001 0 0 1 1-1h4a1.001 1.001 0 0 1 1 1Z"/></symbol><symbol id="spectrum-icon-22-ArrowDown" viewBox="0 0 22 22"><path d="M14.293 14.293 12 16.586V3a1 1 0 0 0-2 0v13.586l-2.293-2.293a1 1 0 0 0-1.414 1.414l4 4a1 1 0 0 0 1.414 0l4-4a1 1 0 0 0-1.414-1.414Z"/></symbol><symbol id="spectrum-icon-22-ArrowLeft" viewBox="0 0 22 22"><path d="M19 10H5.414l2.293-2.293a1 1 0 0 0-1.414-1.414l-4 4a1 1 0 0 0 0 1.414l4 4a1 1 0 0 0 1.414-1.414L5.414 12H19a1 1 0 0 0 0-2Z"/></symbol><symbol id="spectrum-icon-22-ArrowRight" viewBox="0 0 22 22"><path d="M15.707 6.293a1 1 0 0 0-1.414 1.414L16.586 10H3a1 1 0 0 0 0 2h13.586l-2.293 2.293a1 1 0 1 0 1.414 1.414l4-4a1 1 0 0 0 0-1.414Z"/></symbol><symbol id="spectrum-icon-22-ArrowUp" viewBox="0 0 22 22"><path d="M11.707 2.293a1 1 0 0 0-1.414 0l-4 4a1 1 0 0 0 1.414 1.414L10 5.414V19a1 1 0 0 0 2 0V5.414l2.293 2.293a1 1 0 0 0 1.414-1.414Z"/></symbol><symbol id="spectrum-icon-22-Asset" viewBox="0 0 22 22"><path d="M8.753 9.049a1 1 0 0 0 0-1.414l-.976-.977a2.3 2.3 0 0 0-3.178 0L2 9.257V5a3.003 3.003 0 0 1 3-3h10a3.003 3.003 0 0 1 3 3 1 1 0 0 0 2 0 5.006 5.006 0 0 0-5-5H5a5.006 5.006 0 0 0-5 5v8a5.006 5.006 0 0 0 5 5 1 1 0 0 0 0-2 3.003 3.003 0 0 1-3-3v-.985a.964.964 0 0 0 .207-.137l3.806-3.806a.217.217 0 0 1 .35 0l.976.977a1 1 0 0 0 1.414 0Z"/><circle cx="14.5" cy="5.5" r="1.5"/><path d="M17 8h-4a5.006 5.006 0 0 0-5 5v4a5.006 5.006 0 0 0 5 5h4a5.006 5.006 0 0 0 5-5v-4a5.006 5.006 0 0 0-5-5Zm3 9a3.003 3.003 0 0 1-3 3h-4a3.003 3.003 0 0 1-3-3v-4a3.003 3.003 0 0 1 3-3h4a3.003 3.003 0 0 1 3 3Z"/><path d="M14.222 12.126A.798.798 0 0 0 13 12.82v4.36a.798.798 0 0 0 1.222.694l3.403-2.18a.83.83 0 0 0 0-1.388Z"/></symbol><symbol id="spectrum-icon-22-Bell" viewBox="0 0 22 22"><path d="M18.387 8.444a6.126 6.126 0 0 0-4.287-6.25 3.285 3.285 0 0 0-6.197 0 6.125 6.125 0 0 0-4.287 6.25 6.326 6.326 0 0 1-1.813 3.908 3.369 3.369 0 0 0-.48 3.625A3.482 3.482 0 0 0 4.516 18H7a4 4 0 0 0 8 0h2.485a3.484 3.484 0 0 0 3.191-2.022 3.371 3.371 0 0 0-.478-3.626 6.4 6.4 0 0 1-1.811-3.908ZM11 20a2.002 2.002 0 0 1-2-2h4a2.002 2.002 0 0 1-2 2Zm7.863-4.867a1.482 1.482 0 0 1-1.378.867H4.515a1.482 1.482 0 0 1-1.378-.867 1.371 1.371 0 0 1 .197-1.494 8.179 8.179 0 0 0 2.282-5.195 4.147 4.147 0 0 1 3.03-4.393 1.826 1.826 0 0 0 1.107-1.09 1.293 1.293 0 0 1 2.5.008 1.829 1.829 0 0 0 1.103 1.082 4.148 4.148 0 0 1 3.03 4.393 8.164 8.164 0 0 0 2.28 5.195 1.371 1.371 0 0 1 .197 1.494Z"/></symbol><symbol id="spectrum-icon-22-Blur" viewBox="0 0 22 22"><path d="M12.22.352a2.293 2.293 0 0 0-2.44 0C7.14 2.016 1 6.498 1 12.154A9.818 9.818 0 0 0 11 22a9.818 9.818 0 0 0 10-9.846C21 6.498 14.86 2.016 12.22.352ZM11 20a7.84 7.84 0 0 1-8-7.845c0-4.791 6.006-8.95 7.848-10.11A.288.288 0 0 1 11 2a.294.294 0 0 1 .153.045C12.994 3.205 19 7.364 19 12.155A7.84 7.84 0 0 1 11 20Z"/></symbol><symbol id="spectrum-icon-22-Bookmark" viewBox="0 0 22 22"><path d="M6.16 21.001a1.113 1.113 0 0 1-.442-.093A1.238 1.238 0 0 1 5 19.715l.007-15.716a3.004 3.004 0 0 1 3-2.999H14a3.003 3.003 0 0 1 3 3v15.714a1.17 1.17 0 0 1-2.07.836l-2.844-2.926a1.452 1.452 0 0 0-1.05-.446 1.454 1.454 0 0 0-1.049.443l-2.906 2.974a1.347 1.347 0 0 1-.92.406Zm10.205-1.844.001.001ZM8.007 3a1.001 1.001 0 0 0-1 1L7 17.816l1.556-1.592a3.437 3.437 0 0 1 2.478-1.046h.003a3.44 3.44 0 0 1 2.482 1.051L15 17.753V4a1 1 0 0 0-1-1Z"/></symbol><symbol id="spectrum-icon-22-Border" viewBox="0 0 22 22"><path d="M16 1H6a5.006 5.006 0 0 0-5 5v10a5.006 5.006 0 0 0 5 5h10a5.006 5.006 0 0 0 5-5V6a5.006 5.006 0 0 0-5-5Zm3 15a3.003 3.003 0 0 1-3 3H6a3.003 3.003 0 0 1-3-3V6a3.003 3.003 0 0 1 3-3h10a3.003 3.003 0 0 1 3 3Z"/></symbol><symbol id="spectrum-icon-22-Camera" viewBox="0 0 22 22"><path d="M16 20H6a5.006 5.006 0 0 1-5-5V8a5.006 5.006 0 0 1 5-5h.586l1.121-1.121A2.982 2.982 0 0 1 9.828 1h2.344a2.982 2.982 0 0 1 2.121.879L15.414 3H16a5.006 5.006 0 0 1 5 5v7a5.006 5.006 0 0 1-5 5ZM6 5a3.003 3.003 0 0 0-3 3v7a3.003 3.003 0 0 0 3 3h10a3.003 3.003 0 0 0 3-3V8a3.003 3.003 0 0 0-3-3h-1a1 1 0 0 1-.707-.293l-1.414-1.414A1.007 1.007 0 0 0 12.172 3H9.828a1.007 1.007 0 0 0-.707.293L7.707 4.707A1 1 0 0 1 7 5Z"/><path d="M11 16.5a5 5 0 1 1 5-5 5.006 5.006 0 0 1-5 5Zm0-8a3 3 0 1 0 3 3 3.003 3.003 0 0 0-3-3Z"/></symbol><symbol id="spectrum-icon-22-Cancel" viewBox="0 0 22 22"><path d="M11 0a10.963 10.963 0 0 0-7.749 3.202c-.009.008-.02.01-.03.02s-.01.02-.019.03A10.993 10.993 0 0 0 18.75 18.797c.009-.008.02-.01.03-.02s.01-.02.019-.03A10.993 10.993 0 0 0 11 0Zm0 20A8.989 8.989 0 0 1 3.975 5.39l12.636 12.635A8.95 8.95 0 0 1 11 20Zm7.025-3.39L5.389 3.976a8.989 8.989 0 0 1 12.636 12.636Z"/></symbol><symbol id="spectrum-icon-22-Checkmark" viewBox="0 0 22 22"><path d="m17.192 4.41-8.1 11.078-4.4-4.21a1 1 0 1 0-1.383 1.445l5.225 5a1 1 0 0 0 .692.277.844.844 0 0 0 .087-.004 1 1 0 0 0 .72-.406l8.775-12a1 1 0 0 0-1.616-1.18Z"/></symbol><symbol id="spectrum-icon-22-CheckmarkCircle" viewBox="0 0 22 22"><path d="M11 22a11 11 0 1 1 11-11 11.012 11.012 0 0 1-11 11Zm0-20a9 9 0 1 0 9 9 9.01 9.01 0 0 0-9-9Zm-.858 13.948a.998.998 0 0 0 .712-.395L16.8 7.648a1 1 0 1 0-1.598-1.2L9.927 13.46l-3.242-3.045a1 1 0 1 0-1.37 1.457l4.056 3.809a1.002 1.002 0 0 0 .685.271.843.843 0 0 0 .086-.004Z"/></symbol><symbol id="spectrum-icon-22-ChevronDown" viewBox="0 0 22 22"><path d="M15.293 7.793 11 12.086 6.707 7.793a1 1 0 0 0-1.414 1.414l5 5a1 1 0 0 0 1.414 0l5-5a1 1 0 0 0-1.414-1.414Z"/></symbol><symbol id="spectrum-icon-22-ChevronLeft" viewBox="0 0 22 22"><path d="M14.207 5.293a1 1 0 0 0-1.414 0l-5 5a1 1 0 0 0 0 1.414l5 5a1 1 0 0 0 1.414-1.414L9.914 11l4.293-4.293a1 1 0 0 0 0-1.414Z"/></symbol><symbol id="spectrum-icon-22-ChevronRight" viewBox="0 0 22 22"><path d="M9.207 5.293a1 1 0 0 0-1.414 1.414L12.086 11l-4.293 4.293a1 1 0 1 0 1.414 1.414l5-5a1 1 0 0 0 0-1.414Z"/></symbol><symbol id="spectrum-icon-22-ChevronUp" viewBox="0 0 22 22"><path d="M11.707 7.793a1 1 0 0 0-1.414 0l-5 5a1 1 0 0 0 1.414 1.414L11 9.914l4.293 4.293a1 1 0 0 0 1.414-1.414Z"/></symbol><symbol id="spectrum-icon-22-Clock" viewBox="0 0 22 22"><path d="M11 0a11 11 0 1 0 11 11A11.012 11.012 0 0 0 11 0Zm0 20a9 9 0 1 1 9-9 9.01 9.01 0 0 1-9 9Z"/><path d="M12 10.519V5a1 1 0 0 0-2 0v6c0 .019.01.035.01.053a1.89 1.89 0 0 0 .096.377 1.002 1.002 0 0 0 .101.15.975.975 0 0 0 .133.159c.014.013.02.03.035.042l5 4a1 1 0 1 0 1.25-1.562Z"/></symbol><symbol id="spectrum-icon-22-Delete" viewBox="0 0 22 22"><path d="M21 4h-6a4 4 0 0 0-8 0H1a1 1 0 0 0 0 2h2v10a5.006 5.006 0 0 0 5 5h6a5.006 5.006 0 0 0 5-5V6h2a1 1 0 0 0 0-2ZM11 2a2.003 2.003 0 0 1 2 2H9a2.003 2.003 0 0 1 2-2Zm6 14a3.003 3.003 0 0 1-3 3H8a3.003 3.003 0 0 1-3-3V6h12Z"/><path d="M9 9a1 1 0 0 0-1 1v5a1 1 0 0 0 2 0v-5a1 1 0 0 0-1-1Zm4 0a1 1 0 0 0-1 1v5a1 1 0 0 0 2 0v-5a1 1 0 0 0-1-1Z"/></symbol><symbol id="spectrum-icon-22-DeviceDesktop" viewBox="0 0 22 22"><path d="M17 0H5a5.006 5.006 0 0 0-5 5v6a5.006 5.006 0 0 0 5 5h5v3H8a1 1 0 0 0 0 2h6a1 1 0 0 0 0-2h-2v-3h5a5.006 5.006 0 0 0 5-5V5a5.006 5.006 0 0 0-5-5Zm3 11a3.003 3.003 0 0 1-3 3H5a3.003 3.003 0 0 1-3-3V5a3.003 3.003 0 0 1 3-3h12a3.003 3.003 0 0 1 3 3Z"/></symbol><symbol id="spectrum-icon-22-DeviceLaptop" viewBox="0 0 22 22"><path d="M21 13.442V6a5.006 5.006 0 0 0-5-5H6a5.006 5.006 0 0 0-5 5v7.442l-.654 2.49A3.572 3.572 0 0 0 3.59 21h14.822a3.572 3.572 0 0 0 3.243-5.068ZM3 6a3.003 3.003 0 0 1 3-3h10a3.003 3.003 0 0 1 3 3v7H3Zm16.748 12.255A1.542 1.542 0 0 1 18.41 19H3.589a1.571 1.571 0 0 1-1.405-2.274 1.014 1.014 0 0 0 .072-.194L2.66 15h16.68l.403 1.532a1.014 1.014 0 0 0 .072.194 1.543 1.543 0 0 1-.068 1.529Z"/><path d="M14 16H8a1 1 0 0 0 0 2h6a1 1 0 0 0 0-2Z"/></symbol><symbol id="spectrum-icon-22-DevicePhone" viewBox="0 0 22 22"><path d="M15 0H7a3.003 3.003 0 0 0-3 3v15a3.003 3.003 0 0 0 3 3h8a3.003 3.003 0 0 0 3-3V3a3.003 3.003 0 0 0-3-3Zm1 18a1.001 1.001 0 0 1-1 1H7a1.001 1.001 0 0 1-1-1V3a1.001 1.001 0 0 1 1-1h8a1.001 1.001 0 0 1 1 1Z"/><circle cx="11" cy="17" r="1"/><path d="M12 3h-2a1 1 0 0 0 0 2h2a1 1 0 0 0 0-2Z"/></symbol><symbol id="spectrum-icon-22-DeviceTablet" viewBox="0 0 22 22"><path d="M15 0H7a5.006 5.006 0 0 0-5 5v11a5.006 5.006 0 0 0 5 5h8a5.006 5.006 0 0 0 5-5V5a5.006 5.006 0 0 0-5-5Zm3 16a3.003 3.003 0 0 1-3 3H7a3.003 3.003 0 0 1-3-3V5a3.003 3.003 0 0 1 3-3h8a3.003 3.003 0 0 1 3 3Z"/><circle cx="11" cy="16.921" r="1"/><path d="M12 3h-2a1 1 0 0 0 0 2h2a1 1 0 0 0 0-2Z"/></symbol><symbol id="spectrum-icon-22-Discover" viewBox="0 0 22 22"><path d="M11 22a11 11 0 1 1 11-11 11.012 11.012 0 0 1-11 11Zm0-20a9 9 0 1 0 9 9 9.01 9.01 0 0 0-9-9Z"/><path d="M16.123 14.222 14.2 8.542a1.516 1.516 0 0 0-.964-.944L7.725 5.84A1.5 1.5 0 0 0 5.84 7.725l1.758 5.514a1.517 1.517 0 0 0 .948.963l5.674 1.921a1.521 1.521 0 0 0 .485.08 1.502 1.502 0 0 0 1.417-1.981Zm-6.832-1.79 3.142-3.141 1.608 4.75Z"/></symbol></svg>