<svg xmlns="http://www.w3.org/2000/svg" width="48" height="48" viewBox="0 0 48 48"><path d="M30.259 32.452A14.067 14.067 0 0 1 38.26 29.5c3.907 0 7.74 2.743 7.74 6.674V46h-2v-3.366a8.936 8.936 0 0 1-2 1.141V46h-6v-1.813a11.035 11.035 0 0 1-2-.706V46h-4v-5.213a32.608 32.608 0 0 1-2-1.908V46h-4V34.396q-1-1.155-2-2.25V46h-4V28.305a17.567 17.567 0 0 0-2-1.358V46h-4V25.44a10.756 10.756 0 0 0-1.895-.19c-.037 0-.068.007-.105.007V46H6V26.034c-.507.188-1.027.398-1.59.638l-.41.174V46H2V23.348c2.409-1.015 4.637-2.098 8.106-2.098 14.063 0 19.423 19.25 28.265 19.25 3.217 0 4.877-2.33 4.877-4.23 0-2.44-2.55-4.02-5-4.02a11.447 11.447 0 0 0-6.12 2.26Zm0 0q.945 1.081 1.87 2.058Zm-8.262-9.863q.799.613 1.554 1.275l3.328-3.329a1 1 0 0 0-1.414-1.414ZM28 28.38c.373.422.741.842 1.1 1.258.305-.209.6-.375.9-.557V21a1 1 0 0 0-2 0Zm-11.736-9.033A12.845 12.845 0 0 1 16.05 18H25a1 1 0 0 0 0-2h-8.95a12.93 12.93 0 0 1 3.084-7.452l6.33 6.33a1 1 0 0 0 1.415-1.414l-6.33-6.33A12.929 12.929 0 0 1 28 4.051V13a1 1 0 0 0 2 0V4.05a12.929 12.929 0 0 1 7.451 3.084l-6.33 6.33a1 1 0 0 0 1.414 1.415l6.33-6.33A12.93 12.93 0 0 1 41.95 16H33a1 1 0 0 0 0 2h8.95a12.929 12.929 0 0 1-3.084 7.451l-6.33-6.33a1 1 0 1 0-1.415 1.414l6.03 6.03c.464-.046.855-.065 1.109-.065a11.543 11.543 0 0 1 4.874 1.103 1.945 1.945 0 0 0-.895-3.555 14.908 14.908 0 0 0 1.711-6.058c.018 0 .032.01.05.01a2 2 0 0 0 0-4 1.89 1.89 0 0 0-.292.059 14.917 14.917 0 0 0-2.874-6.254 1.993 1.993 0 1 0-2.64-2.64 14.916 14.916 0 0 0-6.253-2.873A1.89 1.89 0 0 0 32 2a2 2 0 0 0-4 0c0 .018.01.032.01.05a14.906 14.906 0 0 0-8.205 3.116 1.993 1.993 0 1 0-2.639 2.64 14.905 14.905 0 0 0-3.116 8.204c-.018 0-.032-.01-.05-.01a2 2 0 0 0-2 1.997l.347.404a17.642 17.642 0 0 1 3.917.947Z"/><circle cx="29" cy="17" r="2"/></svg>