<svg xmlns="http://www.w3.org/2000/svg" height="48" viewBox="0 0 48 48" width="48"><path d="M17.2 28.815a5.935 5.935 0 0 1-3.149-.921.114.114 0 0 0-.178.088v2.171c0 .11.02.242.119.285a6.385 6.385 0 0 0 3.287.724c2.713 0 4.95-1.513 4.95-4.277a3.394 3.394 0 0 0-2.4-3.423 3.182 3.182 0 0 0 1.8-2.917c0-2.216-1.564-3.707-4.118-3.707a6.529 6.529 0 0 0-3.347.855c-.119.066-.1.11-.1.219v2.019c0 .087.02.131.139.087a5.222 5.222 0 0 1 2.851-.833c1.5 0 2.238.68 2.238 1.711 0 1.1-.832 1.623-2.278 1.623h-.99c-.1 0-.118.066-.118.2v2c0 .11.039.153.138.153H17.2c1.7 0 2.574.659 2.574 1.953.004 1.113-.729 1.99-2.574 1.99ZM28.854 31.162c3.685 0 5.023-3.509 5.023-7.195 0-3.334-1.009-7.129-5.045-7.129-3.291 0-5.112 3.049-5.112 7.129 0 4.015 1.514 7.195 5.134 7.195Zm-.067-12.087c1.624 0 2.457 1.536 2.457 4.87 0 3.2-.723 4.936-2.39 4.936s-2.479-1.865-2.479-4.98c0-3.356 1.008-4.826 2.412-4.826Z"/><path d="M21.087 43.787a.811.811 0 0 0 .913-.806v-2.274a1 1 0 0 0-.839-.974 15.984 15.984 0 0 1 0-31.466A1 1 0 0 0 22 7.293V5.019a.811.811 0 0 0-.913-.806 20 20 0 0 0 0 39.574ZM26.806 12a.785.785 0 0 0 .56-.236l2.595-2.595a15.98 15.98 0 0 1-3.122 30.564 1 1 0 0 0-.839.974v2.274a.811.811 0 0 0 .913.806 20 20 0 0 0 6.075-37.646l2.776-2.775a.785.785 0 0 0 .236-.56.8.8 0 0 0-.8-.806h-8.7a.5.5 0 0 0-.5.5v8.7a.8.8 0 0 0 .806.8Z"/></svg>