<svg xmlns="http://www.w3.org/2000/svg" height="48" viewBox="0 0 48 48" width="48"><path d="M36 24.1A11.9 11.9 0 1 0 47.9 36 11.9 11.9 0 0 0 36 24.1Zm8.132 17.2a.5.5 0 0 1 0 .707l-2.122 2.125a.5.5 0 0 1-.707 0l-5.3-5.3-5.3 5.3a.5.5 0 0 1-.707 0l-2.128-2.122a.5.5 0 0 1 0-.707l5.3-5.3-5.3-5.3a.5.5 0 0 1 0-.707l2.122-2.121a.5.5 0 0 1 .707 0l5.3 5.3 5.3-5.3a.5.5 0 0 1 .707 0l2.122 2.121a.5.5 0 0 1 0 .707l-5.3 5.3Z"/><path d="M20.3 36c0-4.157 1.449-7.322 4.265-10.735S39.621 6.388 39.621 6.388A1.464 1.464 0 0 0 38.486 4H1.529A1.464 1.464 0 0 0 .393 6.388l15.686 19.671v18.417a1.464 1.464 0 0 0 2.46 1.073l3.256-2.886A14.465 14.465 0 0 1 20.3 36Z"/></svg>