<svg xmlns="http://www.w3.org/2000/svg" height="48" viewBox="0 0 48 48" width="48"><path d="M36.1 24.084a11.9 11.9 0 1 0 11.9 11.9 11.9 11.9 0 0 0-11.9-11.9ZM36 44.736a8.752 8.752 0 1 1 8.752-8.752A8.752 8.752 0 0 1 36 44.736Z"/><path d="M37.526 35.979v-5.22a1.652 1.652 0 0 0-1.652-1.652 1.652 1.652 0 0 0-1.652 1.652V37.8l4.134 2.613a1.652 1.652 0 0 0 2.28-.513 1.652 1.652 0 0 0-.513-2.28ZM42.75 14.024a21.822 21.822 0 0 0-.827-1.357c-.05.026-.094.059-.145.083-1.666.778-1.9 1.007-2.666 0a2.1 2.1 0 0 1 .461-3.1 21.312 21.312 0 0 0-15.538-6.963c2.7.037 5.929 2.04 4.284 5.239.247-.508-5.37-1.72-6.133-1.72-1.03 0 2.1-3.852 1.813-3.519a21.438 21.438 0 0 0-8.819 1.9c1.457.942 3.081.613 4.724 1.019a4.01 4.01 0 0 1 1.465.6A4.926 4.926 0 0 0 19.9 5.6c-2.424-.281 1.173 6.37 1.037 5.485.664-3.056 4.816-4.235 6.088-.2a4.991 4.991 0 0 1-1.117 3.02 10.128 10.128 0 0 0-1.234 2.28l5.15 5.15a15.774 15.774 0 0 1 9.755-.823c-.01-.231-.021-.444-.027-.7a7.687 7.687 0 0 1 2.222-5.333 4.109 4.109 0 0 1 .976-.455ZM4.707 3.293 3.293 4.707a1 1 0 0 0 0 1.414l20.149 20.15a15.945 15.945 0 0 1 2.829-2.828L6.121 3.293a1 1 0 0 0-1.414 0ZM20.49 32.534a61.854 61.854 0 0 0-4.042-6.661c-2.765-4.115-5.278-1.571-6.921-7.514-.043-.154-.066-.3-.1-.447L5.318 13.8A21.3 21.3 0 0 0 2.667 24c0 12.149 10.591 19.39 18.071 20.976a9.239 9.239 0 0 0 1.394.221c.122-.311.211-.625.3-.938a15.725 15.725 0 0 1-1.942-11.725Z"/></svg>