<svg xmlns="http://www.w3.org/2000/svg" height="48" viewBox="0 0 48 48" width="48"><path d="M20.1 36.1a15.9 15.9 0 0 1 19.172-15.559L23.317 4.586A2 2 0 0 0 21.9 4H6a2 2 0 0 0-2 2v15.9a2 2 0 0 0 .586 1.414L20.4 39.128a15.954 15.954 0 0 1-.3-3.028ZM12 15.5a3.5 3.5 0 1 1 3.5-3.5 3.5 3.5 0 0 1-3.5 3.5Z"/><path d="M36 24.1A11.9 11.9 0 1 0 47.9 36 11.9 11.9 0 0 0 36 24.1ZM44.925 36a8.859 8.859 0 0 1-1.663 5.158l-12.42-12.42A8.9 8.9 0 0 1 44.925 36Zm-17.85 0a8.859 8.859 0 0 1 1.663-5.158l12.42 12.42A8.9 8.9 0 0 1 27.075 36Z"/></svg>