<svg xmlns="http://www.w3.org/2000/svg" height="48" viewBox="0 0 48 48" width="48"><path d="M37.7 37.118v-1.943a1.344 1.344 0 0 1 .342-.867 10.26 10.26 0 0 0 2.333-6.4c0-4.845-2.57-7.552-6.452-7.552s-6.523 2.812-6.523 7.55a10.37 10.37 0 0 0 2.445 6.4 1.345 1.345 0 0 1 .342.867v1.934a1.334 1.334 0 0 1-1.164 1.347c-7.804.68-9.023 6.016-9.023 8.12 0 .234.028 1.154.045 1.384H47.87s.024-1.15.024-1.384c0-2.017-1.378-7.333-9.037-8.111a1.34 1.34 0 0 1-1.157-1.345ZM21.921 36.461a12.282 12.282 0 0 1-1.121-.389c-.8.8-2.524 2.6-2.855 2.93A6.326 6.326 0 0 1 9 30.055l8.214-8.214a6.961 6.961 0 0 1 8.267-1.1 9.759 9.759 0 0 1 3.319-3.05 11.266 11.266 0 0 0-14.941.794L5.643 26.7a11.044 11.044 0 0 0 10.448 18.548 11.834 11.834 0 0 1 5.83-8.787Z"/><path d="M21.426 26.435a6.417 6.417 0 0 1-1.915-2.508 3.128 3.128 0 0 0-.659.491l-2.524 2.641a11.016 11.016 0 0 0 1.892 2.581 10.189 10.189 0 0 0 6.051 2.833 13.436 13.436 0 0 1-.876-4.566c0-.072.016-.137.017-.209a5.664 5.664 0 0 1-1.986-1.263ZM26.991 12c.8-.8 2.732-2.668 3.064-3a6.316 6.316 0 0 1 9.117 8.74 9.527 9.527 0 0 1 3.407 3.292A11.056 11.056 0 0 0 26.7 5.643c-.594.594-3.806 3.741-5.483 5.418a12.819 12.819 0 0 1 5.774.939Z"/></svg>