<svg xmlns="http://www.w3.org/2000/svg" height="48" viewBox="0 0 48 48" width="48"><path d="M36 4H12a2 2 0 0 0-2 2v36a2 2 0 0 0 2 2h24a2 2 0 0 0 2-2V6a2 2 0 0 0-2-2ZM22 15a1 1 0 0 1 1-1h2a1 1 0 0 1 1 1v8a1 1 0 0 1-1 1h-2a1 1 0 0 1-1-1Zm-8 4a1 1 0 0 1 1-1h2a1 1 0 0 1 1 1v4a1 1 0 0 1-1 1h-2a1 1 0 0 1-1-1Zm16 20a1 1 0 0 1-1 1H15a1 1 0 0 1-1-1v-2a1 1 0 0 1 1-1h14a1 1 0 0 1 1 1Zm4-8a1 1 0 0 1-1 1H15a1 1 0 0 1-1-1v-2a1 1 0 0 1 1-1h18a1 1 0 0 1 1 1Zm0-8a1 1 0 0 1-1 1h-2a1 1 0 0 1-1-1V9a1 1 0 0 1 1-1h2a1 1 0 0 1 1 1Z"/></svg>