<svg xmlns="http://www.w3.org/2000/svg" height="48" viewBox="0 0 48 48" width="48"><path d="M16.842 36.971A9.942 9.942 0 0 1 20 31.84V10h10v5a1 1 0 0 0 1 1h2a1 1 0 0 0 1-1V8a2 2 0 0 0-2-2H2a2 2 0 0 0-2 2v7a1 1 0 0 0 1 1h2a1 1 0 0 0 1-1v-5h10v28h-3a1 1 0 0 0-1 1v2a1 1 0 0 0 1 1h5.736a10.352 10.352 0 0 1 .106-5.029ZM35.561 24.17c-3.465.432-6.014 1.6-6.061 3.5-.026 1.056.566 1.511 1.6 2.126.9.54 1.922.814 1.205 2.711-.442 1.171-2.546.639-3.468.663-3.045.078-6.964-.032-8.333 4.833a7.12 7.12 0 0 0 3.89 8.175 16.913 16.913 0 0 0 12.13 1.038c7.277-2.221 12.575-8.914 11-15.142-1.595-6.307-7.986-8.4-11.963-7.904ZM27.3 44.021a2.987 2.987 0 0 1-3.684-2.116 3.046 3.046 0 0 1 2.084-3.743 2.987 2.987 0 0 1 3.684 2.116 3.046 3.046 0 0 1-2.084 3.743Zm11.449-16.58a1.967 1.967 0 0 1 2.425 1.393 2.006 2.006 0 0 1-1.368 2.466 1.967 1.967 0 0 1-2.425-1.393 2.006 2.006 0 0 1 1.371-2.466Zm-3.394 17.3a2.8 2.8 0 0 1-3.453-1.983 2.855 2.855 0 0 1 1.952-3.508 2.8 2.8 0 0 1 3.452 1.984 2.854 2.854 0 0 1-1.948 3.511Zm6.509-3.228a2.363 2.363 0 0 1-2.915-1.674 2.41 2.41 0 0 1 1.648-2.96 2.363 2.363 0 0 1 2.914 1.674 2.409 2.409 0 0 1-1.644 2.964Zm1.952-5.977a2.1 2.1 0 0 1-2.594-1.49 2.145 2.145 0 0 1 1.467-2.635 2.1 2.1 0 0 1 2.594 1.49 2.145 2.145 0 0 1-1.464 2.639Z"/></svg>