<svg xmlns="http://www.w3.org/2000/svg" height="48" viewBox="0 0 48 48" width="48"><path d="M19 20a1 1 0 0 1 1 1v6a1 1 0 0 1-1 1h-2a1 1 0 0 1-1-1v-3h-4v14h3a1 1 0 0 1 1 1v2a1 1 0 0 1-1 1H5a1 1 0 0 1-1-1v-2a1 1 0 0 1 1-1h3V24H4v2.973a1 1 0 0 1-1 1H1a1 1 0 0 1-1-1V21a1 1 0 0 1 1-1ZM28 22.082a15.773 15.773 0 0 1 6-2.042V10h10v5a1 1 0 0 0 1 1h2a1 1 0 0 0 1-1V8a2 2 0 0 0-2-2H16a2 2 0 0 0-2 2v7a1 1 0 0 0 1 1h2a1 1 0 0 0 1-1v-5h10ZM36 24.1A11.9 11.9 0 1 0 47.9 36 11.9 11.9 0 0 0 36 24.1Zm8 13.4a.5.5 0 0 1-.5.5H38v5.5a.5.5 0 0 1-.5.5h-3a.5.5 0 0 1-.5-.5V38h-5.5a.5.5 0 0 1-.5-.5v-3a.5.5 0 0 1 .5-.5H34v-5.5a.5.5 0 0 1 .5-.5h3a.5.5 0 0 1 .5.5V34h5.5a.5.5 0 0 1 .5.5Z"/></svg>