<svg xmlns="http://www.w3.org/2000/svg" height="48" viewBox="0 0 48 48" width="48"><path d="M42 4H6a2 2 0 0 0-2 2v36a2 2 0 0 0 2 2h36a2 2 0 0 0 2-2V6a2 2 0 0 0-2-2ZM10 41a1 1 0 0 1-1 1H7a1 1 0 0 1-1-1v-4a1 1 0 0 1 1-1h2a1 1 0 0 1 1 1Zm0-10a1 1 0 0 1-1 1H7a1 1 0 0 1-1-1v-4a1 1 0 0 1 1-1h2a1 1 0 0 1 1 1Zm0-10a1 1 0 0 1-1 1H7a1 1 0 0 1-1-1v-4a1 1 0 0 1 1-1h2a1 1 0 0 1 1 1Zm0-10a1 1 0 0 1-1 1H7a1 1 0 0 1-1-1V7a1 1 0 0 1 1-1h2a1 1 0 0 1 1 1Zm24 14a1 1 0 0 1-1 1H15a1 1 0 0 1-1-1v-2a1 1 0 0 1 1-1h18a1 1 0 0 1 1 1Zm8 16a1 1 0 0 1-1 1h-2a1 1 0 0 1-1-1v-4a1 1 0 0 1 1-1h2a1 1 0 0 1 1 1Zm0-10a1 1 0 0 1-1 1h-2a1 1 0 0 1-1-1v-4a1 1 0 0 1 1-1h2a1 1 0 0 1 1 1Zm0-10a1 1 0 0 1-1 1h-2a1 1 0 0 1-1-1v-4a1 1 0 0 1 1-1h2a1 1 0 0 1 1 1Zm0-10a1 1 0 0 1-1 1h-2a1 1 0 0 1-1-1V7a1 1 0 0 1 1-1h2a1 1 0 0 1 1 1Z"/></svg>