<svg xmlns="http://www.w3.org/2000/svg" width="18" height="18" viewBox="0 0 18 18"><path d="M12 8h-2V6a1 1 0 1 0-2 0v2H6a1 1 0 1 0 0 2h2v2a1 1 0 1 0 2 0v-2h2a1 1 0 1 0 0-2Z" fill="var(--iconFill, #464646)"/><path d="M15.786 3.085A8.944 8.944 0 0 0 9.617.019C7.214-.134 4.9.636 3.087 2.215a8.945 8.945 0 0 0-3.064 6.17 8.94 8.94 0 0 0 2.196 6.528A8.944 8.944 0 0 0 9.016 18a8.934 8.934 0 0 0 5.901-2.217c3.74-3.262 4.13-8.958.87-12.698Zm-2.183 11.19a6.945 6.945 0 0 1-5.079 1.707 6.947 6.947 0 0 1-4.797-2.384c-2.538-2.908-2.234-7.338.675-9.876A6.948 6.948 0 0 1 9.48 2.015 6.947 6.947 0 0 1 14.278 4.4a7.008 7.008 0 0 1-.675 9.876Z" fill="var(--iconFill, #464646)"/></svg>