<svg xmlns="http://www.w3.org/2000/svg" width="18" height="18" viewBox="0 0 18 18"><path d="M9 10.5a1 1 0 0 1-1-1V5a1 1 0 1 1 2 0v4.5a1 1 0 0 1-1 1Zm0 1.25A1.25 1.25 0 1 0 10.25 13 1.25 1.25 0 0 0 9 11.75Zm8.497 3.589a3.49 3.49 0 0 0 .079-3.474L12 1.815a3.385 3.385 0 0 0-5.994-.007L.416 11.88a3.485 3.485 0 0 0 .089 3.459A3.375 3.375 0 0 0 3.416 17h11.169a3.375 3.375 0 0 0 2.912-1.661ZM10.244 2.77l5.575 10.05a1.497 1.497 0 0 1-.037 1.489 1.374 1.374 0 0 1-1.197.69H3.416a1.374 1.374 0 0 1-1.197-.69 1.493 1.493 0 0 1-.046-1.474l5.593-10.08a1.386 1.386 0 0 1 2.478.015Z"/></svg>