<svg xmlns="http://www.w3.org/2000/svg" width="18" height="18" viewBox="0 0 18 18"><path d="M9 10.5a1 1 0 0 1-1-1V5a1 1 0 1 1 2 0v4.5a1 1 0 0 1-1 1Zm0 1.25a1.25 1.25 0 1 0 0 2.5 1.25 1.25 0 0 0 0-2.5Zm8.497 3.589a3.49 3.49 0 0 0 .079-3.474L12 1.815C11.394.68 10.273 0 9 0 7.732 0 6.613.676 6.007 1.808L.416 11.88a3.485 3.485 0 0 0 .089 3.459A3.375 3.375 0 0 0 3.416 17h11.169c1.199 0 2.288-.621 2.912-1.661ZM10.244 2.77l5.575 10.05c.253.473.238 1.03-.037 1.489-.264.438-.7.69-1.197.69H3.416c-.498 0-.933-.252-1.197-.69a1.493 1.493 0 0 1-.046-1.474l5.593-10.08C8.018 2.284 8.48 2 9.001 2s.982.283 1.243.771Z" fill="var(--iconFill, #464646)"/></svg>