<svg xmlns="http://www.w3.org/2000/svg" width="18" height="18" viewBox="0 0 18 18"><path d="m5.326 7.042.4.547A.998.998 0 1 0 7.34 6.41l-.463-.635a.977.977 0 0 0-.102-.119c-.875-.873-2.3-.876-3.166-.01L2 7.204V5c0-1.654 1.346-3 3-3h6c1.654 0 3 1.346 3 3a1 1 0 1 0 2 0c0-2.757-2.243-5-5-5H5C2.243 0 0 2.243 0 5v4c0 2.757 2.243 5 5 5a1 1 0 1 0 0-2c-1.356 0-2.49-.91-2.861-2.146l2.873-2.78a.25.25 0 0 1 .314-.032Z" fill="var(--iconFill, #464646)"/><circle cx="11.5" cy="4.5" r="1.5" fill="var(--iconFill, #464646)"/><path d="M14 7h-3c-2.206 0-4 1.794-4 4v3c0 2.206 1.794 4 4 4h3c2.206 0 4-1.794 4-4v-3c0-2.206-1.794-4-4-4Zm2 7c0 1.103-.897 2-2 2h-3c-1.103 0-2-.897-2-2v-3c0-1.103.897-2 2-2h3c1.103 0 2 .897 2 2v3Z" fill="var(--iconFill, #464646)"/><path d="M11.733 10.584c-.319-.227-.733.034-.733.463v2.906c0 .429.414.69.733.463l2.351-1.453c.3-.214.3-.712 0-.926l-2.35-1.453Z" fill="var(--iconFill, #464646)"/></svg>