<svg xmlns="http://www.w3.org/2000/svg" width="18" height="18" viewBox="0 0 18 18"><path d="m5.326 7.042.4.547A1 1 0 0 0 7.34 6.41l-.463-.635a.977.977 0 0 0-.102-.119 2.248 2.248 0 0 0-3.166-.01L2 7.204V5a3.003 3.003 0 0 1 3-3h6a3.003 3.003 0 0 1 3 3 1 1 0 0 0 2 0 5.006 5.006 0 0 0-5-5H5a5.006 5.006 0 0 0-5 5v4a5.006 5.006 0 0 0 5 5 1 1 0 0 0 0-2 2.995 2.995 0 0 1-2.861-2.146l2.873-2.78a.25.25 0 0 1 .314-.032Z"/><circle cx="11.5" cy="4.5" r="1.5"/><path d="M14 7h-3a4.004 4.004 0 0 0-4 4v3a4.004 4.004 0 0 0 4 4h3a4.004 4.004 0 0 0 4-4v-3a4.004 4.004 0 0 0-4-4Zm2 7a2.003 2.003 0 0 1-2 2h-3a2.003 2.003 0 0 1-2-2v-3a2.003 2.003 0 0 1 2-2h3a2.003 2.003 0 0 1 2 2Z"/><path d="M11.733 10.584a.48.48 0 0 0-.733.463v2.906a.48.48 0 0 0 .733.463l2.351-1.453a.588.588 0 0 0 0-.926Z"/></svg>