<svg xmlns="http://www.w3.org/2000/svg" width="18" height="18" viewBox="0 0 18 18"><path d="M16.504 10.11C15.573 8.98 15.1 7.95 15.1 7.047c0-2.566-1.164-4.321-3.466-5.22C11.187.725 10.154 0 9 0 7.845 0 6.812.726 6.368 1.827c-2.3.898-3.466 2.653-3.466 5.22 0 .903-.474 1.933-1.406 3.061a2.95 2.95 0 0 0-.395 3.163A2.981 2.981 0 0 0 3.821 15H6v.4C6 16.834 7.346 18 9 18s3-1.166 3-2.6V15h2.179a2.982 2.982 0 0 0 2.72-1.728 2.95 2.95 0 0 0-.395-3.163ZM10 15.4c0 .284-.428.6-1 .6s-1-.316-1-.6V15h2v.4Zm5.09-2.98a.996.996 0 0 1-.911.58H3.82a.995.995 0 0 1-.91-.581.948.948 0 0 1 .127-1.036C4.29 9.865 4.9 8.447 4.902 7.048 4.902 4.8 6.06 4.07 7.19 3.653c.474-.173.86-.558 1.005-1.007C8.301 2.326 8.59 2 9 2s.7.326.808.652c.147.446.532.83 1 1 1.133.418 2.292 1.15 2.292 3.396 0 1.4.61 2.82 1.863 4.335a.95.95 0 0 1 .126 1.037Z" fill="var(--iconFill, #464646)"/></svg>