<svg xmlns="http://www.w3.org/2000/svg" width="18" height="18" viewBox="0 0 18 18"><path d="M18 1.688c-.003-.593-.215-.95-.503-1.236-.318-.314-.736-.464-1.203-.451-1.91.076-4.964 3.459-9.405 8.61 0 0-.615.744-.64.785-.95-.004-1.846.31-2.48.92-.755.727-1.33 1.692-1.73 2.935-.25.988-.394 1.44-1.221 1.767A1.293 1.293 0 0 0 0 16.232c.001.11.001.22.033.328.134.523.547.93 1.088 1.064a14.107 14.107 0 0 0 3.2.376c1.446 0 3.145-.25 4.516-1.16.691-.46 1.867-1.475 1.973-3.104a3.372 3.372 0 0 0-.029-.636C16.573 6.127 18.008 3.17 18 1.688ZM7.729 15.174c-1.431.952-3.572.881-4.748.746.62-.686.824-1.495.98-2.117.277-.862.68-1.55 1.194-2.045.32-.31.866-.442 1.417-.352 1.136.188 2.316 1.082 2.242 2.2-.05.77-.702 1.313-1.085 1.568ZM8.39 9.93c1.984-2.302 5.884-6.824 7.538-7.76-.256.863-1.387 3.188-6.07 8.905A4.766 4.766 0 0 0 8.39 9.93Z" fill="var(--iconFill, #464646)"/></svg>