<svg xmlns="http://www.w3.org/2000/svg" width="18" height="18" viewBox="0 0 18 18"><path d="M16.023 11a1 1 0 1 0 0-2h-1.305c.002-.079.01-.156.01-.235a8.41 8.41 0 0 0-.141-1.517 9.652 9.652 0 0 0 1.624-1.182 1.001 1.001 0 0 0-1.346-1.48c-.28.255-.59.483-.911.696-.991-2.078-2.836-3.48-4.954-3.48-2.12 0-3.967 1.405-4.958 3.487a7.572 7.572 0 0 1-.922-.703 1.001 1.001 0 0 0-1.346 1.48 9.65 9.65 0 0 0 1.638 1.189c-.089.487-.14.99-.14 1.51 0 .08.008.156.01.235H1.977a1 1 0 1 0 0 2H3.58c.167.597.394 1.16.68 1.673-1.12.645-2.044 1.513-2.666 2.532A1 1 0 0 0 3.3 16.248c.47-.772 1.19-1.436 2.08-1.921.038-.021.062-.056.096-.08.972.924 2.193 1.48 3.523 1.48 1.327 0 2.545-.554 3.516-1.475.032.023.053.056.088.075.89.485 1.61 1.15 2.08 1.92a1 1 0 1 0 1.708-1.042c-.62-1.016-1.541-1.881-2.656-2.526.288-.514.517-1.08.684-1.68h1.603ZM9 3.803c1.316 0 2.489.971 3.154 2.386a9.36 9.36 0 0 1-3.162.548 9.356 9.356 0 0 1-3.147-.544C6.509 4.776 7.683 3.803 9 3.803ZM5.28 8.765c0-.22.029-.431.051-.644.853.292 1.75.49 2.669.571v4.818c-1.546-.604-2.72-2.521-2.72-4.745ZM10 13.517V8.693a11.311 11.311 0 0 0 2.684-.577c.023.215.051.427.051.649 0 2.231-1.181 4.154-2.735 4.752Z" fill="var(--iconFill, #464646)"/></svg>