<svg xmlns="http://www.w3.org/2000/svg" width="18" height="18" viewBox="0 0 18 18"><path d="M13 4H5C2.243 4 0 6.243 0 9s2.243 5 5 5h3v2.553c0 .623.39 1.175.972 1.372a1.394 1.394 0 0 0 1.57-.484l1.462-1.914 2.361.36a1.398 1.398 0 0 0 1.462-.739 1.462 1.462 0 0 0-.209-1.674l-.13-.143A5.019 5.019 0 0 0 18 9c0-2.757-2.243-5-5-5Zm-.806 9.533a1.816 1.816 0 0 0-1.72.702l-.474.621v-4.588l3.094 3.403-.9-.138Zm1.895-1.74-2.914-3.205a1.803 1.803 0 0 0-1.99-.463A1.877 1.877 0 0 0 8 9.892V12H5c-1.654 0-3-1.346-3-3s1.346-3 3-3h8c1.654 0 3 1.346 3 3a3.01 3.01 0 0 1-1.91 2.792Z" fill="var(--iconFill, #464646)"/></svg>