<svg xmlns="http://www.w3.org/2000/svg" width="18" height="18" viewBox="0 0 18 18"><path d="M13 1a1 1 0 1 0-2 0H7a1 1 0 1 0-2 0C2.243 1 0 3.243 0 6v6c0 2.757 2.243 5 5 5h8c2.757 0 5-2.243 5-5V6c0-2.757-2.243-5-5-5Zm3 11c0 1.654-1.346 3-3 3H5c-1.654 0-3-1.346-3-3V8h14v4ZM2 6c0-1.654 1.346-3 3-3a1 1 0 1 0 2 0h4a1 1 0 1 0 2 0c1.654 0 3 1.346 3 3H2Z" fill="var(--iconFill, #464646)"/><rect x="4" y="9" width="2" height="2" rx=".667" ry=".667" fill="var(--iconFill, #464646)"/><rect x="8" y="9" width="2" height="2" rx=".667" ry=".667" fill="var(--iconFill, #464646)"/><rect x="12" y="9" width="2" height="2" rx=".667" ry=".667" fill="var(--iconFill, #464646)"/><rect x="4" y="12" width="2" height="2" rx=".667" ry=".667" fill="var(--iconFill, #464646)"/><rect x="8" y="12" width="2" height="2" rx=".667" ry=".667" fill="var(--iconFill, #464646)"/><rect x="12" y="12" width="2" height="2" rx=".667" ry=".667" fill="var(--iconFill, #464646)"/></svg>