<svg xmlns="http://www.w3.org/2000/svg" width="18" height="18" viewBox="0 0 18 18"><path d="M13 17H5c-2.757 0-5-2.243-5-5V7a5.006 5.006 0 0 1 4.567-4.981L6 .586A2.014 2.014 0 0 1 7.414 0h3.172c.526 0 1.042.214 1.414.586l1.433 1.433A5.006 5.006 0 0 1 18 7v5c0 2.757-2.243 5-5 5ZM7.414 2 5.707 3.707A1 1 0 0 1 5 4C3.346 4 2 5.346 2 7v5c0 1.654 1.346 3 3 3h8c1.654 0 3-1.346 3-3V7c0-1.654-1.346-3-3-3a1 1 0 0 1-.707-.293L10.586 2H7.414Z" fill="var(--iconFill, #464646)"/><path d="M9 13.5c-2.344 0-4.25-1.906-4.25-4.25S6.656 5 9 5s4.25 1.906 4.25 4.25S11.344 13.5 9 13.5ZM9 7C7.76 7 6.75 8.01 6.75 9.25S7.76 11.5 9 11.5s2.25-1.01 2.25-2.25S10.24 7 9 7Z" fill="var(--iconFill, #464646)"/></svg>