<svg xmlns="http://www.w3.org/2000/svg" width="18" height="18" viewBox="0 0 18 18"><path d="M13 17H5a5.006 5.006 0 0 1-5-5V7a5.006 5.006 0 0 1 4.567-4.981L6 .586A2.014 2.014 0 0 1 7.414 0h3.172A2.014 2.014 0 0 1 12 .586l1.433 1.433A5.006 5.006 0 0 1 18 7v5a5.006 5.006 0 0 1-5 5ZM7.414 2 5.707 3.707A1 1 0 0 1 5 4a3.003 3.003 0 0 0-3 3v5a3.003 3.003 0 0 0 3 3h8a3.003 3.003 0 0 0 3-3V7a3.003 3.003 0 0 0-3-3 1 1 0 0 1-.707-.293L10.586 2Z"/><path d="M13 17H5a5.006 5.006 0 0 1-5-5V7a5.006 5.006 0 0 1 4.567-4.981L6 .586A2.014 2.014 0 0 1 7.414 0h3.172A2.014 2.014 0 0 1 12 .586l1.433 1.433A5.006 5.006 0 0 1 18 7v5a5.006 5.006 0 0 1-5 5ZM7.414 2 5.707 3.707A1 1 0 0 1 5 4a3.003 3.003 0 0 0-3 3v5a3.003 3.003 0 0 0 3 3h8a3.003 3.003 0 0 0 3-3V7a3.003 3.003 0 0 0-3-3 1 1 0 0 1-.707-.293L10.586 2Z"/><path d="M9 13.5a4.25 4.25 0 1 1 4.25-4.25A4.254 4.254 0 0 1 9 13.5ZM9 7a2.25 2.25 0 1 0 2.25 2.25A2.253 2.253 0 0 0 9 7Z"/></svg>