<svg xmlns="http://www.w3.org/2000/svg" width="18" height="18" viewBox="0 0 18 18"><path d="M9.014 18a8.944 8.944 0 0 1-6.797-3.087A8.94 8.94 0 0 1 .02 8.386c.165-2.398 1.253-4.59 3.065-6.17S7.215-.137 9.616.02a8.944 8.944 0 0 1 6.168 3.066c3.26 3.74 2.871 9.436-.869 12.698A8.934 8.934 0 0 1 9.014 18ZM8.99 2c-1.69 0-3.303.603-4.59 1.724a7.008 7.008 0 0 0-.675 9.876 6.95 6.95 0 0 0 4.797 2.384 6.932 6.932 0 0 0 5.079-1.707 7.008 7.008 0 0 0 .675-9.876A6.947 6.947 0 0 0 9.48 2.016 6.817 6.817 0 0 0 8.99 2Zm-.83 11.26a1 1 0 0 0 .713-.395l4.924-6.546a1 1 0 1 0-1.598-1.203L7.945 10.77 5.4 8.38A1.001 1.001 0 0 0 4.03 9.838l3.36 3.154a1.001 1.001 0 0 0 .77.267Z" fill="var(--iconFill, #464646)"/></svg>