<svg xmlns="http://www.w3.org/2000/svg" width="18" height="18" viewBox="0 0 18 18"><path d="M9 0C4.037 0 0 4.037 0 9s4.037 9 9 9 9-4.037 9-9-4.037-9-9-9Zm0 16c-3.86 0-7-3.14-7-7s3.14-7 7-7 7 3.14 7 7-3.14 7-7 7Z" fill="var(--iconFill, #464646)"/><path d="M10.009 8.496V4A1.01 1.01 0 0 0 7.99 4v5c0 .025.013.046.014.07.005.07.022.133.04.2.018.061.034.12.062.177.028.055.066.103.104.154a.997.997 0 0 0 .137.153c.018.016.027.038.047.053l4 3a1.009 1.009 0 1 0 1.21-1.614L10.01 8.496Z" fill="var(--iconFill, #464646)"/></svg>