<svg xmlns="http://www.w3.org/2000/svg" width="18" height="18" viewBox="0 0 18 18"><path d="M9 18a8.977 8.977 0 0 1-6.367-2.632c-3.511-3.511-3.51-9.224 0-12.736 3.511-3.51 9.223-3.51 12.734 0 3.51 3.512 3.51 9.224 0 12.736A8.979 8.979 0 0 1 9 18Zm-4.952-4.047c2.73 2.73 7.173 2.73 9.904 0 2.73-2.731 2.73-7.175 0-9.906-2.73-2.73-7.173-2.73-9.904 0-2.73 2.731-2.731 7.176 0 9.906ZM10.414 9l1.793-1.793a1 1 0 1 0-1.414-1.414L9 7.586 7.207 5.793a1 1 0 1 0-1.414 1.414L7.586 9l-1.793 1.793a1 1 0 1 0 1.414 1.414L9 10.414l1.793 1.793a.997.997 0 0 0 1.414 0 1 1 0 0 0 0-1.414L10.414 9Z" fill="var(--iconFill, #464646)"/></svg>