<svg xmlns="http://www.w3.org/2000/svg" width="18" height="18" viewBox="0 0 18 18"><path d="M15.068 6.294c.013-1.148-.459-2.258-1.367-3.213-.842-.89-2.291-1.412-3.556-1.349-1.916.096-3.499 1.116-4.242 2.761-.1-.007-.227.017-.294-.01a3.859 3.859 0 0 0-3.028 1.489 3.976 3.976 0 0 0-.823 2.713C.705 9.153 0 10.27 0 11.639 0 13.524 1.205 14.906 2.984 15h11.022C16.357 14.964 18 13.2 18 10.712c0-2.258-1.2-4.013-2.932-4.418ZM13.99 13H3.038C2.075 12.95 2 11.945 2 11.64c0-.69.377-1.193.897-1.193H4.22l-.36-1.272c-.272-.962.013-1.606.301-1.976.345-.444.864-.716 1.387-.716.25.008.494.03.734.103l1.013.303.246-1.028c.31-1.29 1.306-2.087 2.698-2.13.71-.042 1.574.266 2.012.728.567.597.83 1.228.815 1.918a6.556 6.556 0 0 1-.067.697l-.165 1.238 1.245-.107c.059-.005.152-.002.277.003.968.041 1.644 1.071 1.644 2.505 0 1.413-.757 2.269-2.01 2.288Z" fill="var(--iconFill, #464646)"/></svg>