<svg xmlns="http://www.w3.org/2000/svg" width="18" height="18" viewBox="0 0 18 18"><path d="M15.66 11.18a1.287 1.287 0 0 0-1.313-.004c-.681.393-2.347 2.509-2.347 4.02C12 16.767 13.317 18 15 18s3-1.232 3-2.805c0-1.51-1.666-3.626-2.34-4.015ZM15 16c-.57 0-1-.346-1-.805 0-.445.563-1.37.998-1.915.442.55 1.002 1.471 1.002 1.915 0 .46-.43.805-1 .805ZM15.019 9.173a1 1 0 1 0 1.414-1.414L9.186.51A1.739 1.739 0 0 0 8.004 0 1.742 1.742 0 0 0 6.71.51L4.816 2.405l-1.11-1.111a1 1 0 1 0-1.414 1.414l1.11 1.11L.877 6.345A2.992 2.992 0 0 0 .001 8.53a2.99 2.99 0 0 0 .876 2.057l3.536 3.535A2.992 2.992 0 0 0 6.535 15c.767 0 1.536-.293 2.12-.878l5.657-5.656.707.707Zm-7.777 3.535a1 1 0 0 1-1.415 0L2.292 9.173a1.003 1.003 0 0 1 0-1.415l2.524-2.525 1.476 1.475a.997.997 0 0 0 1.414 0 1 1 0 0 0 0-1.414L6.23 3.819 7.948 2.1l4.95 4.95-5.656 5.657Z" fill="var(--iconFill, #464646)"/></svg>