<svg xmlns="http://www.w3.org/2000/svg" width="18" height="18" viewBox="0 0 18 18"><circle cx="9.5" cy="4.5" r="1.5" fill="var(--iconFill, #464646)"/><circle cx="5.5" cy="6.5" r="1.5" fill="var(--iconFill, #464646)"/><circle cx="5.5" cy="11.5" r="1.5" fill="var(--iconFill, #464646)"/><circle cx="9.5" cy="13.5" r="1.5" fill="var(--iconFill, #464646)"/><path d="M15.577 9.826c1.1-1.017 1.706-2.383 1.706-3.843 0-3.6-3.63-5.983-7.471-5.983C4.878 0 0 3.766 0 9.098 0 15.382 5.784 17.972 9.645 18c2.753 0 7.278-1.546 7.316-4.116.01-.675-.25-1.336-.692-1.77-.48-.464-1.08-.57-1.508-.645-.262-.045-.266-.05-.389-.164-.068-.064-.107-.13-.107-.18s.039-.116.107-.18l1.205-1.119Zm-2.57 2.942c.42.392.777.561 1.436.675.137.025.363.065.434.108.034.04.086.159.084.304-.002.101-.029.186-.077.23C13.577 15.302 11.667 16 9.584 16 6.645 15.978 2 13.984 2 9.098 2 4.216 6.836 2 9.812 2c1.88 0 5.47 1.077 5.47 3.983 0 .897-.377 1.74-1.065 2.376L13.01 9.48c-.481.447-.746 1.03-.746 1.645s.265 1.198.743 1.643Z" fill="var(--iconFill, #464646)"/></svg>