<svg xmlns="http://www.w3.org/2000/svg" width="18" height="18" viewBox="0 0 18 18"><path d="M18.003 9.003v4c0 2.757-2.243 5-5 5h-2a1 1 0 1 1 0-2h2c1.654 0 3-1.346 3-3v-4A3.005 3.005 0 0 0 13 6H9.003c-1.066 0-2.06.573-2.598 1.496a1 1 0 0 1-1.728-1.006 5.022 5.022 0 0 1 4.326-2.49h2.814A2.997 2.997 0 0 0 9 2H5C3.346 2 2 3.346 2 5v1a1 1 0 1 1-2 0V5c0-2.757 2.243-5 5-5h4c2.447 0 4.48 1.769 4.91 4.093 2.324.43 4.093 2.463 4.093 4.91Zm-11.3 1.286a1 1 0 1 0-1.406 1.422L6.6 12.999l-1.761-.001C3.247 12.936 2 11.618 2 10a1 1 0 1 0-2 0c0 2.697 2.092 4.892 4.763 4.996L6.572 15l-1.283 1.298a1 1 0 1 0 1.422 1.406l3-3.034a.998.998 0 0 0-.008-1.414l-3-2.966Z" fill="var(--iconFill, #464646)"/></svg>