<svg xmlns="http://www.w3.org/2000/svg" width="18" height="18" viewBox="0 0 18 18"><path d="M17 10.87V6c0-2.757-2.243-5-5-5H6C3.243 1 1 3.243 1 6v4.87l-.496 1.89a2.98 2.98 0 0 0 .18 2.817A2.982 2.982 0 0 0 3.236 17h11.528a2.982 2.982 0 0 0 2.552-1.423 2.98 2.98 0 0 0 .18-2.816L17 10.87ZM3 6c0-1.654 1.346-3 3-3h6c1.654 0 3 1.346 3 3v4H3V6Zm12.615 8.525a.987.987 0 0 1-.85.475H3.234a.987.987 0 0 1-.85-.475.986.986 0 0 1-.043-.972c.03-.062.055-.127.073-.194L2.77 12H7a1 1 0 1 0 0 2h4a1 1 0 1 0 0-2h4.229l.356 1.36c.018.066.042.131.073.193.225.45.045.83-.043.972Z" fill="var(--iconFill, #464646)"/></svg>