<svg xmlns="http://www.w3.org/2000/svg" width="18" height="18" viewBox="0 0 18 18"><path d="M9 17.995a8.975 8.975 0 0 1-6.364-2.63c-3.51-3.51-3.51-9.22 0-12.73 3.51-3.507 9.218-3.507 12.728 0 3.509 3.51 3.509 9.22 0 12.73A8.975 8.975 0 0 1 9 17.994ZM4.05 13.95a7.01 7.01 0 0 0 9.9 0 7.01 7.01 0 0 0 0-9.9c-2.728-2.729-7.17-2.729-9.9 0a7.01 7.01 0 0 0 0 9.9Z" fill="var(--iconFill, #464646)"/><path d="m13.197 11.93-1.68-4.963a1 1 0 0 0-.644-.633l-4.82-1.537a1 1 0 0 0-1.256 1.257l1.537 4.819a1 1 0 0 0 .633.644l4.963 1.68a1 1 0 0 0 1.267-1.267Zm-5.28-1.992 2.021-2.02 1.034 3.054-3.054-1.034Z" fill="var(--iconFill, #464646)"/></svg>