<svg xmlns="http://www.w3.org/2000/svg" width="18" height="18" viewBox="0 0 18 18"><path d="M13.873 0a4.113 4.113 0 0 0-2.919 1.206l-9.36 9.367a2.011 2.011 0 0 0-.586 1.41L1 15.99a1 1 0 0 0 .998 1.002L6.013 17a2.01 2.01 0 0 0 1.42-.586l9.384-9.385A4.122 4.122 0 0 0 18 4.129 4.121 4.121 0 0 0 13.873 0Zm0 1.999c.586 0 2.128.458 2.128 2.125a2.15 2.15 0 0 1-.622 1.513l-.098.098-3.012-3.014.1-.1c.414-.414.96-.622 1.505-.622Zm-9.19 8.312 6.172-6.175 3.012 3.014-6.175 6.176a4.996 4.996 0 0 0-3.008-3.015ZM3 12a3.01 3.01 0 0 1 3 3H3v-3Z" fill="var(--iconFill, #464646)"/></svg>