<svg xmlns="http://www.w3.org/2000/svg" width="18" height="18" viewBox="0 0 18 18"><path d="M13 0H5C2.243 0 0 2.243 0 5v6c0 2.757 2.243 5 5 5h8c2.757 0 5-2.243 5-5V5c0-2.757-2.243-5-5-5Zm-.258 7.672 3.204-3.204c.032.173.054.35.054.532v5.929l-3.258-3.257ZM13 2c.722 0 1.375.267 1.894.692L9.707 7.88a1 1 0 0 1-1.414 0L3.106 2.692A2.972 2.972 0 0 1 5 2h8ZM2 5c0-.182.023-.359.054-.532l3.204 3.204L2 10.93V5Zm11 9H5c-.889 0-1.68-.396-2.23-1.012l3.902-3.902.207.207c.585.585 1.352.877 2.121.877s1.536-.292 2.121-.877l.207-.207 3.902 3.901A2.982 2.982 0 0 1 13 14Z" fill="var(--iconFill, #464646)"/></svg>