<svg xmlns="http://www.w3.org/2000/svg" width="18" height="18" viewBox="0 0 18 18"><path d="M17 15H9.997l5.63-5.63a2.98 2.98 0 0 0 .878-2.121c0-.8-.312-1.555-.878-2.121L11.991 1.49c-1.134-1.133-3.11-1.133-4.243 0l-6.87 6.87A2.98 2.98 0 0 0 0 10.48c0 .802.312 1.556.879 2.122l4.104 4.104A1 1 0 0 0 5.69 17H17a1 1 0 1 0 0-2ZM9.162 2.905a1.024 1.024 0 0 1 1.414 0l3.636 3.637c.19.188.293.44.293.707a.991.991 0 0 1-.292.707l-3.536 3.536-5.051-5.05 3.536-3.537ZM7.169 15H6.104l-3.812-3.812a.995.995 0 0 1 0-1.413l1.92-1.92 5.05 5.052L7.17 15Z" fill="var(--iconFill, #464646)"/></svg>