<svg xmlns="http://www.w3.org/2000/svg" width="18" height="18" viewBox="0 0 18 18"><path d="M15.83 2.482a11.453 11.453 0 0 0-4.428-.238.347.347 0 0 1-.402-.343A1.599 1.599 0 0 0 9.795.344a9.92 9.92 0 0 0-2.81-.335 9.856 9.856 0 0 0-4.01.872A.988.988 0 0 0 2 .01a1 1 0 0 0-1 .998V17a1 1 0 0 0 2 0v-6.4a9.89 9.89 0 0 1 3.452-1.181A.498.498 0 0 1 7 9.92v1.074c-.002.431.166.846.469 1.154a1.47 1.47 0 0 0 1.716.298 8.915 8.915 0 0 1 5.912-.707c.394.102.813.039 1.16-.174.46-.282.74-.782.743-1.321v-6.23a1.572 1.572 0 0 0-1.17-1.532Zm-.83 7.2a10.987 10.987 0 0 0-6 .656V9.01a1.635 1.635 0 0 0-1.592-1.648A10.83 10.83 0 0 0 3 8.35V3.085a8.224 8.224 0 0 1 3.987-1.077c.685.003 1.355.072 2.013.206v.554c0 .105.009.21.03.314.078.427.327.804.688 1.046.36.241.803.325 1.226.233A9.306 9.306 0 0 1 15 4.34v5.342Z" fill="var(--iconFill, #464646)"/></svg>