<svg xmlns="http://www.w3.org/2000/svg" width="18" height="18" viewBox="0 0 18 18"><path d="m16.714 9.71.12-.15c.04-.06.07-.12.09-.18.101-.24.101-.52 0-.76-.05-.13-.12-.23-.21-.33a1.05 1.05 0 0 0-.712-.29c-.13 0-.26.02-.38.08-.13.05-.23.12-.331.21-.09.1-.17.21-.22.33S15 8.87 15 9c0 .27.1.52.29.71.102.09.201.16.332.21.12.05.25.08.38.08s.262-.03.381-.08c.12-.05.231-.12.33-.21Z" fill="var(--iconFill, #464646)"/><circle cx="5.5" cy="9" r="1" fill="var(--iconFill, #464646)"/><circle cx="12.5" cy="9" r="1" fill="var(--iconFill, #464646)"/><circle cx="9" cy="9" r="1" fill="var(--iconFill, #464646)"/><path d="M2.929 9.38c.149-.37.059-.81-.22-1.09-.19-.18-.44-.29-.71-.29-.26 0-.51.1-.7.29A1 1 0 0 0 1 9c0 .27.11.52.3.71.18.19.43.29.699.29.27 0 .52-.11.71-.29.089-.1.169-.2.22-.33ZM3 2.038c0-.216.034-.434.103-.649A1.976 1.976 0 0 1 5.005 0h7.99c.88 0 1.627.546 1.902 1.39a2.07 2.07 0 0 1-.744 2.317l-3.969 2.904a1.997 1.997 0 0 1-2.369 0L3.848 3.706A2.065 2.065 0 0 1 3 2.037Zm9.995-.049-7.99.01c-.008 0 3.99 2.997 3.99 2.997l4-3.007ZM15 15.962c0 .216-.034.434-.103.649A1.976 1.976 0 0 1 12.995 18h-7.99c-.88 0-1.627-.546-1.902-1.39a2.07 2.07 0 0 1 .744-2.317l3.969-2.904a1.997 1.997 0 0 1 2.369 0l3.967 2.904c.544.397.848 1.02.848 1.67Z" fill="var(--iconFill, #464646)"/></svg>