<svg xmlns="http://www.w3.org/2000/svg" width="18" height="18" viewBox="0 0 18 18"><path d="m9.71 1.286-.15-.12a.735.735 0 0 0-.18-.09c-.24-.101-.52-.101-.76 0-.13.05-.23.12-.33.21-.18.19-.29.45-.29.712 0 .13.02.26.08.38.05.13.12.23.21.331.1.09.21.17.33.22S8.87 3 9 3c.27 0 .52-.1.71-.29.09-.102.16-.201.21-.332.05-.12.08-.25.08-.38s-.03-.262-.08-.381a1.15 1.15 0 0 0-.21-.33Z" fill="var(--iconFill, #464646)"/><circle cx="9" cy="12.5" r="1" fill="var(--iconFill, #464646)"/><circle cx="9" cy="5.5" r="1" fill="var(--iconFill, #464646)"/><circle cx="9" cy="9" r="1" fill="var(--iconFill, #464646)"/><path d="M9.38 15.071c-.37-.149-.81-.059-1.09.22-.18.19-.29.44-.29.71 0 .26.1.51.29.7A1 1 0 0 0 9 17c.27 0 .52-.11.71-.3.19-.18.29-.43.29-.699 0-.27-.11-.52-.29-.71-.1-.089-.2-.169-.33-.22ZM2.038 15c-.216 0-.434-.034-.649-.103A1.976 1.976 0 0 1 0 12.995v-7.99c0-.88.546-1.627 1.39-1.902a2.07 2.07 0 0 1 2.317.744l2.904 3.969c.519.708.519 1.66 0 2.369l-2.904 3.967a2.065 2.065 0 0 1-1.67.848Zm-.049-9.995.01 7.99c0 .008 2.997-3.99 2.997-3.99l-3.007-4ZM15.962 3c.216 0 .434.034.649.103A1.976 1.976 0 0 1 18 5.005v7.99c0 .88-.546 1.627-1.39 1.902a2.07 2.07 0 0 1-2.317-.744l-2.904-3.969a1.997 1.997 0 0 1 0-2.369l2.904-3.967A2.065 2.065 0 0 1 15.963 3Z" fill="var(--iconFill, #464646)"/></svg>