<svg xmlns="http://www.w3.org/2000/svg" width="18" height="18" viewBox="0 0 18 18"><path d="M13.5 2.004h-2.105c-.952 0-2.253 0-2.961-.205-.199-.057-.436-.292-.688-.54-.276-.274-.59-.583-1-.816-.845-.48-1.662-.464-2.38-.448L4 0C1.794 0 0 1.794 0 4v9.54C0 16 2.019 18.003 4.5 18.003h9c2.481 0 4.5-2.003 4.5-4.465V6.468c0-2.461-2.019-4.464-4.5-4.464ZM4 2s.646-.01.753-.01c.43 0 .725.032 1.005.192.18.102.376.296.584.5.379.375.85.84 1.536 1.039.98.283 2.387.283 3.517.283H13.5c1.216 0 2.23.86 2.452 1.996H2V4c0-1.103.897-2 2-2Zm9.5 14.004h-9c-1.379 0-2.5-1.106-2.5-2.465V8h14v5.54c0 1.358-1.121 2.464-2.5 2.464Zm-.793-5.711a1 1 0 0 1 0 1.414l-3 3a.997.997 0 0 1-1.414 0l-3-3a1 1 0 1 1 1.414-1.414L9 12.586l2.293-2.293a1 1 0 0 1 1.414 0Z" fill="var(--iconFill, #464646)"/></svg>