<svg xmlns="http://www.w3.org/2000/svg" width="18" height="18" viewBox="0 0 18 18"><path d="M13.5 2H8.504a.83.83 0 0 1-.339-.077L6.302.448A2.752 2.752 0 0 0 4.794 0H4.5C2.019 0 0 2.004 0 4.467v8.066C0 14.996 2.019 17 4.5 17H7a1 1 0 1 0 0-2H4.5C3.122 15 2 13.894 2 12.533V8h15a1 1 0 0 0 1-1v-.543C18 3.999 15.981 2 13.5 2ZM2 6V4.467C2 3.107 3.122 2 4.5 2h.294c.149 0 .292.042.34.068l1.864 1.477c.459.298.98.455 1.506.455H13.5c1.22 0 2.238.863 2.457 2H2Z" fill="var(--iconFill, #464646)"/><path d="m17.71 16.297-1.272-1.286A3.955 3.955 0 0 0 17 13c0-2.206-1.794-4-4-4s-4 1.794-4 4 1.794 4 4 4c.743 0 1.43-.217 2.028-.571l1.262 1.274a.999.999 0 1 0 1.42-1.406ZM13 15c-1.103 0-2-.897-2-2s.897-2 2-2 2 .897 2 2-.897 2-2 2Z" fill="var(--iconFill, #464646)"/></svg>