<svg xmlns="http://www.w3.org/2000/svg" width="18" height="18" viewBox="0 0 18 18"><path d="M13.5 1.99H8.504a.86.86 0 0 1-.339-.067L6.302.448A2.752 2.752 0 0 0 4.794 0H4.5C2.019 0 0 2.004 0 4.467v8.066C0 14.996 2.019 17 4.5 17h4a1 1 0 1 0 0-2h-4C3.122 15 2 13.894 2 12.533V9h15a1 1 0 0 0 1-1V6.457c0-2.463-2.019-4.467-4.5-4.467ZM16 7H2V4.467C2 3.107 3.122 2 4.5 2h.294c.149 0 .292.042.34.068l1.864 1.477c.449.29.97.445 1.506.445H13.5c1.378 0 2.5 1.107 2.5 2.467V7Z" fill="var(--iconFill, #464646)"/><path d="M17 13h-2v-2a1 1 0 1 0-2 0v2h-2a1 1 0 1 0 0 2h2v2a1 1 0 1 0 2 0v-2h2a1 1 0 1 0 0-2Z" fill="var(--iconFill, #464646)"/></svg>