<svg xmlns="http://www.w3.org/2000/svg" width="18" height="18" viewBox="0 0 18 18"><path d="M13.5 2H8.504a.825.825 0 0 1-.339-.077L6.302.448A2.752 2.752 0 0 0 4.794 0H4.5a4.499 4.499 0 0 0-2.772.95A4.45 4.45 0 0 0 0 4.467v8.066C0 14.996 2.019 17 4.5 17h9c2.481 0 4.5-2.004 4.5-4.467V6.457C18 3.994 15.981 2 13.5 2ZM16 12.533C16 13.893 14.878 15 13.5 15h-9C3.122 15 2 13.894 2 12.533V9h14v3.533ZM16 7H2V4.467C2 3.107 3.122 2 4.5 2h.294c.149 0 .292.042.34.068l1.864 1.477c.449.29.97.445 1.506.445H13.5c1.378 0 2.5 1.107 2.5 2.467V7Z" fill="var(--iconFill, #464646)"/></svg>