<svg xmlns="http://www.w3.org/2000/svg" width="18" height="18" viewBox="0 0 18 18"><path d="M9 0C4.038 0 0 4.037 0 9s4.038 9 9 9c4.963 0 9-4.037 9-9s-4.038-9-9-9Zm6.92 8h-2.754c-.15-2.32-.805-4.164-1.573-5.496A7.011 7.011 0 0 1 15.92 8Zm-6.954 7.632C8.271 14.845 7.064 13.056 6.84 10h4.32c-.232 2.964-1.448 4.781-2.193 5.632ZM6.841 8c.232-2.964 1.448-4.781 2.193-5.632.695.787 1.902 2.576 2.127 5.632H6.84ZM6.51 2.466C5.743 3.736 5 5.564 4.836 8H2.08a7.01 7.01 0 0 1 4.43-5.534ZM2.08 10h2.754c.15 2.32.805 4.164 1.573 5.496A7.011 7.011 0 0 1 2.08 10Zm9.41 5.534c.767-1.27 1.51-3.098 1.674-5.534h2.756a7.01 7.01 0 0 1-4.43 5.534Z" fill="var(--iconFill, #464646)"/></svg>