<svg xmlns="http://www.w3.org/2000/svg" width="18" height="18" viewBox="0 0 18 18"><path d="M13.446 1.017C11.32.85 9.851 1.957 9 2.897c-.852-.94-2.33-2.038-4.445-1.88C1.955 1.216 0 3.467 0 6.148c0 4.765 3.98 8.036 7.372 10.353C7.859 16.834 8.43 17 9 17s1.14-.167 1.628-.5c3.39-2.316 7.372-5.586 7.372-10.352 0-2.698-1.955-4.932-4.553-5.131Zm-3.948 13.83a.89.89 0 0 1-.996.001C5.508 12.803 2.063 9.962 2 6.114 1.973 4.464 3.136 3.13 4.707 3.01A3.1 3.1 0 0 1 4.956 3C7.004 3 8.067 4.966 8.11 5.049c.17.331.512.538.885.54.376 0 .718-.208.89-.536.049-.09 1.176-2.221 3.408-2.042 1.57.12 2.733 1.454 2.706 3.103-.063 3.848-3.508 6.689-6.502 8.733Z" fill="var(--iconFill, #464646)"/></svg>