<svg xmlns="http://www.w3.org/2000/svg" width="18" height="18" viewBox="0 0 18 18"><path d="M9 18c-4.962.004-8.996-4.037-9-9S4.038.004 9 0s8.996 4.037 9 9-4.038 8.996-9 9ZM8.994 2C5.134 2.003 1.997 5.147 2 9.006S5.146 16.003 9.006 16c3.86-.003 6.997-3.147 6.994-7.006S12.854 1.997 8.994 2Z" fill="var(--iconFill, #464646)"/><path d="M11.67 6.323c0 .798-.35 1.401-.825 1.877-.546.534-1.05.94-1.05 1.277 0 .21.056.377.169.602.042.07 0 .126-.07.126l-1.807.002c-.084 0-.112.013-.21-.07-.252-.267-.351-.658-.351-.925 0-.588.546-1.135.993-1.57.392-.406.658-.658.658-.938 0-.421-.267-.616-.968-.616-.686 0-1.246.197-1.75.492-.07.027-.126 0-.126-.084L6.33 4.69c0-.07-.014-.155.07-.182C6.766 4.31 7.48 4 8.711 4c1.934-.002 2.957 1.035 2.959 2.323ZM7.606 12.685c0-.798.587-1.345 1.386-1.346.84 0 1.4.546 1.402 1.343 0 .8-.559 1.317-1.4 1.318-.799 0-1.387-.516-1.388-1.315Z" fill="var(--iconFill, #464646)"/></svg>