<svg xmlns="http://www.w3.org/2000/svg" width="18" height="18" viewBox="0 0 18 18"><path d="M3 17h3c1.103 0 2-.897 2-2v-4.003h2V15c0 1.103.897 2 2 2h3c1.103 0 2-.897 2-2V7.857c0-.878-.383-1.709-1.004-2.237l-5.06-4.9A2.964 2.964 0 0 0 9.004 0c-.707 0-1.422.254-2.017.767l-4.94 4.812A2.997 2.997 0 0 0 1 7.855V15c0 1.103.897 2 2 2Zm0-9.145c0-.292.127-.569.395-.8l4.94-4.814c.377-.324.925-.324 1.256-.044l5.059 4.9a1 1 0 0 1 .35.76V15l-3 .001v-4.004c0-1.102-.897-2-2-2H8c-1.103 0-2 .898-2 2V15H3V7.855Z" fill="var(--iconFill, #464646)"/></svg>