<svg xmlns="http://www.w3.org/2000/svg" width="18" height="18" viewBox="0 0 18 18"><circle cx="12.5" cy="5.5" r="1.5" fill="var(--iconFill, #464646)"/><path d="M13 1H5C2.243 1 0 3.243 0 6v6c0 2.757 2.243 5 5 5h8c2.757 0 5-2.243 5-5V6c0-2.757-2.243-5-5-5Zm0 14H5c-1.654 0-3-1.346-3-3 0-.012 3.012-2.927 3.012-2.927a.25.25 0 0 1 .351 0l3.713 3.713a1 1 0 0 0 1.374.038l1.956-1.753c.123-.12.198-.148.384.033l2.738 2.496A2.994 2.994 0 0 1 13 15Zm3-3.676-1.83-1.667c-.874-.876-2.302-.878-3.138-.038l-1.21 1.084-3.046-3.046c-.876-.873-2.301-.876-3.166-.01L2 9.204V6c0-1.654 1.346-3 3-3h8c1.654 0 3 1.346 3 3v5.324Z" fill="var(--iconFill, #464646)"/></svg>