<svg xmlns="http://www.w3.org/2000/svg" width="18" height="18" viewBox="0 0 18 18"><circle cx="12.5" cy="4.5" r="1.5" fill="var(--iconFill, #464646)"/><path d="M13 0H5C2.243 0 0 2.243 0 5v6c0 2.757 2.243 5 5 5h3a1 1 0 1 0 0-2H5c-1.654 0-3-1.346-3-3v-.012l3.012-2.915a.25.25 0 0 1 .351 0l3.713 3.713a.998.998 0 0 0 1.374.038l1.916-1.715a1 1 0 0 0-1.334-1.49l-1.21 1.084-3.046-3.046a2.248 2.248 0 0 0-3.166-.01L2 8.204V5c0-1.654 1.346-3 3-3h8c1.654 0 3 1.346 3 3v4a1 1 0 1 0 2 0V5c0-2.757-2.243-5-5-5Z" fill="var(--iconFill, #464646)"/><path d="M17 13h-2v-2a1 1 0 1 0-2 0v2h-2a1 1 0 1 0 0 2h2v2a1 1 0 1 0 2 0v-2h2a1 1 0 1 0 0-2Z" fill="var(--iconFill, #464646)"/></svg>