<svg xmlns="http://www.w3.org/2000/svg" width="18" height="18" viewBox="0 0 18 18"><path d="M12.5 6.5C12.5 4.57 10.93 3 9 3S5.5 4.57 5.5 6.5 7.07 10 9 10s3.5-1.57 3.5-3.5ZM9 8c-.827 0-1.5-.673-1.5-1.5S8.173 5 9 5s1.5.673 1.5 1.5S9.827 8 9 8ZM17 13h-2v-2a1 1 0 1 0-2 0v2h-2a1 1 0 1 0 0 2h2v2a1 1 0 1 0 2 0v-2h2a1 1 0 1 0 0-2Z" fill="var(--iconFill, #464646)"/><path d="M9 0C4.037 0 0 4.037 0 9s4.037 9 9 9a1 1 0 1 0 0-2 6.949 6.949 0 0 1-3.685-1.06A4.501 4.501 0 0 1 9 13a1 1 0 1 0 0-2c-2.082 0-4.003 1.016-5.214 2.654A6.963 6.963 0 0 1 2 9c0-3.86 3.14-7 7-7s7 3.14 7 7a1 1 0 1 0 2 0c0-4.963-4.037-9-9-9Z" fill="var(--iconFill, #464646)"/></svg>