<svg xmlns="http://www.w3.org/2000/svg" width="18" height="18" viewBox="0 0 18 18"><path d="M5 7c0 2.206 1.794 4 4 4s4-1.794 4-4-1.794-4-4-4-4 1.794-4 4Zm4-2c1.103 0 2 .897 2 2s-.897 2-2 2-2-.897-2-2 .897-2 2-2Z" fill="var(--iconFill, #464646)"/><path d="M13 1H5C2.243 1 0 3.243 0 6v6c0 2.757 2.243 5 5 5h8c2.757 0 5-2.243 5-5V6c0-2.757-2.243-5-5-5ZM6.015 15c.853-.636 1.895-1 2.985-1 1.09 0 2.132.364 2.986 1H6.015ZM16 12a2.99 2.99 0 0 1-1.56 2.615A7 7 0 0 0 9 12a6.999 6.999 0 0 0-5.44 2.615A2.99 2.99 0 0 1 2 12V6c0-1.654 1.346-3 3-3h8c1.654 0 3 1.346 3 3v6Z" fill="var(--iconFill, #464646)"/></svg>