<svg xmlns="http://www.w3.org/2000/svg" width="18" height="18" viewBox="0 0 18 18"><path d="m5.707 2.293-2-2a.997.997 0 0 0-1.414 0l-2 2a.997.997 0 0 0 0 1.414 1 1 0 0 0 1.414 0L2 3.414V9a1 1 0 1 0 2 0V3.414l.293.293a.997.997 0 0 0 1.414 0 1 1 0 0 0 0-1.414ZM11.999 10.96a2.997 2.997 0 0 1-1.642-.488l-3-1.961C6.507 7.955 5.998 7.017 5.998 6s.509-1.955 1.36-2.51l3-1.962a2.997 2.997 0 0 1 3.283 0l3 1.961C17.49 4.045 18 4.983 18 6s-.509 1.955-1.36 2.51l-3 1.962c-.498.326-1.07.489-1.641.489Zm0-7.92c-.19 0-.38.054-.546.162L8.451 5.163c-.288.189-.453.493-.453.837s.165.648.453.837l3.001 1.96a1 1 0 0 0 1.093 0l3.002-1.96C15.835 6.648 16 6.344 16 6s-.165-.648-.453-.837l-3.001-1.96a1 1 0 0 0-.547-.164Z" fill="var(--iconFill, #464646)"/><path d="M7.349 11.89a.972.972 0 0 1-.71-.29.984.984 0 0 1-.29-.7c0-.27.11-.53.29-.71.37-.38 1.05-.38 1.42 0 .18.18.29.44.29.71 0 .26-.11.51-.29.7-.1.09-.2.17-.33.22-.12.05-.25.07-.38.07ZM10.99 15.96c0-.56.448-1 1.009-1 .55 0 .99.45.99 1s-.45 1-1 1-1-.45-1-1Zm2.489-.58c-.3-.46-.17-1.08.29-1.39.46-.3 1.08-.17 1.39.29.3.47.17 1.09-.29 1.39-.17.11-.36.16-.55.16-.32 0-.64-.16-.84-.45Zm-4.36.28a.997.997 0 0 1 1.09-1.67c.47.3.6.92.29 1.38-.19.3-.51.45-.83.45-.19 0-.38-.05-.55-.16Zm6.69-1.58c-.41-.37-.44-1-.07-1.41.37-.41 1.01-.44 1.42-.07.4.38.43 1.01.06 1.42-.2.21-.47.32-.74.32-.24 0-.48-.08-.67-.26ZM6.759 14c-.36-.41-.33-1.04.08-1.41.42-.37 1.05-.33 1.42.08.36.41.33 1.05-.09 1.41-.19.17-.42.25-.66.25-.28 0-.55-.11-.75-.33ZM16.648 11.89c-.13 0-.26-.02-.38-.07s-.229-.13-.33-.22a.854.854 0 0 1-.21-.32c-.05-.12-.08-.25-.08-.39a1 1 0 0 1 .08-.38c.051-.12.12-.23.21-.32.37-.38 1.04-.38 1.42 0 .091.09.16.2.21.32a.981.981 0 0 1 0 .77c-.05.12-.119.23-.21.32-.1.09-.21.17-.329.22-.12.05-.25.07-.38.07Z" fill="#484848"/><path d="M16 6a.984.984 0 0 0-.453-.837l-3.001-1.96a1 1 0 0 0-1.093 0l-3.002 1.96c-.288.189-.453.493-.453.837s.165.648.453.837l3.001 1.96a1 1 0 0 0 1.093 0l3.002-1.96A.984.984 0 0 0 16 6Z" fill="var(--iconFillMedium, #909090)"/></svg>