<svg xmlns="http://www.w3.org/2000/svg" width="18" height="18" viewBox="0 0 18 18"><path d="M5.707 14.293a1 1 0 0 0-1.414 0L4 14.586V9a1 1 0 1 0-2 0v5.586l-.293-.293a1 1 0 1 0-1.414 1.414l2 2a.997.997 0 0 0 1.414 0l2-2a1 1 0 0 0 0-1.414ZM13.64 7.527l3 1.961C17.492 10.044 18 10.982 18 12s-.509 1.955-1.36 2.51l-3 1.962a2.997 2.997 0 0 1-3.282 0l-3-1.961c-.851-.556-1.36-1.494-1.36-2.511s.509-1.955 1.36-2.51l3-1.962a2.997 2.997 0 0 1 3.282 0Zm-1.094 7.27 3-1.961c.289-.189.454-.493.454-.837s-.165-.648-.453-.837l-3.002-1.96a.998.998 0 0 0-1.092 0l-3.002 1.96c-.288.189-.453.493-.453.837s.165.648.453.837l3.002 1.96a.997.997 0 0 0 1.093 0Z" fill="var(--iconFill, #464646)"/><path d="M7.349 6.11a.972.972 0 0 0-.71.29c-.19.189-.29.439-.29.7 0 .27.11.529.29.71.37.38 1.05.38 1.42 0 .18-.181.29-.44.29-.71 0-.261-.11-.511-.29-.7-.1-.09-.2-.17-.33-.22a.972.972 0 0 0-.38-.07ZM11.99 1.04c.55 0 1 .45 1 1s-.441 1-.991 1a.998.998 0 0 1-1.01-1c0-.55.45-1 1-1Zm2.328 1.129c.19 0 .381.05.551.16.46.3.59.92.29 1.39-.31.46-.93.59-1.39.29-.46-.31-.59-.93-.29-1.39.2-.29.52-.45.84-.45Zm-4.649.01c.32 0 .64.15.83.45.31.46.18 1.08-.29 1.38a.997.997 0 0 1-1.09-1.67c.17-.11.36-.16.55-.16Zm6.81 1.48c.27 0 .54.11.74.32.37.41.34 1.04-.06 1.42-.41.37-1.05.34-1.42-.07a.997.997 0 0 1 .07-1.41c.19-.18.43-.26.67-.26Zm-8.97.01c.24 0 .47.08.66.25.42.36.45 1 .09 1.41-.37.41-1 .45-1.42.08-.41-.37-.44-1-.08-1.41.2-.22.47-.33.75-.33ZM16.648 6.11c-.13 0-.26.019-.38.07-.12.05-.229.13-.33.22-.09.09-.17.2-.21.319-.05.12-.08.25-.08.39a1 1 0 0 0 .08.38c.051.12.12.23.21.32.37.38 1.04.38 1.42 0 .091-.09.16-.2.21-.32a.981.981 0 0 0 0-.77.976.976 0 0 0-.21-.32c-.1-.09-.21-.17-.329-.22a.973.973 0 0 0-.38-.07Z" fill="#484848"/><path d="M16 11.999a.984.984 0 0 1-.453.837l-3.001 1.96a1 1 0 0 1-1.093 0l-3.002-1.96c-.288-.189-.453-.493-.453-.837s.165-.648.453-.837l3.001-1.96a1 1 0 0 1 1.093 0l3.002 1.96A.984.984 0 0 1 16 12Z" fill="var(--iconFillMedium, #909090)"/></svg>