<svg xmlns="http://www.w3.org/2000/svg" width="18" height="18" viewBox="0 0 18 18"><path d="M18 6a2.99 2.99 0 0 0-1.36-2.51l-3-1.962a2.997 2.997 0 0 0-3.282 0l-3 1.961c-.851.556-1.36 1.494-1.36 2.511s.509 1.955 1.36 2.51l.748.49-.749.49c-.85.555-1.359 1.493-1.359 2.51s.509 1.955 1.36 2.51l3 1.962a2.997 2.997 0 0 0 3.282 0l3-1.961C17.492 13.955 18 13.017 18 12s-.509-1.955-1.36-2.51L15.893 9l.749-.49A2.99 2.99 0 0 0 18 6Zm-2.453 5.163c.288.189.453.493.453.837s-.165.648-.453.837l-3.002 1.96a1 1 0 0 1-1.093 0l-3-1.96c-.289-.189-.454-.493-.454-.837s.165-.648.453-.837l1.483-.968.423.277a2.997 2.997 0 0 0 3.283 0l.424-.278 1.483.97Zm0-4.326-2.023 1.321-.98.64a.998.998 0 0 1-1.09 0l-.939-.612a.954.954 0 0 0-.047-.031L8.451 6.837c-.288-.189-.453-.493-.453-.837s.165-.648.453-.837l3.002-1.96a.997.997 0 0 1 1.093 0l3 1.96c.289.189.454.493.454.837s-.165.648-.453.837Z" fill="var(--iconFill, #464646)"/><path d="m8.452 12.837 3.001 1.96a1 1 0 0 0 1.093 0l3.002-1.96c.288-.189.453-.493.453-.837s-.165-.648-.453-.837l-1.483-.969-.424.278a2.992 2.992 0 0 1-3.283 0l-.423-.277-1.483.968C8.164 11.352 8 11.656 8 12s.165.648.453.837Z" fill="var(--iconFillMedium, #909090)"/><path d="m5.707 8.293-2-2a.997.997 0 0 0-1.414 0l-2 2a.997.997 0 0 0 0 1.414 1 1 0 0 0 1.414 0L2 9.414V15a1 1 0 1 0 2 0V9.414l.293.293a.997.997 0 0 0 1.414 0 1 1 0 0 0 0-1.414Z" fill="var(--iconFill, #464646)"/></svg>