<svg xmlns="http://www.w3.org/2000/svg" width="18" height="18" viewBox="0 0 18 18"><path d="M1 5a.997.997 0 0 0 .707-.293L2 4.414V7a1 1 0 1 0 2 0V4.414l.293.293a1 1 0 0 0 1.414-1.414l-2-2a1.006 1.006 0 0 0-1.415 0l-1.999 2A1 1 0 0 0 1 5ZM5 13a.997.997 0 0 0-.707.293L4 13.586V11a1 1 0 1 0-2 0v2.586l-.293-.293a1 1 0 0 0-1.414 1.414l2 2c.249.25.554.293.707.293.153 0 .458-.043.708-.294l1.999-1.999A1 1 0 0 0 5 13ZM16.644 9.491l-.736-.483.739-.487C17.494 7.965 18 7.021 18 6s-.506-1.966-1.353-2.523l-3.024-1.99a2.954 2.954 0 0 0-3.246 0l-3.024 1.99C6.506 4.033 6 4.976 6 6s.506 1.966 1.353 2.522l.74.487-.737.483a3 3 0 0 0-1.351 2.518c0 1.02.505 1.959 1.351 2.514l3.024 1.987a2.946 2.946 0 0 0 3.24 0l3.024-1.987a2.996 2.996 0 0 0 1.351-2.514c0-1.021-.505-1.961-1.351-2.518ZM8 5.999c0-.353.165-.663.453-.853l3.023-1.989a.95.95 0 0 1 1.047-.001l3.024 1.99c.288.19.453.5.453.853s-.165.663-.453.852l-3.023 1.99a.947.947 0 0 1-1.048 0L8.453 6.85C8.165 6.661 8 6.351 8 6Zm7.55 6.86-3.023 1.986a.965.965 0 0 1-1.054 0L8.45 12.86a1 1 0 0 1-.453-.851 1 1 0 0 1 .453-.853l1.455-.955.473.311a2.951 2.951 0 0 0 3.246 0l.473-.31 1.454.954c.29.19.454.5.454.853s-.165.662-.453.851Z" fill="var(--iconFill, #464646)"/><path d="m15.55 12.86-3.023 1.985a.965.965 0 0 1-1.054 0L8.45 12.86a1 1 0 0 1-.453-.851 1 1 0 0 1 .453-.853l1.455-.955.473.311a2.951 2.951 0 0 0 3.246 0l.473-.31 1.454.954c.29.19.454.5.454.853s-.165.662-.453.851Z" fill="var(--iconFillMedium, #909090)"/></svg>