<svg xmlns="http://www.w3.org/2000/svg" width="18" height="18" viewBox="0 0 18 18"><path d="m8.293 13.243-.707.707a2.506 2.506 0 0 1-3.536 0 2.506 2.506 0 0 1 0-3.536l2.122-2.121c.945-.945 2.59-.945 3.535 0a1 1 0 1 0 1.414-1.414c-.85-.85-1.98-1.318-3.182-1.318s-2.332.468-3.181 1.318L2.636 9a4.507 4.507 0 0 0 0 6.364c.878.877 2.03 1.316 3.181 1.316S8.123 16.24 9 15.364l.707-.707a1 1 0 1 0-1.414-1.414Z" fill="var(--iconFill, #464646)"/><path d="m9 2.636-.707.707a1 1 0 1 0 1.414 1.414l.707-.707a2.503 2.503 0 0 1 3.536 0 2.506 2.506 0 0 1 0 3.536l-2.122 2.121c-.945.945-2.59.945-3.535 0a1 1 0 1 0-1.414 1.414c.85.85 1.98 1.318 3.182 1.318s2.332-.468 3.181-1.318L15.364 9a4.507 4.507 0 0 0 0-6.364 4.507 4.507 0 0 0-6.364 0Z" fill="var(--iconFill, #464646)"/></svg>