<svg xmlns="http://www.w3.org/2000/svg" width="18" height="18" viewBox="0 0 18 18"><path d="M5 18h8c1.654 0 3-1.346 3-3v-5c0-1.654-1.346-3-3-3H6V5c0-1.654 1.346-3 3-3 .802 0 1.555.312 2.12.879a1.002 1.002 0 0 0 1.416-1.414A4.967 4.967 0 0 0 9 0C6.243 0 4 2.243 4 5v2c0 .062.024.115.035.173A2.994 2.994 0 0 0 2 10v5c0 1.654 1.346 3 3 3Zm-1-8a1 1 0 0 1 1-1h8a1 1 0 0 1 1 1v5a1 1 0 0 1-1 1H5a1 1 0 0 1-1-1v-5Z" fill="var(--iconFill, #464646)"/><path d="M9 14.5a1 1 0 0 0 1-1v-2a1 1 0 1 0-2 0v2a1 1 0 0 0 1 1Z" fill="var(--iconFill, #464646)"/></svg>