<svg xmlns="http://www.w3.org/2000/svg" width="18" height="18" viewBox="0 0 18 18"><path d="M14.99 5.806C14.886 2.587 12.243 0 9 0S3.114 2.587 3.01 5.806A6 6 0 0 0 0 11c0 3.309 2.691 6 6 6a5.959 5.959 0 0 0 3-.812A5.959 5.959 0 0 0 12 17c3.309 0 6-2.691 6-6a6 6 0 0 0-3.01-5.194Zm-3.347 3.173a5.995 5.995 0 0 0-.971-1.735C11.09 7.096 11.532 7 12 7c.285 0 .562.032.83.09a3.98 3.98 0 0 1-1.187 1.89ZM9 13.618a3.972 3.972 0 0 1-.88-1.69c.288.043.58.072.88.072s.592-.03.88-.072a3.972 3.972 0 0 1-.88 1.69ZM5.17 7.089C5.438 7.032 5.715 7 6 7c.468 0 .91.096 1.328.244a5.995 5.995 0 0 0-.97 1.735A3.98 3.98 0 0 1 5.17 7.09ZM9 10c-.285 0-.562-.032-.83-.09.163-.573.448-1.09.83-1.528.382.438.667.955.83 1.529-.268.057-.545.089-.83.089Zm0-8c1.885 0 3.46 1.314 3.88 3.072A5.949 5.949 0 0 0 12 5a5.959 5.959 0 0 0-3 .812A5.959 5.959 0 0 0 6 5c-.3 0-.592.03-.88.072C5.54 3.314 7.115 2 9 2Zm-7 9c0-1.189.532-2.247 1.357-2.98a6.024 6.024 0 0 0 2.653 3.174 5.966 5.966 0 0 0 1.318 3.562C6.91 14.904 6.468 15 6 15c-2.206 0-4-1.794-4-4Zm10 4c-.468 0-.91-.096-1.328-.244a5.966 5.966 0 0 0 1.318-3.562 6.023 6.023 0 0 0 2.653-3.173A3.974 3.974 0 0 1 16 11c0 2.206-1.794 4-4 4Z" fill="var(--iconFill, #464646)"/></svg>