<svg xmlns="http://www.w3.org/2000/svg" width="18" height="18" viewBox="0 0 18 18"><path d="m17.885 2.308-1.26-.63a.691.691 0 0 1-.308-.31l-.63-1.262a.216.216 0 0 0-.373 0l-.63 1.262a.69.69 0 0 1-.308.31l-1.26.63a.228.228 0 0 0-.116.187.228.228 0 0 0 .116.186l1.26.631a.69.69 0 0 1 .308.309l.63 1.262a.207.207 0 0 0 .373 0l.63-1.262a.69.69 0 0 1 .308-.309l1.26-.63A.23.23 0 0 0 18 2.495a.23.23 0 0 0-.115-.187ZM4.1 4.65c.107.053.194.14.247.247l.504 1.01a.165.165 0 0 0 .299 0l.503-1.01A.551.551 0 0 1 5.9 4.65l1.008-.504A.183.183 0 0 0 7 3.996a.184.184 0 0 0-.092-.15L5.9 3.342a.553.553 0 0 1-.247-.247l-.504-1.01a.173.173 0 0 0-.298 0l-.504 1.01a.553.553 0 0 1-.246.247l-1.008.504a.182.182 0 0 0-.093.15.182.182 0 0 0 .093.149L4.1 4.65ZM15.9 11.342a.553.553 0 0 1-.247-.247l-.504-1.01a.173.173 0 0 0-.298 0l-.504 1.01a.553.553 0 0 1-.246.247l-1.008.504a.182.182 0 0 0-.093.15.182.182 0 0 0 .093.149l1.008.505c.106.053.193.14.246.247l.504 1.01a.165.165 0 0 0 .299 0l.503-1.01a.551.551 0 0 1 .247-.247l1.008-.505a.183.183 0 0 0 .092-.149.184.184 0 0 0-.092-.15l-1.008-.504ZM14.707 5.602 12.4 3.293a1 1 0 0 0-1.414 0L.766 13.511A2.593 2.593 0 0 0 0 15.364c.001.7.276 1.355.807 1.882.506.502 1.17.754 1.834.754.667 0 1.334-.254 1.841-.76L14.707 7.015a1 1 0 0 0 0-1.414ZM3.068 15.825c-.234.234-.618.235-.888-.033a.609.609 0 0 1 0-.867l5.592-5.591.893.895-5.597 5.596Zm7.012-7.01-.894-.895 2.506-2.506.894.895-2.506 2.505Z" fill="var(--iconFill, #464646)"/></svg>