<svg xmlns="http://www.w3.org/2000/svg" width="18" height="18" viewBox="0 0 18 18"><path d="M18 9a.997.997 0 0 0-.293-.707l-2-2a1 1 0 0 0-1.414 1.414l.293.293H10V3.414l.293.293a1 1 0 0 0 1.414-1.414l-2-2a.997.997 0 0 0-1.414 0l-2 2a1 1 0 0 0 1.414 1.414L8 3.414V8H3.414l.293-.293a1 1 0 0 0-1.414-1.414l-2 2a.997.997 0 0 0 0 1.414l2 2a1 1 0 0 0 1.414-1.414L3.414 10H8v4.586l-.293-.293a1 1 0 0 0-1.414 1.414l2 2a.997.997 0 0 0 1.414 0l2-2a1 1 0 0 0-1.414-1.414l-.293.293V10h4.586l-.293.293a1 1 0 0 0 1.414 1.414l2-2A.997.997 0 0 0 18 9Z" fill="var(--iconFill, #464646)"/></svg>