<svg xmlns="http://www.w3.org/2000/svg" width="18" height="18" viewBox="0 0 18 18"><path d="m9.772 5.22 1.082-1.082 3.011 3.014-1.08 1.081A1 1 0 1 0 14.2 9.645l2.614-2.614a4.143 4.143 0 0 0-.024-5.822 4.136 4.136 0 0 0-5.837 0L8.358 3.807A1 1 0 1 0 9.772 5.22Zm5.606-2.595a2.14 2.14 0 0 1-.001 3.015l-.098.098-3.011-3.014.098-.099c.83-.83 2.182-.83 3.012 0Zm2.329 13.668-16-16A1 1 0 1 0 .293 1.707L5.376 6.79l-3.782 3.784a2.01 2.01 0 0 0-.586 1.41L1 15.99a1 1 0 0 0 .998 1.002L6.013 17h.008c.527 0 1.041-.214 1.412-.586l3.783-3.784 5.077 5.077a.997.997 0 0 0 1.414 0 1 1 0 0 0 0-1.414Zm-14.7-4.292A3.003 3.003 0 0 1 6 15l-2.998-.007.006-2.992Zm4.684 1.327a4.994 4.994 0 0 0-3.008-3.016L6.79 8.204l3.012 3.012-2.111 2.112Z" fill="var(--iconFill, #464646)"/></svg>