<svg xmlns="http://www.w3.org/2000/svg" width="18" height="18" viewBox="0 0 18 18"><path d="M4.319 15.593c.463.271.985.407 1.507.407.503 0 1.006-.126 1.457-.379l7.174-4.02c.966-.541 1.543-1.514 1.543-2.6 0-1.088-.577-2.06-1.543-2.602L7.283 2.38a2.989 2.989 0 0 0-2.964.029C3.493 2.89 3 3.726 3 4.639v8.722c0 .913.493 1.748 1.319 2.232ZM5 4.64c0-.273.207-.434.33-.506.13-.077.308-.134.501-.134.152 0 .315.035.474.124l7.174 4.02c.47.263.521.686.521.856s-.05.593-.521.857l-7.174 4.02a.992.992 0 0 1-.975-.01c-.123-.073-.33-.234-.33-.506V4.64Z" fill="var(--iconFill, #464646)"/></svg>