<svg xmlns="http://www.w3.org/2000/svg" width="18" height="18" viewBox="0 0 18 18"><path d="M9 3C6.794 3 5 4.794 5 7s1.794 4 4 4 4-1.794 4-4-1.794-4-4-4Zm0 6c-1.103 0-2-.897-2-2s.897-2 2-2 2 .897 2 2-.897 2-2 2Z" fill="var(--iconFill, #464646)"/><path d="M12 0H6C3.243 0 1 2.243 1 5v8c0 2.757 2.243 5 5 5h6c2.757 0 5-2.243 5-5V5c0-2.757-2.243-5-5-5ZM6 16c-.307 0-.598-.06-.878-.146A4.99 4.99 0 0 1 9 14c1.515 0 2.93.689 3.877 1.854-.28.086-.57.146-.877.146H6Zm9-3c0 .62-.189 1.196-.512 1.675A6.983 6.983 0 0 0 9 12a6.98 6.98 0 0 0-5.488 2.674A2.983 2.983 0 0 1 3 13V5c0-1.654 1.346-3 3-3h6c1.654 0 3 1.346 3 3v8Z" fill="var(--iconFill, #464646)"/></svg>