<svg xmlns="http://www.w3.org/2000/svg" width="18" height="18" viewBox="0 0 18 18"><path d="M11 0C8.03 0 5.493 1.862 4.478 4.478 1.862 5.493 0 8.03 0 11c0 3.86 3.14 7 7 7 2.97 0 5.507-1.862 6.522-4.478C16.138 12.507 18 9.97 18 7c0-3.86-3.14-7-7-7Zm2.97 11H13v.576c-.318.14-.651.252-1 .323V11h-1v1a5 5 0 0 1-1-.101V11H9v.576A4.97 4.97 0 0 1 8.03 11H9v-1H8v.975A5.026 5.026 0 0 1 7.026 10H8V9H7v.97A4.97 4.97 0 0 1 6.424 9H7V8h-.899A5 5 0 0 1 6 7h1V6h-.899c.071-.349.183-.682.323-1H7v-.97C7.912 2.807 9.359 2 11 2c2.757 0 5 2.243 5 5 0 1.641-.806 3.088-2.031 4Z" fill="var(--iconFill, #464646)"/><path fill="var(--iconFill, #464646)" d="M7 5h1v1H7zM9 7h1v1H9zM7 7h1v1H7zM8 6h1v1H8zM9 9h1v1H9zM13.92 10a6.95 6.95 0 0 0-.215-1H13v1h.92ZM11 7h1v1h-1zM11 9h1v1h-1zM10 6h1v1h-1zM8 8h1v1H8zM9 5h1v1H9zM10 8h1v1h-1zM13 7.413V8h.315A7.048 7.048 0 0 0 13 7.413ZM9 4.295a6.913 6.913 0 0 0-1-.215V5h1v-.705ZM12 6.11V7h.736A7.06 7.06 0 0 0 12 6.11ZM12 8h1v1h-1zM11 5.264V6h.89a7.056 7.056 0 0 0-.89-.736ZM10 10h1v1h-1zM12 10h1v1h-1zM10 4.685V5h.587A6.995 6.995 0 0 0 10 4.685Z"/></svg>