<svg xmlns="http://www.w3.org/2000/svg" width="18" height="18" viewBox="0 0 18 18"><path d="M14 6h-1a1 1 0 1 0 0 2h1a1 1 0 1 0 0-2Z" fill="var(--iconFill, #464646)"/><path d="M15 3h-1V1a1 1 0 0 0-1-1H5a1 1 0 0 0-1 1v2H3C1.346 3 0 4.346 0 6v6c0 1.654 1.346 3 3 3v2a1 1 0 0 0 1 1h10a1 1 0 0 0 1-1v-2c1.654 0 3-1.346 3-3V6c0-1.654-1.346-3-3-3ZM6 2h6v1H6V2Zm7 14H5v-5h8v5Zm3-4a1 1 0 0 1-1 1v-3a1 1 0 0 0-1-1H4a1 1 0 0 0-1 1v3a1 1 0 0 1-1-1V6a1 1 0 0 1 1-1h12a1 1 0 0 1 1 1v6Z" fill="var(--iconFill, #464646)"/><path d="M11 13H7a1 1 0 1 0 0 2h4a1 1 0 1 0 0-2Z" fill="var(--iconFill, #464646)"/></svg>