<svg xmlns="http://www.w3.org/2000/svg" width="18" height="18" viewBox="0 0 18 18"><path d="M16.14.8C15.6.426 14.911.34 14.244.592L8.79 3H3.824C1.715 3 0 4.794 0 7c0 1.713 1.04 3.166 2.489 3.735l2.119 5.402A2.872 2.872 0 1 0 9.98 14.1L8.747 11c.04 0 5.55 2.43 5.55 2.43a2.006 2.006 0 0 0 1.841-.23c.54-.373.861-.987.861-1.643V2.443c0-.656-.322-1.27-.86-1.643ZM3.823 9C2.818 9 2 8.103 2 7s.818-2 1.824-2H8v4H3.824Zm4.191 6.625c-.371.536-1.301.43-1.54-.205L4.743 11h1.854l1.519 3.82a.863.863 0 0 1-.1.805ZM10 9.348V4.652l5-2.209.053 9.135L10 9.348Z" fill="var(--iconFill, #464646)"/></svg>