<svg xmlns="http://www.w3.org/2000/svg" width="18" height="18" viewBox="0 0 18 18"><path d="M16.64 11.38c-.11.35-.245.7-.404 1.037A8.043 8.043 0 0 1 9 17a7.94 7.94 0 0 1-6-2.725V16a1 1 0 1 1-2 0v-4a1 1 0 0 1 1-1h4a1 1 0 1 1 0 2H4.54A5.958 5.958 0 0 0 9 15a6.03 6.03 0 0 0 5.731-4.216.994.994 0 0 1 1.252-.656.999.999 0 0 1 .657 1.252ZM16 1a1 1 0 0 0-1 1v1.7A8.007 8.007 0 0 0 9.012 1a8.038 8.038 0 0 0-7.235 4.581 7.88 7.88 0 0 0-.405 1.041 1 1 0 1 0 1.91.592A6.028 6.028 0 0 1 9.012 3a6.01 6.01 0 0 1 4.472 2H12a1 1 0 1 0 0 2h4a1 1 0 0 0 1-1V2a1 1 0 0 0-1-1Z" fill="var(--iconFill, #464646)"/></svg>