<svg xmlns="http://www.w3.org/2000/svg" width="18" height="18" viewBox="0 0 18 18"><path d="M13 0H5C2.243 0 0 2.243 0 5v7c0 2.757 2.243 5 5 5h8c2.757 0 5-2.243 5-5V5c0-2.757-2.243-5-5-5Zm3 12c0 1.654-1.346 3-3 3H5c-1.654 0-3-1.346-3-3V5c0-1.654 1.346-3 3-3h8c1.654 0 3 1.346 3 3v7Z" fill="var(--iconFill, #464646)"/><path d="M13 4H9c-.552 0-1 .448-1 1.002a1 1 0 0 0 1 1.001h1.588L9.295 7.298a1.003 1.003 0 0 0 .707 1.71.994.994 0 0 0 .707-.293L12 7.42v1.578a1 1 0 1 0 1.999 0V5.002A1 1 0 0 0 13 4ZM3.01 10c.55 0 .99-.45.99-1s-.44-1-.99-1C2.45 8 2 8.45 2 9s.45 1 1.01 1ZM6.325 8.05c-.53-.17-1.09.11-1.27.63a1 1 0 0 0 .63 1.27.993.993 0 0 0 1.26-.63c.18-.52-.1-1.09-.62-1.27Z" fill="var(--iconFill, #464646)"/><circle cx="8" cy="14" r="1" fill="var(--iconFill, #464646)"/><circle cx="8" cy="11" r="1" fill="var(--iconFill, #464646)"/></svg>