<svg xmlns="http://www.w3.org/2000/svg" width="18" height="18" viewBox="0 0 18 18"><path d="m12.025 1.025-1.743 1.743-.525-.525a1 1 0 1 0-1.414 1.414l.525.525-6.81 6.81a.999.999 0 0 0-.268.483l-.7 3.036a1.99 1.99 0 0 0 .534 1.865 1.986 1.986 0 0 0 1.864.534l3.037-.7a.999.999 0 0 0 .483-.268l6.81-6.81.525.525a.997.997 0 0 0 1.414 0 1 1 0 0 0 0-1.414l-.525-.525 1.743-1.743a3.488 3.488 0 0 0 1.023-2.44 3.49 3.49 0 0 0-1.023-2.51 3.488 3.488 0 0 0-2.44-1.023 3.49 3.49 0 0 0-2.51 1.023Zm-6.228 13.3-2.758.636.636-2.758.223-.223c.036.003.066.02.102.02h4.122l-2.325 2.325Zm4.304-4.304C10.066 10.017 10.036 10 10 10H5.878l4.404-4.404 2.122 2.122-2.303 2.303Z" fill="var(--iconFill, #464646)"/></svg>