<svg xmlns="http://www.w3.org/2000/svg" width="18" height="18" viewBox="0 0 18 18"><path d="M16.39 6.81c-.24-.17-.646-.455-.713-.566-.05-.156.04-.673.093-.981.144-.85.325-1.907-.406-2.633-.725-.72-1.775-.541-2.62-.397-.31.052-.83.142-.966.1-.133-.077-.418-.482-.588-.724C10.687.893 10.06 0 9 0S7.313.893 6.81 1.61c-.17.24-.455.646-.566.713-.156.047-.674-.04-.981-.093-.85-.145-1.908-.326-2.633.406-.72.725-.541 1.776-.397 2.62.053.31.141.827.1.966-.077.133-.482.418-.724.588C.893 7.313 0 7.94 0 9s.893 1.687 1.61 2.19c.24.17.646.455.713.566.05.156-.04.673-.093.981-.144.85-.325 1.907.406 2.633.725.72 1.776.541 2.62.397.31-.053.829-.145.966-.1.133.077.418.482.588.724C7.313 17.107 7.94 18 9 18s1.687-.893 2.19-1.61c.17-.24.455-.646.566-.713.155-.05.673.04.981.093.849.144 1.907.325 2.633-.406.72-.725.541-1.776.397-2.62-.053-.31-.141-.827-.1-.966.077-.133.482-.418.724-.588C17.107 10.687 18 10.06 18 9s-.893-1.687-1.61-2.19Zm-1.149 2.744c-.566.397-1.151.808-1.416 1.446-.272.658-.143 1.413-.03 2.08.04.238.103.603.106.824-.222-.003-.588-.065-.827-.106-.663-.112-1.414-.242-2.074.027-.638.265-1.049.85-1.446 1.416-.154.218-.392.558-.554.71-.162-.152-.4-.492-.554-.71-.397-.566-.808-1.151-1.446-1.416a2.348 2.348 0 0 0-.908-.162c-.397 0-.798.068-1.172.133-.238.04-.603.102-.824.105.003-.222.065-.588.106-.827.113-.663.242-1.415-.027-2.074-.265-.638-.85-1.049-1.416-1.446C2.54 9.4 2.2 9.162 2.049 9c.152-.162.492-.4.71-.554C3.325 8.05 3.91 7.638 4.175 7c.272-.658.143-1.413.03-2.08-.04-.238-.103-.603-.106-.824.222.003.588.065.827.106.665.113 1.416.243 2.074-.027.638-.265 1.049-.85 1.446-1.416.154-.218.392-.558.554-.71.162.152.4.492.554.71.397.566.808 1.151 1.446 1.416.658.273 1.413.144 2.08.03.238-.04.603-.103.824-.106-.003.222-.065.588-.106.827-.113.663-.242 1.415.027 2.074.265.638.85 1.049 1.416 1.446.218.154.558.392.71.554-.152.162-.492.4-.71.554Z" fill="var(--iconFill, #464646)"/><path d="M9.298 6.015a3.006 3.006 0 0 0-3.283 2.69A3.003 3.003 0 0 0 9.005 12c.691 0 1.356-.236 1.897-.68a2.975 2.975 0 0 0 1.083-2.027c.02-.195.02-.392 0-.59a3.016 3.016 0 0 0-2.687-2.688ZM9.996 9.1a.994.994 0 0 1-.362.676 1.016 1.016 0 0 1-.732.221.994.994 0 0 1-.675-.361 1.002 1.002 0 0 1 .871-1.63 1.008 1.008 0 0 1 .898 1.094Z" fill="var(--iconFill, #464646)"/></svg>