<svg xmlns="http://www.w3.org/2000/svg" width="18" height="18" viewBox="0 0 18 18"><path d="M14 10.999a.986.986 0 0 0 .349-.07c.033-.013.062-.029.094-.044a.983.983 0 0 0 .21-.142c.025-.022.051-.042.074-.067a.99.99 0 0 0 .192-.283l3-7.001A1 1 0 0 0 17 1.998H3.538L2.914.594A1 1 0 0 0 2 0H1a1 1 0 1 0 0 2h.35l3.597 8.092-.917 3.665A.997.997 0 0 0 5 14.999h10a1 1 0 1 0 0-2H6.281l.5-2H14Zm1.483-7.001-2.142 5.001H6.65L4.426 3.998h11.056ZM7.75 16.75a1.25 1.25 0 1 1-2.5 0 1.25 1.25 0 0 1 2.5 0Zm7 0a1.25 1.25 0 1 1-2.5 0 1.25 1.25 0 0 1 2.5 0Z" fill="var(--iconFill, #464646)"/></svg>