<svg xmlns="http://www.w3.org/2000/svg" width="18" height="18" viewBox="0 0 18 18"><path d="M14.707 9.293a1 1 0 0 0-1.414 1.414L14.586 12h-2.44c-1.73 0-1.884-1.08-2.734-1.08a1 1 0 0 0-1 .999c0 .965 1.952 2.081 3.734 2.081h2.44l-1.293 1.293a1 1 0 0 0 1.414 1.414l3-3a.997.997 0 0 0 0-1.414l-3-3Z" fill="var(--iconFill, #464646)"/><path d="M12.146 5h2.44l-1.293 1.293a1 1 0 0 0 1.414 1.414l3-3a.997.997 0 0 0 0-1.414l-3-3a1 1 0 0 0-1.414 1.414L14.586 3h-2.44c-2.01 0-3.815 1.195-4.565 2.969l-2.216 4.205A2.995 2.995 0 0 1 2.604 12H1a1 1 0 1 0 0 2h1.604c2.01 0 3.815-1.195 4.565-2.969l2.216-4.205A2.995 2.995 0 0 1 12.146 5ZM1 5h1.604a2.99 2.99 0 0 1 2.05.81A1 1 0 0 0 6.02 4.35 4.986 4.986 0 0 0 2.604 3H1a1 1 0 1 0 0 2Z" fill="var(--iconFill, #464646)"/></svg>