<svg xmlns="http://www.w3.org/2000/svg" width="18" height="18" viewBox="0 0 18 18"><path d="M13.24 17.99c-.345 0-.691-.085-1.01-.26L9 15.958 5.77 17.73c-.712.39-1.563.34-2.225-.128a2.191 2.191 0 0 1-.892-2.163l.626-3.812L.632 8.934a2.21 2.21 0 0 1-.515-2.26A2.14 2.14 0 0 1 1.826 5.22l3.622-.55 1.628-3.443C7.432.476 8.17.008 9 .008s1.568.467 1.924 1.218l1.629 3.444 3.621.55a2.14 2.14 0 0 1 1.71 1.454 2.21 2.21 0 0 1-.515 2.26l-2.648 2.693.626 3.812a2.191 2.191 0 0 1-.892 2.163 2.1 2.1 0 0 1-1.214.389ZM9 13.957c.331 0 .662.083.964.249l3.228 1.771c.023.015.054.029.108-.007.036-.025.094-.087.075-.206l-.626-3.812c-.104-.627.1-1.273.547-1.727l2.646-2.692c.08-.082.058-.184.044-.224-.033-.1-.093-.11-.112-.112l-3.622-.55a1.99 1.99 0 0 1-1.508-1.123L9.115 2.082c-.02-.045-.21-.045-.23 0L7.256 5.525a1.992 1.992 0 0 1-1.509 1.121l-3.62.55c-.02.003-.08.013-.113.112a.216.216 0 0 0 .045.225l2.645 2.691c.447.454.65 1.1.547 1.727l-.626 3.812c-.02.12.04.181.075.206.054.037.083.023.109.007l3.228-1.772c.302-.165.632-.248.963-.248Z" fill="var(--iconFill, #464646)"/></svg>