<svg xmlns="http://www.w3.org/2000/svg" width="18" height="18" viewBox="0 0 18 18"><path d="M16 4H7a1 1 0 1 1 0-2h9a1 1 0 1 1 0 2ZM16 10H7a1 1 0 1 1 0-2h9a1 1 0 1 1 0 2ZM16 16H7a1 1 0 1 1 0-2h9a1 1 0 1 1 0 2ZM1.994 5c-.05 0-.057-.012-.057-.057V2.077a2.365 2.365 0 0 1-.48.1c-.05 0-.063-.007-.063-.05V1.44c0-.038.007-.05.044-.063.25-.044.525-.144.794-.312.03-.025.075-.025.112-.025h.619c.03 0 .037.012.037.043v3.86C3 4.988 2.987 5 2.95 5h-.956ZM1.057 11C1 11 1 10.975 1 10.937v-.612c0-.056 0-.075.031-.093.276-.163.469-.294.956-.693.55-.457.663-.782.663-1.032 0-.374-.232-.561-.644-.561-.288 0-.581.075-.837.193-.044.02-.069.013-.069-.031v-.78c0-.038.012-.057.044-.076.3-.15.669-.23 1.143-.23.968 0 1.48.618 1.48 1.311 0 .456-.15.887-.75 1.399-.18.163-.286.25-.468.374.237-.012.538-.018.869-.018h.524c.05 0 .063.012.057.05l-.182.8c-.013.05-.031.062-.075.062H1.058ZM1.826 15.401c-.043 0-.063-.013-.063-.05v-.806c0-.05 0-.081.057-.081h.38c.382 0 .556-.063.556-.25 0-.225-.218-.319-.618-.319-.294 0-.605.057-.893.187-.043.02-.062.007-.062-.024v-.787c0-.032 0-.056.043-.075.338-.162.7-.225 1.156-.225.849 0 1.43.425 1.43 1.074a.853.853 0 0 1-.487.8c.281.1.675.375.675.905C4 16.557 3.244 17 2.244 17c-.386 0-.756-.044-1.087-.194-.055-.025-.05-.069-.05-.106v-.844c0-.037.038-.037.07-.024.374.168.699.243 1.03.243.5 0 .675-.168.675-.35 0-.206-.17-.324-.606-.324h-.45Z" fill="var(--iconFill, #464646)"/></svg>