<svg xmlns="http://www.w3.org/2000/svg" width="18" height="18" viewBox="0 0 18 18"><path d="m10.964 9.267.533-1.933H14.5l.538 1.935a1 1 0 0 0 1.927-.536l-1.947-7C14.776.695 13.962 0 12.994 0c-.97 0-1.784.698-2.015 1.695l-1.943 7.04a1 1 0 1 0 1.928.53Zm1.953-7.079c.03-.126.075-.18.062-.189.016.01.062.064.101.229l.863 3.106H12.05l.868-3.146ZM5.007 10.001c1.452 0 1.93-1.329 2.014-1.695l1.943-7.04A1 1 0 0 0 9 1c0-.321-.25-1-1.002-1a1 1 0 0 0-.962.735L5.083 7.813c-.026.112-.064.167-.064.185-.013-.005-.06-.059-.099-.224L2.964.734a1 1 0 0 0-.965-.732C1.247.002 1 .675 1 1a1 1 0 0 0 .037.269l1.946 7c.242 1.037 1.055 1.732 2.024 1.732ZM1.293 14.707l2 2a.997.997 0 0 0 1.414 0 1 1 0 0 0 0-1.414L4.414 15h9.172l-.293.293a1 1 0 1 0 1.414 1.414l2-2a1 1 0 0 0 0-1.414l-2-2a1 1 0 1 0-1.414 1.414l.293.293H4.414l.293-.293a1 1 0 1 0-1.414-1.414l-2 2a1 1 0 0 0 0 1.414Z" fill="var(--iconFill, #464646)"/></svg>