<svg xmlns="http://www.w3.org/2000/svg" width="18" height="18" viewBox="0 0 18 18"><path d="M17.707 16.293 11.404 9.99c.033.002.063.01.096.01h1A1.5 1.5 0 0 0 14 8.5v-1A1.5 1.5 0 0 0 12.5 6h-1A1.5 1.5 0 0 0 10 7.5v1c0 .033.008.063.01.096L7.992 6.578C7.994 6.552 8 6.527 8 6.5v-1A1.5 1.5 0 0 0 6.5 4h-1c-.027 0-.052.006-.078.008L1.707.293A1 1 0 1 0 .293 1.707l1.546 1.546A4.957 4.957 0 0 0 1 6v6c0 2.757 2.243 5 5 5h6a4.99 4.99 0 0 0 2.65-.76c.037-.023.058-.059.09-.085l1.553 1.552a.997.997 0 0 0 1.414 0 1 1 0 0 0 0-1.414ZM12 15H6c-1.654 0-3-1.346-3-3V6c0-.453.106-.889.297-1.289l.71.71c0 .027-.007.052-.007.079v1A1.5 1.5 0 0 0 5.5 8h1c.027 0 .052-.006.078-.008l6.712 6.712c-.4.192-.84.296-1.29.296Z" fill="var(--iconFill, #464646)"/><path d="M6 3h6c1.654 0 3 1.346 3 3v6a1 1 0 1 0 2 0V6c0-2.757-2.243-5-5-5H6a1 1 0 1 0 0 2Z" fill="var(--iconFill, #464646)"/><rect x="5" y="10" width="4" height="4" rx="1.5" ry="1.5" fill="var(--iconFill, #464646)"/></svg>