<svg xmlns="http://www.w3.org/2000/svg" width="18" height="18" viewBox="0 0 18 18"><path d="M10.414 11.828a1 1 0 0 0-1.414 0L6.879 13.95a2.004 2.004 0 0 1-2.83 0 2.004 2.004 0 0 1 0-2.829L6.173 9a1 1 0 1 0-1.414-1.414L2.636 9.707a4.007 4.007 0 0 0 0 5.657c.78.78 1.803 1.17 2.828 1.17s2.049-.39 2.829-1.17l2.121-2.122a1 1 0 0 0 0-1.414ZM15.364 2.636a4.007 4.007 0 0 0-5.657 0L7.586 4.758A1 1 0 1 0 9 6.172l2.121-2.122a2.004 2.004 0 0 1 2.83 0c.778.78.778 2.049 0 2.829L11.827 9a1 1 0 1 0 1.414 1.414l2.122-2.121a4.007 4.007 0 0 0 0-5.657ZM2.586 4A.997.997 0 0 0 4 4a1 1 0 0 0 0-1.414L2.707 1.293a1 1 0 1 0-1.414 1.414L2.586 4ZM2.208 8.207a1 1 0 0 0 .168-1.985l-1.207-.207a1 1 0 1 0-.338 1.97l1.207.207c.057.01.114.015.17.015ZM6.624 3.192a1 1 0 0 0 1.154-.816l.207-1.207a.999.999 0 1 0-1.97-.338l-.207 1.207a.999.999 0 0 0 .816 1.154ZM15.414 14A1 1 0 1 0 14 15.414l1.293 1.293a.997.997 0 0 0 1.414 0 1 1 0 0 0 0-1.414L15.414 14ZM17.169 10.015l-1.207-.207a1 1 0 1 0-.338 1.97l1.207.207a1 1 0 1 0 .338-1.97ZM11.376 14.808a1.004 1.004 0 0 0-1.154.816l-.207 1.207a.999.999 0 1 0 1.97.338l.207-1.207a.999.999 0 0 0-.816-1.154Z" fill="var(--iconFill, #464646)"/></svg>