<svg xmlns="http://www.w3.org/2000/svg" width="18" height="18" viewBox="0 0 18 18"><path d="M8 7c0 2.206 1.794 4 4 4s4-1.794 4-4-1.794-4-4-4-4 1.794-4 4Zm4-2c1.103 0 2 .897 2 2s-.897 2-2 2-2-.897-2-2 .897-2 2-2ZM12 12c-3.61 0-6 2.94-6 4a1.001 1.001 0 0 0 1.893.448C8.64 14.961 10.252 14 12 14c1.747 0 3.358.96 4.106 2.448a1 1 0 0 0 1.894-.45C18 14.976 15.684 12 12 12ZM6 8a1 1 0 1 0 0-2c-1.103 0-2-.897-2-2s.897-2 2-2c.597 0 1.157.263 1.538.722a1 1 0 0 0 1.54-1.278A3.989 3.989 0 0 0 6 0C3.794 0 2 1.794 2 4s1.794 4 4 4ZM7.083 11.1c.49 0 1-.393 1-1.001C8.084 9.05 6.874 9 6 9c-3.609 0-6 2.94-6 4a1.001 1.001 0 0 0 1.894.448C2.64 11.961 4.252 11 6 11c.63 0 .864.1 1.083.1Z" fill="var(--iconFill, #464646)"/></svg>