<svg xmlns="http://www.w3.org/2000/svg" width="18" height="18" viewBox="0 0 18 18"><path d="M8.974 2C4.066 2 0 6.99 0 9.055 0 11.475 4.27 16 8.974 16 13.578 16 18 11.495 18 9.005 18 6.584 13.616 2 8.974 2ZM16 9.005C16 9.824 13.047 14 8.976 14 4.924 14 2 9.87 2 9.055 2 8.267 5.044 4 8.976 4 13.007 4 16 8.187 16 9.005Z" fill="var(--iconFill, #464646)"/><path d="M9 6C7.346 6 6 7.346 6 9s1.346 3 3 3 3-1.346 3-3-1.346-3-3-3Zm0 4a1 1 0 1 1 .001-2.001A1 1 0 0 1 9 10Z" fill="var(--iconFill, #464646)"/></svg>