<svg xmlns="http://www.w3.org/2000/svg" width="18" height="18" viewBox="0 0 18 18"><path d="M7.547 4.158c.23 0 .617-.152 1.418-.152C12.955 4.006 16 8.26 16 9.055c0 .937-1.248 1.607-1.248 2.394 0 .421.33 1 1 1a.998.998 0 0 0 .77-.361c1.14-1.373 1.475-2.06 1.475-3.034 0-2.035-4.063-7.048-9.03-7.048-1.234 0-2.412.13-2.412 1.15 0 .514.414 1.002.993 1.002Z" fill="var(--iconFill, #464646)"/><path d="M18 17a.997.997 0 0 0-.293-.707l-6.002-6.001c.19-.393.304-.828.304-1.292 0-1.654-1.345-3-3-3-.464 0-.898.115-1.291.304L1.707.293A1 1 0 0 0 .293 1.707L3.016 4.43C2.33 5.021 0 7.174 0 9.006 0 11.414 4.296 16 9.024 16c1.818 0 3.176-.554 4.34-1.223l2.929 2.93A1 1 0 0 0 18 17Zm-8.91-3.011c-4.126 0-7.089-4.155-7.089-4.984 0-.862 1.775-2.605 2.434-3.156l1.872 1.872c-.186.39-.298.82-.298 1.279 0 1.654 1.346 3 3 3 .46 0 .89-.112 1.28-.297l1.606 1.606c-.869.422-1.74.68-2.804.68Z" fill="var(--iconFill, #464646)"/></svg>