<svg xmlns="http://www.w3.org/2000/svg" width="18" height="18" viewBox="0 0 18 18"><path d="M12.555 6.168a1 1 0 1 0-1.11 1.664c.342.229.555.676.555 1.168s-.213.94-.555 1.168a1 1 0 1 0 1.11 1.664C13.46 11.229 14 10.17 14 9s-.54-2.229-1.445-2.832ZM8.964 1.248a1.995 1.995 0 0 0-2.034.064c-.052.032-2.748 2.52-2.748 2.52C3.874 3.934 3 3.987 3 3.987c-1.654 0-3 1.347-3 3.002v4.004a3.005 3.005 0 0 0 3 3.003s.714.043 1.078.127c.069.016.125.05.177.098.438.406 2.627 2.44 2.675 2.468a1.996 1.996 0 0 0 2.034.064A2.002 2.002 0 0 0 10 14.999V3.002c0-.73-.396-1.402-1.036-1.754ZM8 15l-2.542-2.379-.434-.28a4.958 4.958 0 0 0-1.795-.334H3c-.55 0-1-.452-1-1.007V6.98c0-.553.45-1.005 1-1.005h.23a4.96 4.96 0 0 0 1.877-.368l.288-.187L8 3v12Z" fill="var(--iconFill, #464646)"/></svg>