<svg xmlns="http://www.w3.org/2000/svg" width="18" height="18" viewBox="0 0 18 18"><path d="M12 9a1 1 0 1 0 2 0c0-1.17-.54-2.229-1.445-2.832a1 1 0 1 0-1.11 1.664c.342.229.555.676.555 1.168ZM15.806 4.668a1 1 0 0 0-1.112 1.664C15.5 6.869 16 7.892 16 9c0 .844-.28 1.629-.788 2.21a1 1 0 0 0 1.506 1.316C17.545 11.581 18 10.328 18 9c0-1.768-.84-3.428-2.194-4.332ZM5.427 4.013 1.707.293A1 1 0 0 0 .293 1.707l2.331 2.331A2.994 2.994 0 0 0 0 7v4c0 1.654 1.346 3 3 3h.23c.326 0 .645.052.95.154l2.604 2.42c.41.383 1.06.422 1.216.422a2 2 0 0 0 2-2v-3.582l6.293 6.293a1 1 0 0 0 1.414-1.414L5.427 4.013ZM8 14.973l-2.604-2.42c-.3-.28-1.263-.553-2.167-.553H3a1 1 0 0 1-1-1V7a1 1 0 0 1 1-1h.23c.407 0 .804-.066 1.194-.162L8 9.414v5.559ZM7.233 3.745 8 3.036v1.881a1 1 0 1 0 2 0V3.014a1.998 1.998 0 0 0-3.07-1.69c-.051.032-.1.07-.144.11l-.91.842a1 1 0 0 0 1.357 1.47Z" fill="var(--iconFill, #464646)"/></svg>