<svg xmlns="http://www.w3.org/2000/svg" width="18" height="18" viewBox="0 0 18 18"><path d="M12 8h-2V6a1 1 0 1 0-2 0v2H6a1 1 0 1 0 0 2h2v2a1 1 0 1 0 2 0v-2h2a1 1 0 1 0 0-2Z" fill="var(--iconFill, #464646)"/><path d="M15.323 13.882A7.95 7.95 0 0 0 17 9c0-4.411-3.589-7.98-8-7.98S1.02 4.589 1.02 9 4.589 17 9 17a7.951 7.951 0 0 0 4.913-1.7l2.376 2.403A.994.994 0 0 0 17 18a1 1 0 0 0 .71-1.703l-2.387-2.415ZM9 15c-3.309 0-6-2.691-6-6s2.691-6 6-6 6 2.691 6 6-2.691 6-6 6Z" fill="var(--iconFill, #464646)"/></svg>