<svg xmlns="http://www.w3.org/2000/svg" height="36" viewBox="0 0 36 36" width="36"><path opacity=".9" fill="#707070" d="M4 32v-2h28v2z"/><path opacity=".8" fill="#707070" d="M4 30v-2h28v2z"/><path opacity=".7" fill="#707070" d="M4 28v-2h28v2z"/><path opacity=".6" fill="#707070" d="M4 26v-2h28v2z"/><path opacity=".5" fill="#707070" d="M4 24v-2h28v2z"/><path opacity=".4" fill="#707070" d="M4 22v-2h28v2z"/><path opacity=".25" fill="#707070" d="M4 16v-2h28v2z"/><path opacity=".3" fill="#707070" d="M4 18v-2h28v2z"/><path opacity=".35" fill="#707070" d="M4 20v-2h28v2z"/><path opacity=".2" fill="#707070" d="M4 14v-2h28v2z"/><path opacity=".15" fill="#707070" d="M4 12v-2h28v2z"/><path opacity=".1" fill="#707070" d="M4 10V8h28v2z"/><path opacity=".05" fill="#707070" d="M4 8V6h28v2z"/><path d="M3 34h30a1 1 0 001-1V3a1 1 0 00-1-1H3a1 1 0 00-1 1v30a1 1 0 001 1zM32 4v28H4V4z" fill="#707070"/></svg>