<svg xmlns="http://www.w3.org/2000/svg" width="36" height="36" viewBox="0 0 36 36"><g><path d="M33 6h-5V3a1 1 0 0 0-1-1h-2a1 1 0 0 0-1 1v3H10V3a1 1 0 0 0-1-1H7a1 1 0 0 0-1 1v3H1a1 1 0 0 0-1 1v26a1 1 0 0 0 1 1h32a1 1 0 0 0 1-1V7a1 1 0 0 0-1-1Zm-1 26H2V8h4v1a1 1 0 0 0 1 1h2a1 1 0 0 0 1-1V8h14v1a1 1 0 0 0 1 1h2a1 1 0 0 0 1-1V8h4Z"/><path d="M6 12h4v4H6zM12 12h4v4h-4zM18 12h4v4h-4zM24 12h4v4h-4zM6 18h4v4H6zM12 18h4v4h-4zM18 18h4v4h-4zM24 18h4v4h-4zM6 24h4v4H6zM12 24h4v4h-4zM18 24h4v4h-4zM24 24h4v4h-4z"/></g></svg>