<svg xmlns="http://www.w3.org/2000/svg" height="36" viewBox="0 0 36 36" width="36"><path d="M11.165 15.938 0 7.511v16.684l11.165-8.257zM34.925 24.678H32.61a6.69 6.69 0 0 0-.977-2.373l1.648-1.648a.661.661 0 0 0 0-.935l-1-1a.661.661 0 0 0-.935 0L29.7 20.368a6.693 6.693 0 0 0-2.373-.978v-2.314a.661.661 0 0 0-.661-.661h-1.327a.661.661 0 0 0-.661.661v2.315a6.692 6.692 0 0 0-2.373.978l-1.648-1.649a.661.661 0 0 0-.935 0l-1 1a.661.661 0 0 0 0 .935l1.648 1.648a6.69 6.69 0 0 0-.977 2.373h-2.317a.661.661 0 0 0-.661.661v1.322a.661.661 0 0 0 .661.661h2.315a6.69 6.69 0 0 0 .977 2.373l-1.648 1.651a.661.661 0 0 0 0 .935l1 1a.661.661 0 0 0 .935 0l1.648-1.648a6.692 6.692 0 0 0 2.373.977v2.315a.661.661 0 0 0 .661.661h1.322a.661.661 0 0 0 .661-.661V32.61a6.693 6.693 0 0 0 2.373-.977l1.648 1.648a.661.661 0 0 0 .935 0l1-1a.661.661 0 0 0 0-.935L31.632 29.7a6.69 6.69 0 0 0 .977-2.373h2.315a.661.661 0 0 0 .661-.661v-1.327a.661.661 0 0 0-.66-.661ZM26 29.6a3.6 3.6 0 1 1 3.6-3.6 3.6 3.6 0 0 1-3.6 3.6Z"/><path d="M16.953 29.72a3.065 3.065 0 0 1-2.94-3.059v-1.322a3.065 3.065 0 0 1 2.938-3.059 3.044 3.044 0 0 1-.826-2.091 3.114 3.114 0 0 1 .049-.5l-3.092-2.317L0 27.068v1.765A1.147 1.147 0 0 0 1.125 30h15.649a2.888 2.888 0 0 1 .179-.28ZM18.025 17.022a3.039 3.039 0 0 1 2.164-.9 3.013 3.013 0 0 1 .443.084L36 4.665v-1.5A1.147 1.147 0 0 0 34.875 2H1.125A1.147 1.147 0 0 0 0 3.167v1.468L17.351 17.7ZM29.721 16.952a3.061 3.061 0 0 1 4.25.064l1.008 1.008a3.071 3.071 0 0 1 .072 4.256 3.02 3.02 0 0 1 .949.206V7.541l-8.714 6.54a3.066 3.066 0 0 1 2.435 2.871ZM11.165 15.938 0 7.511v16.684l11.165-8.257z"/><path d="M34.925 24.678H32.61a6.69 6.69 0 0 0-.977-2.373l1.648-1.648a.661.661 0 0 0 0-.935l-1-1a.661.661 0 0 0-.935 0L29.7 20.368a6.693 6.693 0 0 0-2.373-.978v-2.314a.661.661 0 0 0-.661-.661h-1.327a.661.661 0 0 0-.661.661v2.315a6.692 6.692 0 0 0-2.373.978l-1.648-1.649a.661.661 0 0 0-.935 0l-1 1a.661.661 0 0 0 0 .935l1.648 1.648a6.69 6.69 0 0 0-.977 2.373h-2.317a.661.661 0 0 0-.661.661v1.322a.661.661 0 0 0 .661.661h2.315a6.69 6.69 0 0 0 .977 2.373l-1.648 1.651a.661.661 0 0 0 0 .935l1 1a.661.661 0 0 0 .935 0l1.648-1.648a6.692 6.692 0 0 0 2.373.977v2.315a.661.661 0 0 0 .661.661h1.322a.661.661 0 0 0 .661-.661V32.61a6.693 6.693 0 0 0 2.373-.977l1.648 1.648a.661.661 0 0 0 .935 0l1-1a.661.661 0 0 0 0-.935L31.632 29.7a6.69 6.69 0 0 0 .977-2.373h2.315a.661.661 0 0 0 .661-.661v-1.327a.661.661 0 0 0-.66-.661ZM26 29.6a3.6 3.6 0 1 1 3.6-3.6 3.6 3.6 0 0 1-3.6 3.6Z"/><path d="M16.953 29.72a3.065 3.065 0 0 1-2.94-3.059v-1.322a3.065 3.065 0 0 1 2.938-3.059 3.044 3.044 0 0 1-.826-2.091 3.114 3.114 0 0 1 .049-.5l-3.092-2.317L0 27.068v1.765A1.147 1.147 0 0 0 1.125 30h15.649a2.888 2.888 0 0 1 .179-.28ZM18.025 17.022a3.039 3.039 0 0 1 2.164-.9 3.013 3.013 0 0 1 .443.084L36 4.665v-1.5A1.147 1.147 0 0 0 34.875 2H1.125A1.147 1.147 0 0 0 0 3.167v1.468L17.351 17.7ZM29.721 16.952a3.061 3.061 0 0 1 4.25.064l1.008 1.008a3.071 3.071 0 0 1 .072 4.256 3.02 3.02 0 0 1 .949.206V7.541l-8.714 6.54a3.066 3.066 0 0 1 2.435 2.871Z"/></svg>