<svg xmlns="http://www.w3.org/2000/svg" height="36" viewBox="0 0 36 36" width="36"><path d="M14.74 28H6v-6h9.76a12.256 12.256 0 0 1 1.126-2H6v-6h24v1.069a12.216 12.216 0 0 1 2 .69V5a1 1 0 0 0-1-1H5a1 1 0 0 0-1 1v24a1 1 0 0 0 1 1h10.069a12.246 12.246 0 0 1-.329-2ZM6 6h24v6H6Z"/><path d="M27 18.1a8.9 8.9 0 1 0 8.9 8.9 8.9 8.9 0 0 0-8.9-8.9Zm5 9.4a.5.5 0 0 1-.5.5H28v3.5a.5.5 0 0 1-.5.5h-1a.5.5 0 0 1-.5-.5V28h-3.5a.5.5 0 0 1-.5-.5v-1a.5.5 0 0 1 .5-.5H26v-3.5a.5.5 0 0 1 .5-.5h1a.5.5 0 0 1 .5.5V26h3.5a.5.5 0 0 1 .5.5Z"/></svg>