<svg xmlns="http://www.w3.org/2000/svg" height="36" viewBox="0 0 36 36" width="36"><path d="M14.8 27a13.146 13.146 0 0 1 3.2-8.411C20.083 15.9 29.733 3.617 29.733 3.617A1 1 0 0 0 28.946 2H1.054a1 1 0 0 0-.787 1.617L12 18.589V33.9a.992.992 0 0 0 1.68.825l2.338-2.439A12.131 12.131 0 0 1 14.8 27Z"/><path d="M27 18.1a8.9 8.9 0 1 0 8.9 8.9 8.9 8.9 0 0 0-8.9-8.9Zm5 9.4a.5.5 0 0 1-.5.5H28v3.5a.5.5 0 0 1-.5.5h-1a.5.5 0 0 1-.5-.5V28h-3.5a.5.5 0 0 1-.5-.5v-1a.5.5 0 0 1 .5-.5H26v-3.5a.5.5 0 0 1 .5-.5h1a.5.5 0 0 1 .5.5V26h3.5a.5.5 0 0 1 .5.5Z"/></svg>