<svg xmlns="http://www.w3.org/2000/svg" height="36" viewBox="0 0 36 36" width="36"><path d="M12 8H0V5a1 1 0 0 1 1-1h6.586a1 1 0 0 1 .707.293ZM14.7 27.1A12.287 12.287 0 0 1 32 15.869V11a1 1 0 0 0-1-1H0v21a1 1 0 0 0 1 1h14.721a12.251 12.251 0 0 1-1.021-4.9Zm-6.7.4a.5.5 0 0 1-.5.5h-3a.5.5 0 0 1-.5-.5v-13a.5.5 0 0 1 .5-.5h3a.5.5 0 0 1 .5.5Zm6 0a.5.5 0 0 1-.5.5h-3a.5.5 0 0 1-.5-.5v-9a.5.5 0 0 1 .5-.5h3a.5.5 0 0 1 .5.5Z"/><path d="M27 18.1a8.9 8.9 0 1 0 8.9 8.9 8.9 8.9 0 0 0-8.9-8.9Zm5 9.4a.5.5 0 0 1-.5.5H28v3.5a.5.5 0 0 1-.5.5h-1a.5.5 0 0 1-.5-.5V28h-3.5a.5.5 0 0 1-.5-.5v-1a.5.5 0 0 1 .5-.5H26v-3.5a.5.5 0 0 1 .5-.5h1a.5.5 0 0 1 .5.5V26h3.5a.5.5 0 0 1 .5.5Z"/></svg>