<svg xmlns="http://www.w3.org/2000/svg" height="36" viewBox="0 0 36 36" width="36"><path d="M15.769 32H14v-4h.75c-.026-.331-.05-.662-.05-1s.023-.669.05-1H14v-4h1.769a12.338 12.338 0 0 1 1.124-2H14v-4h7.52a12.242 12.242 0 0 1 12.48.893V3a1 1 0 0 0-1-1H3a1 1 0 0 0-1 1v30a1 1 0 0 0 1 1h13.893a12.338 12.338 0 0 1-1.124-2ZM4 4h28v10H4Zm8 28H4v-4h8Zm0-6H4v-4h8Zm0-6H4v-4h8Z"/><path d="M27 18.1a8.9 8.9 0 1 0 8.9 8.9 8.9 8.9 0 0 0-8.9-8.9Zm5 9.4a.5.5 0 0 1-.5.5H28v3.5a.5.5 0 0 1-.5.5h-1a.5.5 0 0 1-.5-.5V28h-3.5a.5.5 0 0 1-.5-.5v-1a.5.5 0 0 1 .5-.5H26v-3.5a.5.5 0 0 1 .5-.5h1a.5.5 0 0 1 .5.5V26h3.5a.5.5 0 0 1 .5.5Z"/></svg>