<svg xmlns="http://www.w3.org/2000/svg" height="48" viewBox="0 0 48 48" width="48"><path d="M44 6H4a2 2 0 00-2 2v32a2 2 0 002 2h40a2 2 0 002-2V8a2 2 0 00-2-2zm-2 32H6V10h36z" fill="#707070"/><path opacity=".8" fill="#707070" d="M8 10h2v28H8z"/><path opacity=".9" fill="#707070" d="M6 10h2v28H6z"/><path opacity=".75" fill="#707070" d="M10 10h2v28h-2z"/><path opacity=".7" fill="#707070" d="M12 10h2v28h-2z"/><path opacity=".65" fill="#707070" d="M14 10h2v28h-2z"/><path opacity=".6" fill="#707070" d="M16 10h2v28h-2z"/><path opacity=".55" fill="#707070" d="M18 10h2v28h-2z"/><path opacity=".5" fill="#707070" d="M20 10h2v28h-2z"/><path opacity=".45" fill="#707070" d="M22 10h2v28h-2z"/><path opacity=".4" fill="#707070" d="M24 10h2v28h-2z"/><path opacity=".35" fill="#707070" d="M26 10h2v28h-2z"/><path opacity=".3" fill="#707070" d="M28 10h2v28h-2z"/><path opacity=".25" fill="#707070" d="M30 10h2v28h-2z"/><path opacity=".2" fill="#707070" d="M32 10h2v28h-2z"/><path opacity=".15" fill="#707070" d="M34 10h2v28h-2z"/><path opacity=".1" fill="#707070" d="M36 10h2v28h-2z"/><path opacity=".05" fill="#707070" d="M38 10h2v28h-2z"/></svg>