<svg xmlns="http://www.w3.org/2000/svg" height="48" viewBox="0 0 48 48" width="48"><path d="M8 8h32v32H8zM4 6v36a2 2 0 002 2h36a2 2 0 002-2V6a2 2 0 00-2-2H6a2 2 0 00-2 2z" fill="#707070"/><path opacity=".75" fill="#707070" d="M8 40v-2h32v2z"/><path opacity=".7" fill="#707070" d="M8 38v-2h32v2z"/><path opacity=".65" fill="#707070" d="M8 36v-2h32v2z"/><path opacity=".6" fill="#707070" d="M8 34v-2h32v2z"/><path opacity=".55" fill="#707070" d="M8 32v-2h32v2z"/><path opacity=".5" fill="#707070" d="M8 30v-2h32v2z"/><path opacity=".45" fill="#707070" d="M8 28v-2h32v2z"/><path opacity=".4" fill="#707070" d="M8 26v-2h32v2z"/><path opacity=".35" fill="#707070" d="M8 24v-2h32v2z"/><path opacity=".3" fill="#707070" d="M8 22v-2h32v2z"/><path opacity=".25" fill="#707070" d="M8 20v-2h32v2z"/><path opacity=".2" fill="#707070" d="M8 18v-2h32v2z"/><path opacity=".15" fill="#707070" d="M8 16v-2h32v2z"/><path opacity=".1" fill="#707070" d="M8 14v-2h32v2z"/><path opacity=".05" fill="#707070" d="M8 12v-2h32v2z"/></svg>