<svg xmlns="http://www.w3.org/2000/svg" height="36" viewBox="0 0 36 36" width="36"><path d="M27 18.1a8.9 8.9 0 1 0 8.9 8.9 8.9 8.9 0 0 0-8.9-8.9Zm-2.338 14.312-4.128-4.128a.5.5 0 0 1 0-.707l1.036-1.036a.5.5 0 0 1 .707 0l2.731 2.731 6.106-6.106a.5.5 0 0 1 .707 0l1.043 1.043a.5.5 0 0 1 0 .707l-7.5 7.5a.5.5 0 0 1-.702-.004Z"/><path d="M14.7 27a12.229 12.229 0 0 1 1.34-5.563l-9.312 2.927L12 14.453V4h8v10.454l.98 1.825a12.231 12.231 0 0 1 1.77-.81L22 14V4h1a1 1 0 0 0 1-1V1a1 1 0 0 0-1-1H9a1 1 0 0 0-1 1v2a1 1 0 0 0 1 1h1v10L.928 31.759A3 3 0 0 0 3.659 36h14.977a12.252 12.252 0 0 1-3.936-9Z"/></svg>