<svg xmlns="http://www.w3.org/2000/svg" height="36" viewBox="0 0 36 36" width="36"><path d="M15.084 28H14V18h2.893a12.368 12.368 0 0 1 1.743-2H14V6h8v7.769a12.2 12.2 0 0 1 2-.685V6h8v7.769a12.274 12.274 0 0 1 2 1.124V5a1 1 0 0 0-1-1H3a1 1 0 0 0-1 1v24a1 1 0 0 0 1 1h12.769a12.2 12.2 0 0 1-.685-2ZM12 28H4V18h8Zm0-12H4V6h8Z"/><path d="M27 16.1a8.9 8.9 0 1 0 8.9 8.9 8.9 8.9 0 0 0-8.9-8.9Zm-2.338 14.312-4.128-4.127a.5.5 0 0 1 0-.707l1.036-1.036a.5.5 0 0 1 .707 0l2.731 2.731 6.106-6.106a.5.5 0 0 1 .707 0l1.043 1.043a.5.5 0 0 1 0 .707l-7.5 7.5a.5.5 0 0 1-.702-.005Z"/></svg>