<svg xmlns="http://www.w3.org/2000/svg" height="36" viewBox="0 0 36 36" width="36"><path d="M14.8 27a13.146 13.146 0 0 1 3.2-8.411c2.083-2.694 11.733-14.972 11.733-14.972A1 1 0 0 0 28.946 2H1.054a1 1 0 0 0-.787 1.617L12 18.589V33.9a.992.992 0 0 0 1.68.825l2.338-2.439A12.131 12.131 0 0 1 14.8 27Z"/><path d="M27 18.1a8.9 8.9 0 1 0 8.9 8.9 8.9 8.9 0 0 0-8.9-8.9Zm-2.338 14.312-4.128-4.127a.5.5 0 0 1 0-.707l1.036-1.036a.5.5 0 0 1 .707 0l2.731 2.731 6.106-6.106a.5.5 0 0 1 .707 0l1.043 1.043a.5.5 0 0 1 0 .707l-7.5 7.5a.5.5 0 0 1-.702-.005Z"/></svg>