<svg xmlns="http://www.w3.org/2000/svg" height="36" viewBox="0 0 36 36" width="36"><path d="M4 6h2v24H4z"/><path d="M6 6h2v24H6z"/><path d="M8 6h2v24H8z"/><path d="M10 6h2v24h-2z"/><path d="M12 6h2v24h-2z"/><path d="M14 6h2v24h-2z"/><path d="M20 6h2v24h-2z"/><path d="M18 6h2v24h-2z"/><path d="M16 6h2v24h-2z"/><path d="M22 6h2v24h-2z"/><path d="M24 6h2v24h-2z"/><path d="M26 6h2v24h-2z"/><path d="M28 6h2v24h-2z"/><path d="M2 5v26a1 1 0 0 0 1 1h30a1 1 0 0 0 1-1V5a1 1 0 0 0-1-1H3a1 1 0 0 0-1 1Zm30 25H4V6h28Z"/></svg>