<svg xmlns="http://www.w3.org/2000/svg" height="36" viewBox="0 0 36 36" width="36"><path d="M4 32v-2h28v2z"/><path d="M4 30v-2h28v2z"/><path d="M4 28v-2h28v2z"/><path d="M4 26v-2h28v2z"/><path d="M4 24v-2h28v2z"/><path d="M4 22v-2h28v2z"/><path d="M4 16v-2h28v2z"/><path d="M4 18v-2h28v2z"/><path d="M4 20v-2h28v2z"/><path d="M4 14v-2h28v2z"/><path d="M4 12v-2h28v2z"/><path d="M4 10V8h28v2z"/><path d="M4 8V6h28v2z"/><path d="M3 34h30a1 1 0 0 0 1-1V3a1 1 0 0 0-1-1H3a1 1 0 0 0-1 1v30a1 1 0 0 0 1 1ZM32 4v28H4V4Z"/></svg>