<svg xmlns="http://www.w3.org/2000/svg" height="36" viewBox="0 0 36 36" width="36"><path d="M14 8H2V5a1 1 0 0 1 1-1h6.586a1 1 0 0 1 .707.293ZM33 10H2v21a1 1 0 0 0 1 1h30a1 1 0 0 0 1-1V11a1 1 0 0 0-1-1ZM10 27.5a.5.5 0 0 1-.5.5h-3a.5.5 0 0 1-.5-.5v-13a.5.5 0 0 1 .5-.5h3a.5.5 0 0 1 .5.5Zm6 0a.5.5 0 0 1-.5.5h-3a.5.5 0 0 1-.5-.5v-9a.5.5 0 0 1 .5-.5h3a.5.5 0 0 1 .5.5Zm6 0a.5.5 0 0 1-.5.5h-3a.5.5 0 0 1-.5-.5v-5a.5.5 0 0 1 .5-.5h3a.5.5 0 0 1 .5.5Zm6 0a.5.5 0 0 1-.5.5h-3a.5.5 0 0 1-.5-.5v-1a.5.5 0 0 1 .5-.5h3a.5.5 0 0 1 .5.5Z"/></svg>