<svg xmlns="http://www.w3.org/2000/svg" height="36" viewBox="0 0 36 36" width="36"><path d="M27 18.1a8.9 8.9 0 1 0 8.9 8.9 8.9 8.9 0 0 0-8.9-8.9ZM20 27a6.934 6.934 0 0 1 1.475-4.252l9.777 9.777A6.966 6.966 0 0 1 20 27Zm12.525 4.252-9.777-9.777a6.966 6.966 0 0 1 9.777 9.777ZM18 18.188 36 4.665v-1.5A1.147 1.147 0 0 0 34.875 2H1.125A1.147 1.147 0 0 0 0 3.167v1.469ZM11.165 15.938 0 7.512v16.683l11.165-8.257zM14.7 27a12.244 12.244 0 0 1 2.092-6.863c-.025-.018-.057-.024-.082-.043l-3.628-2.719L0 27.068v1.765A1.147 1.147 0 0 0 1.125 30h13.959a12.273 12.273 0 0 1-.384-3ZM27 14.7a12.253 12.253 0 0 1 9 3.935V7.541l-9.577 7.188c.193-.009.382-.029.577-.029Z"/></svg>