<svg xmlns="http://www.w3.org/2000/svg" height="36" viewBox="0 0 36 36" width="36"><rect height="4" rx="1" ry="1" width="4" x="2" y="2"/><rect height="4" rx="1" ry="1" width="22" x="10" y="2"/><rect height="4" rx="1" ry="1" width="4" x="2" y="10"/><rect height="4" rx="1" ry="1" width="22" x="10" y="10"/><rect height="4" rx="1" ry="1" width="4" x="2" y="18"/><rect height="4" rx="1" ry="1" width="4" x="2" y="26"/><path d="m35.668 26.106-9.88-9.879a.772.772 0 0 0-.546-.227h-8.47a.772.772 0 0 0-.772.772v8.471a.772.772 0 0 0 .226.546l9.879 9.88a.772.772 0 0 0 1.092 0l8.471-8.469a.772.772 0 0 0 0-1.094ZM20.4 22.948a2.548 2.548 0 1 1 2.548-2.548 2.548 2.548 0 0 1-2.548 2.548ZM14.294 27.2c-.332-.332-.223-.756-.353-1.2H11a1 1 0 0 0-1 1v2a1 1 0 0 0 1 1h6.091ZM14 18h-3a1 1 0 0 0-1 1v2a1 1 0 0 0 1 1h3Z"/></svg>