<svg xmlns="http://www.w3.org/2000/svg" height="36" viewBox="0 0 36 36" width="36"><path d="M6.745 12.073H1a1 1 0 0 0-1 1V23a1 1 0 0 0 1 1h5.745a1.428 1.428 0 0 1 .931.345l7.13 7.259A.727.727 0 0 0 16 31.029V5a.726.726 0 0 0-1.194-.571l-7.127 7.3a1.44 1.44 0 0 1-.934.344ZM22.04 18a6.935 6.935 0 0 1-1.407 4.192.98.98 0 0 0 .086 1.288l.016.016a.992.992 0 0 0 1.487-.09 8.955 8.955 0 0 0-.022-10.853.992.992 0 0 0-1.484-.087l-.015.016a.982.982 0 0 0-.085 1.292A6.943 6.943 0 0 1 22.04 18Z"/><path d="M28.04 18a12.938 12.938 0 0 1-3.115 8.435.973.973 0 0 0 .063 1.317l.014.014a1 1 0 0 0 1.474-.069 14.98 14.98 0 0 0-.026-19.429 1 1 0 0 0-1.469-.068l-.014.015a.977.977 0 0 0-.067 1.319A12.937 12.937 0 0 1 28.04 18Z"/></svg>