<svg xmlns="http://www.w3.org/2000/svg" width="22" height="22" viewBox="0 0 22 22"><path d="M7 0H3a3.003 3.003 0 0 0-3 3v4a3.003 3.003 0 0 0 3 3h4a3.003 3.003 0 0 0 3-3V3a3.003 3.003 0 0 0-3-3Zm1 7a1.001 1.001 0 0 1-1 1H3a1.001 1.001 0 0 1-1-1V3a1.001 1.001 0 0 1 1-1h4a1.001 1.001 0 0 1 1 1ZM18 0h-4a3.003 3.003 0 0 0-3 3v4a3.003 3.003 0 0 0 3 3h4a3.003 3.003 0 0 0 3-3V3a3.003 3.003 0 0 0-3-3Zm1 7a1.001 1.001 0 0 1-1 1h-4a1.001 1.001 0 0 1-1-1V3a1.001 1.001 0 0 1 1-1h4a1.001 1.001 0 0 1 1 1ZM7 11H3a3.003 3.003 0 0 0-3 3v4a3.003 3.003 0 0 0 3 3h4a3.003 3.003 0 0 0 3-3v-4a3.003 3.003 0 0 0-3-3Zm1 7a1.001 1.001 0 0 1-1 1H3a1.001 1.001 0 0 1-1-1v-4a1.001 1.001 0 0 1 1-1h4a1.001 1.001 0 0 1 1 1ZM18 11h-4a3.003 3.003 0 0 0-3 3v4a3.003 3.003 0 0 0 3 3h4a3.003 3.003 0 0 0 3-3v-4a3.003 3.003 0 0 0-3-3Zm1 7a1.001 1.001 0 0 1-1 1h-4a1.001 1.001 0 0 1-1-1v-4a1.001 1.001 0 0 1 1-1h4a1.001 1.001 0 0 1 1 1Z"/></svg>