<svg xmlns="http://www.w3.org/2000/svg" width="22" height="22" viewBox="0 0 22 22"><path d="M8.753 9.049a1 1 0 0 0 0-1.414l-.976-.977a2.3 2.3 0 0 0-3.178 0L2 9.257V5a3.003 3.003 0 0 1 3-3h10a3.003 3.003 0 0 1 3 3 1 1 0 0 0 2 0 5.006 5.006 0 0 0-5-5H5a5.006 5.006 0 0 0-5 5v8a5.006 5.006 0 0 0 5 5 1 1 0 0 0 0-2 3.003 3.003 0 0 1-3-3v-.985a.964.964 0 0 0 .207-.137l3.806-3.806a.217.217 0 0 1 .35 0l.976.977a1 1 0 0 0 1.414 0Z"/><circle cx="14.5" cy="5.5" r="1.5"/><path d="M17 8h-4a5.006 5.006 0 0 0-5 5v4a5.006 5.006 0 0 0 5 5h4a5.006 5.006 0 0 0 5-5v-4a5.006 5.006 0 0 0-5-5Zm3 9a3.003 3.003 0 0 1-3 3h-4a3.003 3.003 0 0 1-3-3v-4a3.003 3.003 0 0 1 3-3h4a3.003 3.003 0 0 1 3 3Z"/><path d="M14.222 12.126A.798.798 0 0 0 13 12.82v4.36a.798.798 0 0 0 1.222.694l3.403-2.18a.83.83 0 0 0 0-1.388Z"/></svg>