<svg xmlns="http://www.w3.org/2000/svg" width="22" height="22" viewBox="0 0 22 22"><path d="M18.387 8.444a6.126 6.126 0 0 0-4.287-6.25 3.285 3.285 0 0 0-6.197 0 6.125 6.125 0 0 0-4.287 6.25 6.326 6.326 0 0 1-1.813 3.908 3.369 3.369 0 0 0-.48 3.625A3.482 3.482 0 0 0 4.516 18H7a4 4 0 0 0 8 0h2.485a3.484 3.484 0 0 0 3.191-2.022 3.371 3.371 0 0 0-.478-3.626 6.4 6.4 0 0 1-1.811-3.908ZM11 20a2.002 2.002 0 0 1-2-2h4a2.002 2.002 0 0 1-2 2Zm7.863-4.867a1.482 1.482 0 0 1-1.378.867H4.515a1.482 1.482 0 0 1-1.378-.867 1.371 1.371 0 0 1 .197-1.494 8.179 8.179 0 0 0 2.282-5.195 4.147 4.147 0 0 1 3.03-4.393 1.826 1.826 0 0 0 1.107-1.09 1.293 1.293 0 0 1 2.5.008 1.829 1.829 0 0 0 1.103 1.082 4.148 4.148 0 0 1 3.03 4.393 8.164 8.164 0 0 0 2.28 5.195 1.371 1.371 0 0 1 .197 1.494Z"/></svg>