<svg xmlns="http://www.w3.org/2000/svg" width="22" height="22" viewBox="0 0 22 22"><path d="M16 20H6a5.006 5.006 0 0 1-5-5V8a5.006 5.006 0 0 1 5-5h.586l1.121-1.121A2.982 2.982 0 0 1 9.828 1h2.344a2.982 2.982 0 0 1 2.121.879L15.414 3H16a5.006 5.006 0 0 1 5 5v7a5.006 5.006 0 0 1-5 5ZM6 5a3.003 3.003 0 0 0-3 3v7a3.003 3.003 0 0 0 3 3h10a3.003 3.003 0 0 0 3-3V8a3.003 3.003 0 0 0-3-3h-1a1 1 0 0 1-.707-.293l-1.414-1.414A1.007 1.007 0 0 0 12.172 3H9.828a1.007 1.007 0 0 0-.707.293L7.707 4.707A1 1 0 0 1 7 5Z"/><path d="M11 16.5a5 5 0 1 1 5-5 5.006 5.006 0 0 1-5 5Zm0-8a3 3 0 1 0 3 3 3.003 3.003 0 0 0-3-3Z"/></svg>