<svg xmlns="http://www.w3.org/2000/svg" width="22" height="22" viewBox="0 0 22 22"><path d="M21 13.442V6a5.006 5.006 0 0 0-5-5H6a5.006 5.006 0 0 0-5 5v7.442l-.654 2.49A3.572 3.572 0 0 0 3.59 21h14.822a3.572 3.572 0 0 0 3.243-5.068ZM3 6a3.003 3.003 0 0 1 3-3h10a3.003 3.003 0 0 1 3 3v7H3Zm16.748 12.255A1.542 1.542 0 0 1 18.41 19H3.589a1.571 1.571 0 0 1-1.405-2.274 1.014 1.014 0 0 0 .072-.194L2.66 15H19.34l.403 1.532a1.014 1.014 0 0 0 .072.194 1.543 1.543 0 0 1-.068 1.529Z"/><path d="M14 16H8a1 1 0 0 0 0 2h6a1 1 0 0 0 0-2Z"/></svg>